<?xml version="1.0" encoding="utf-8"?>
<!-- Generator: Adobe Illustrator 23.0.3, SVG Export Plug-In . SVG Version: 6.00 Build 0)  -->
<svg version="1.1" id="图层_1" xmlns="http://www.w3.org/2000/svg" xmlns:xlink="http://www.w3.org/1999/xlink" x="0px" y="0px"
	 viewBox="0 0 12 12" style="enable-background:new 0 0 12 12;" xml:space="preserve">
<style type="text/css">
	.st0{fill:#606266;}
	.st1{fill:#FAAF00;}
	.st2{fill:#299C2C;}
	.st3{fill:#BCD4F8;}
	.st4{fill:#A7C5EC;}
	.st5{fill:#F39700;}
	.st6{fill:#00699D;}
	.st7{fill:#FFFFFF;}
	.st8{fill-rule:evenodd;clip-rule:evenodd;fill:#606266;}
	.st9{fill:#ABABAB;}
	.st10{fill:#626262;}
	.st11{fill:#2C2C2C;}
	.st12{fill-rule:evenodd;clip-rule:evenodd;fill:#BCD4F8;}
	.st13{clip-path:url(#SVGID_2_);}
	.st14{clip-path:url(#SVGID_4_);}
	.st15{fill:#231815;}
	.st16{clip-path:url(#SVGID_6_);}
	.st17{fill:#333333;}
</style>
<g>
	<path d="M0.8,12C0.3,12,0,11.6,0,11.2V8.6c0-0.4,0.3-0.8,0.8-0.8h2.6C3.6,9.1,4.7,10,6,10c1.3,0,2.4-0.9,2.7-2.2h2.6
		c0.4,0,0.8,0.3,0.8,0.8v2.6c0,0.4-0.3,0.8-0.8,0.8H0.8z M5.4,7.3c-0.1,0-0.2,0-0.2-0.1L2.7,4.7c-0.1-0.1-0.1-0.3,0-0.5
		C2.8,4.2,2.9,4.2,3,4.2c0.1,0,0.2,0,0.2,0.1l2.2,2.2l3.8-3.8c0.1-0.1,0.1-0.1,0.2-0.1c0.1,0,0.2,0,0.2,0.1c0.1,0.1,0.1,0.1,0.1,0.2
		c0,0.1,0,0.2-0.1,0.2L5.7,7.1C5.6,7.3,5.5,7.3,5.4,7.3z"/>
	<path d="M8.9,8.5V7.8h1.5V0.7l-0.2,0H1.7l-0.1,0l0,7.1h1.3v0.7h-2V0.8C0.9,0.4,1.3,0,1.7,0h8.5c0.5,0,0.9,0.3,0.9,0.8v7.7H8.9z"/>
</g>
</svg>
