<?xml version="1.0" encoding="utf-8"?>
<!-- Generator: Adobe Illustrator 23.0.3, SVG Export Plug-In . SVG Version: 6.00 Build 0)  -->
<svg version="1.1" id="图层_1" xmlns="http://www.w3.org/2000/svg" xmlns:xlink="http://www.w3.org/1999/xlink" x="0px" y="0px"
	 viewBox="0 0 12 12" style="enable-background:new 0 0 12 12;" xml:space="preserve">
<style type="text/css">
	.st0{fill:#606266;}
	.st1{fill:#FAAF00;}
	.st2{fill:#299C2C;}
	.st3{fill:#BCD4F8;}
	.st4{fill:#A7C5EC;}
	.st5{fill:#F39700;}
	.st6{fill:#00699D;}
	.st7{fill:#FFFFFF;}
	.st8{fill-rule:evenodd;clip-rule:evenodd;fill:#606266;}
	.st9{fill:#ABABAB;}
	.st10{fill:#626262;}
	.st11{fill:#2C2C2C;}
	.st12{fill-rule:evenodd;clip-rule:evenodd;fill:#BCD4F8;}
	.st13{clip-path:url(#SVGID_2_);}
	.st14{clip-path:url(#SVGID_4_);}
	.st15{fill:#231815;}
	.st16{font-family:'AdobeSongStd-Light-GBpc-EUC-H';}
	.st17{font-size:6px;}
	.st18{clip-path:url(#SVGID_6_);}
	.st19{fill:#333333;}
</style>
<text transform="matrix(1 0 0 1 -5.685 -8.2285)" class="st7 st16 st17">现货业务</text>
<g>
	<path d="M8.8,4.1C8.9,4.1,8.9,4.2,8.8,4.1l2.4-1.3c0,0-0.1-0.1-0.1-0.1L6.5,0.1C6.2,0,5.8,0,5.5,0.1l-1.8,1L8.8,4.1z"/>
	<path d="M6.5,6.4v5.2c0,0.2-0.2,0.4-0.4,0.4c-0.2,0-0.4-0.2-0.4-0.4v-5l-5.3-3c0,0,0,0,0,0v4.9c0,0.3,0.2,0.6,0.5,0.8l4.7,2.7
		C5.7,12,5.8,12,6,12c0.2,0,0.3,0,0.5-0.1l4.7-2.7c0.3-0.2,0.5-0.5,0.5-0.8V3.6c0,0,0,0,0,0L6.5,6.4z"/>
	<path d="M6,5.8l2.1-1.2l-5.1-3L0.9,2.8c0,0-0.1,0-0.1,0.1L6,5.8z"/>
</g>
</svg>
