<?xml version="1.0" encoding="utf-8"?>
<!-- Generator: Adobe Illustrator 22.0.2, SVG Export Plug-In . SVG Version: 6.00 Build 0)  -->
<svg version="1.1" id="图层_1" xmlns="http://www.w3.org/2000/svg" xmlns:xlink="http://www.w3.org/1999/xlink" x="0px" y="0px"
	 viewBox="0 0 14 14" style="enable-background:new 0 0 14 14;" xml:space="preserve">
<style type="text/css">
	.st0{fill:#606266;}
	.st1{fill:#A7C5EC;}
	.st2{fill:#FAAF00;}
	.st3{fill:#299C2C;}
	.st4{fill:#979A9F;}
	.st5{fill:#606165;}
	.st6{fill:#00699D;}
	.st7{fill-rule:evenodd;clip-rule:evenodd;fill:#606266;}
	.st8{fill:#626262;}
	.st9{fill:#FFFFFF;}
</style>
<g>
	<path d="M7,0C3.2,0,0,3.1,0,7c0,3.9,3.1,7,7,7c3.9,0,7-3.1,7-7C14,3.1,10.9,0,7,0L7,0z M10,6.3v1H7.7v1.4H10v1H7.7v2
		H6.4v-2H4.1v-1h2.4V7.3H4.1v-1h2l-2.4-4H5l1.7,3C6.8,5.5,7,5.7,7.1,6h0c0.1-0.2,0.2-0.5,0.3-0.8l1.7-2.9h1.3L8,6.3H10z M10,6.3"/>
</g>
</svg>
