<?xml version="1.0" encoding="utf-8"?>
<!-- Generator: Adobe Illustrator 23.0.3, SVG Export Plug-In . SVG Version: 6.00 Build 0)  -->
<svg version="1.1" id="图层_1" xmlns="http://www.w3.org/2000/svg" xmlns:xlink="http://www.w3.org/1999/xlink" x="0px" y="0px"
	 viewBox="0 0 12 12" style="enable-background:new 0 0 12 12;" xml:space="preserve">
<style type="text/css">
	.st0{fill:#606266;}
	.st1{fill:#FAAF00;}
	.st2{fill:#299C2C;}
	.st3{fill:#BCD4F8;}
	.st4{fill:#A7C5EC;}
	.st5{fill:#F39700;}
	.st6{fill:#00699D;}
	.st7{fill:#FFFFFF;}
	.st8{fill-rule:evenodd;clip-rule:evenodd;fill:#606266;}
	.st9{fill:#ABABAB;}
	.st10{fill:#626262;}
	.st11{fill:#2C2C2C;}
	.st12{fill-rule:evenodd;clip-rule:evenodd;fill:#BCD4F8;}
	.st13{clip-path:url(#SVGID_2_);}
	.st14{clip-path:url(#SVGID_4_);}
	.st15{fill:#231815;}
	.st16{font-family:'AdobeSongStd-Light-GBpc-EUC-H';}
	.st17{font-size:6px;}
	.st18{clip-path:url(#SVGID_6_);}
	.st19{fill:#333333;}
</style>
<text transform="matrix(1 0 0 1 -5.0671 -8.4639)" class="st7 st16 st17">合同管理</text>
<g>
	<g>
		<path d="M8.9,7.6c-0.6,0-1.2,0.2-1.6,0.7c-0.4,0.4-0.7,1-0.7,1.6c0,0.6,0.2,1.2,0.7,1.6C7.8,11.8,8.4,12,9,12
			c0.6,0,1.2-0.2,1.6-0.7c0.4-0.4,0.7-1,0.7-1.6c0-0.6-0.2-1.2-0.7-1.6C10.1,7.8,9.5,7.5,8.9,7.6L8.9,7.6z M10.3,9.8l-0.4,0.4l0,0.6
			c0,0.1,0,0.2-0.1,0.2c-0.1,0-0.2,0-0.2,0L9,10.7L8.4,11c-0.1,0-0.2,0-0.3,0c-0.1-0.1-0.1-0.1-0.1-0.2l0.1-0.7L7.7,9.6
			c0,0,0-0.1,0-0.2c0-0.1,0.1-0.2,0.1-0.2l0.7-0.1l0.3-0.6c0.1-0.2,0.3-0.2,0.4,0l0.3,0.6l0.7,0.1c0.1,0,0.2,0.1,0.2,0.2
			C10.4,9.6,10.3,9.7,10.3,9.8L10.3,9.8z"/>
		<path d="M10.4,2.5L8.2,0.2C8,0.1,7.9,0,7.7,0H1.5C1,0,0.8,0.2,0.8,0.7v10.1c0,0.5,0.2,0.6,0.7,0.7l5.3,0C6.3,11,6,10.5,6,9.8
			C6,8.2,7.4,6.9,9,6.9c0.7,0,1.1,0.2,1.6,0.6l0-4.6C10.6,2.7,10.5,2.6,10.4,2.5L10.4,2.5z M5.8,7.5h-3C2.7,7.5,2.5,7.3,2.5,7
			c0-0.3,0.1-0.5,0.3-0.5h3C6,6.5,6.1,6.7,6.1,7C6.1,7.2,6,7.5,5.8,7.5L5.8,7.5z M8.4,5.4H3c-0.3,0-0.5-0.2-0.5-0.5
			c0-0.3,0.2-0.5,0.5-0.5h5.4c0.3,0,0.5,0.2,0.5,0.5C8.9,5.2,8.6,5.4,8.4,5.4L8.4,5.4z M8.4,3.4H3c-0.3,0-0.5-0.2-0.5-0.5
			c0-0.3,0.2-0.5,0.5-0.5h5.4c0.3,0,0.5,0.2,0.5,0.5C8.8,3.2,8.6,3.4,8.4,3.4L8.4,3.4z M8.4,3.4"/>
	</g>
</g>
</svg>
