<?xml version="1.0" encoding="utf-8"?>
<!-- Generator: Adobe Illustrator 22.0.2, SVG Export Plug-In . SVG Version: 6.00 Build 0)  -->
<svg version="1.1" id="图层_1" xmlns="http://www.w3.org/2000/svg" xmlns:xlink="http://www.w3.org/1999/xlink" x="0px" y="0px"
	 viewBox="0 0 14 14" style="enable-background:new 0 0 14 14;" xml:space="preserve">
<style type="text/css">
	.st0{fill:#606266;}
	.st1{fill:#A7C5EC;}
	.st2{fill:#FAAF00;}
	.st3{fill:#299C2C;}
	.st4{fill:#979A9F;}
	.st5{fill:#606165;}
	.st6{fill:#00699D;}
	.st7{fill-rule:evenodd;clip-rule:evenodd;fill:#606266;}
	.st8{fill:#626262;}
	.st9{fill:#FFFFFF;}
</style>
<g>
	<g>
		<path d="M0,13.2h14V14H0V13.2z M1,8c0.3,0,0.5-0.1,0.7-0.3C1.9,7.5,2,7.3,2,7C2,6.8,2,6.6,1.9,6.5L4,4.3
			c0.2,0.1,0.3,0.1,0.5,0.1c0.3,0,0.6-0.1,0.7-0.3l2.3,1.1c0,0.1,0,0.1,0,0.2c0,0.4,0.3,0.8,0.7,0.9c0.4,0.1,0.8,0,1.1-0.3
			C9.6,5.8,9.6,5.3,9.4,5l3.1-3.1C12.7,1.9,12.8,2,13,2c0.6,0,1-0.4,1-1c0-0.6-0.4-1-1-1c-0.6,0-1,0.4-1,1c0,0.2,0.1,0.4,0.1,0.5
			L9,4.6C8.9,4.5,8.7,4.5,8.5,4.5C8.2,4.5,8,4.6,7.8,4.8L5.5,3.7c0-0.1,0-0.1,0-0.2c0-0.6-0.4-1-1-1c-0.6,0-1,0.4-1,1
			c0,0.2,0,0.4,0.1,0.5L1.5,6.1C1.4,6,1.2,6,1,6C0.5,6,0,6.4,0,7C0,7.5,0.5,8,1,8L1,8z M1,8"/>
		<path d="M13,4.4L8.5,8.8l-4.1-2v0v0L0,11.2l0,0h0v1.1h14v-8H13z M13,4.4"/>
	</g>
</g>
</svg>
