<?xml version="1.0" encoding="utf-8"?>
<!-- Generator: Adobe Illustrator 23.0.3, SVG Export Plug-In . SVG Version: 6.00 Build 0)  -->
<svg version="1.1" id="图层_1" xmlns="http://www.w3.org/2000/svg" xmlns:xlink="http://www.w3.org/1999/xlink" x="0px" y="0px"
	 viewBox="0 0 12 12" style="enable-background:new 0 0 12 12;" xml:space="preserve">
<style type="text/css">
	.st0{fill:#606266;}
	.st1{fill:#FAAF00;}
	.st2{fill:#299C2C;}
	.st3{fill:#BCD4F8;}
	.st4{fill:#A7C5EC;}
	.st5{fill:#F39700;}
	.st6{fill:#00699D;}
	.st7{fill:#FFFFFF;}
	.st8{fill-rule:evenodd;clip-rule:evenodd;fill:#606266;}
	.st9{fill:#ABABAB;}
	.st10{fill:#626262;}
	.st11{fill:#2C2C2C;}
	.st12{fill-rule:evenodd;clip-rule:evenodd;fill:#BCD4F8;}
	.st13{clip-path:url(#SVGID_2_);}
	.st14{clip-path:url(#SVGID_4_);}
	.st15{fill:#231815;}
	.st16{font-family:'AdobeSongStd-Light-GBpc-EUC-H';}
	.st17{font-size:6px;}
	.st18{clip-path:url(#SVGID_6_);}
	.st19{fill:#333333;}
</style>
<text transform="matrix(1 0 0 1 -10.4203 -8.2287)" class="st7 st16 st17">衍生品业务</text>
<path d="M5.5,3.8c-0.2,0.2-0.6,0.7-0.8,1l0.5-0.1c0.3,0,0.5,0.1,0.6,0.3c0,0.2-0.1,0.5-0.4,0.5l-1,0.2C4.1,5.9,3.7,6,3.7,6
	C3.3,6.1,3.1,5.9,3,5.6C3,5.4,2.7,4.2,2.7,4.2c0-0.1,0-0.2,0-0.3c0.1-0.1,0.2-0.2,0.3-0.2l0,0C3.3,3.6,3.6,3.7,3.6,4
	c0,0,0.1,0.5,0.1,0.5C4.1,4.2,4.7,3.4,5,3C5,2.9,5.2,2.9,5.3,2.8c0.1,0,0.3,0,0.4,0.1c0,0,4.5,2.4,6.4,3.4c0-0.1,0-0.2,0-0.3
	c0-2.4-1.5-4.6-3.7-5.5C6.2-0.5,3.6,0,1.9,1.8c-1,1-1.6,2.3-1.7,3.6l6.3,3.4l0.9-1.2L6.9,7.7c-0.2,0-0.3,0.1-0.4,0
	c-0.2,0-0.3-0.1-0.4-0.3c0-0.2,0.1-0.4,0.2-0.5c0.2-0.1,0.5-0.1,0.5-0.1c0,0,1.5-0.3,1.5-0.3c0.1,0,0.2,0,0.3,0
	c0.2,0.1,0.2,0.2,0.2,0.3c0,0,0.2,1.5,0.2,1.7c0,0.1,0,0.2,0,0.3C9.1,8.9,9,9,8.8,9.1c-0.1,0-0.1,0-0.2,0c-0.2,0-0.4-0.1-0.4-0.4
	c0-0.1,0-0.3-0.1-0.6L7,9.6C6.9,9.7,6.8,9.8,6.6,9.8l0,0c-0.2,0-0.3,0-0.4-0.1L0.1,6.4c0,0.6,0.2,1.3,0.4,1.9
	C1.5,10.5,3.7,12,6.1,12c2.9,0,5.3-2,5.9-4.7L5.5,3.8z"/>
</svg>
