<?xml version="1.0" encoding="utf-8"?>
<!-- Generator: Adobe Illustrator 22.0.2, SVG Export Plug-In . SVG Version: 6.00 Build 0)  -->
<svg version="1.1" id="图层_1" xmlns="http://www.w3.org/2000/svg" xmlns:xlink="http://www.w3.org/1999/xlink" x="0px" y="0px"
	 viewBox="0 0 14 14" style="enable-background:new 0 0 14 14;" xml:space="preserve">
<style type="text/css">
	.st0{fill:#606266;}
	.st1{fill:#A7C5EC;}
	.st2{fill:#FAAF00;}
	.st3{fill:#299C2C;}
	.st4{fill:#979A9F;}
	.st5{fill:#606165;}
	.st6{fill:#00699D;}
	.st7{fill-rule:evenodd;clip-rule:evenodd;fill:#606266;}
	.st8{fill:#626262;}
	.st9{fill:#FFFFFF;}
</style>
<g>
	<path d="M14.1,8v5.5h-14V8C0.4,7.4,0.7,6.6,1,5.9c0.3-1.5,0.4-3,0.6-4.4c0.1-0.3,0.1-0.7,0.2-1h10.5
		c0.1,0.1,0.1,0.2,0.2,0.4c0.2,1.2,0.3,2.3,0.4,3.5C13,5.6,13.4,6.9,14.1,8L14.1,8z M1.6,7.7h2.7c0.3-0.1,0.5,0.1,0.6,0.4
		c0,0,0,0.1,0,0.1c0.1,1.2,1.1,2.1,2.3,2.1c1.1-0.1,2-0.9,2.1-2.1c0-0.3,0.2-0.5,0.5-0.5c0,0,0.1,0,0.1,0h2.7l-0.8-6.3H2.4L1.6,7.7
		L1.6,7.7z M7.1,2.1h2.7c0.3,0,0.6,0.1,0.6,0.4c0,0.4-0.3,0.4-0.6,0.4H4.3C4,3,3.7,2.9,3.7,2.6c0-0.4,0.3-0.4,0.6-0.4H7.1z M7.1,4.7
		H4.3c-0.3,0-0.6,0-0.6-0.4c0-0.4,0.3-0.4,0.6-0.4h5.5c0.3,0,0.6,0,0.6,0.4c0,0.4-0.3,0.4-0.6,0.4L7.1,4.7L7.1,4.7z M7,6.5H4.3
		C4,6.5,3.7,6.4,3.7,6c0-0.4,0.3-0.4,0.6-0.4h5.5c0.3,0,0.6,0.1,0.6,0.4c0,0.4-0.3,0.4-0.6,0.4L7,6.5L7,6.5z M7,6.5"/>
</g>
</svg>
