<?xml version="1.0" encoding="utf-8"?>
<!-- Generator: Adobe Illustrator 22.0.2, SVG Export Plug-In . SVG Version: 6.00 Build 0)  -->
<svg version="1.1" id="图层_1" xmlns="http://www.w3.org/2000/svg" xmlns:xlink="http://www.w3.org/1999/xlink" x="0px" y="0px"
	 viewBox="0 0 14 14" style="enable-background:new 0 0 14 14;" xml:space="preserve">
<style type="text/css">
	.st0{fill:#606266;}
	.st1{fill:#A7C5EC;}
	.st2{fill:#FAAF00;}
	.st3{fill:#299C2C;}
	.st4{fill:#979A9F;}
	.st5{fill:#606165;}
	.st6{fill:#00699D;}
	.st7{fill-rule:evenodd;clip-rule:evenodd;fill:#606266;}
	.st8{fill:#626262;}
	.st9{fill:#FFFFFF;}
</style>
<path d="M13.9,6.1c0.2-0.2,0.3-0.5,0.2-0.8C14,5,13.8,4.8,13.5,4.7L10,4.2C9.7,4.2,9.5,4,9.3,3.7L7.8,0.4
	C7.7,0.2,7.4,0,7.1,0C6.8,0,6.6,0.1,6.4,0.4L4.9,3.7C4.8,4,4.5,4.2,4.2,4.2L0.8,4.7C0.5,4.8,0.2,5,0.2,5.3c-0.1,0.3,0,0.6,0.2,0.8
	l2.5,2.6c0.2,0.2,0.3,0.5,0.3,0.8l-0.6,3.6c0,0.2,0,0.5,0.2,0.7C2.8,13.9,3.1,14,3.3,14c0.1,0,0.2,0,0.3-0.1l3.1-1.7
	c0.1-0.1,0.3-0.1,0.4-0.1c0.1,0,0.3,0,0.4,0.1l3.1,1.7C10.8,14,10.9,14,11,14c0.2,0,0.4-0.1,0.5-0.3c0.2-0.2,0.2-0.4,0.2-0.7
	l-0.6-3.6c-0.1-0.3,0-0.6,0.3-0.8L13.9,6.1z"/>
</svg>
