<?xml version="1.0" encoding="utf-8"?>
<!-- Generator: Adobe Illustrator 22.0.2, SVG Export Plug-In . SVG Version: 6.00 Build 0)  -->
<svg version="1.1" id="图层_1" xmlns="http://www.w3.org/2000/svg" xmlns:xlink="http://www.w3.org/1999/xlink" x="0px" y="0px"
	 viewBox="0 0 14 14" style="enable-background:new 0 0 14 14;" xml:space="preserve">
<style type="text/css">
	.st0{fill:#606266;}
	.st1{fill:#A7C5EC;}
	.st2{fill:#FAAF00;}
	.st3{fill:#299C2C;}
	.st4{fill:#979A9F;}
	.st5{fill:#606165;}
	.st6{fill:#00699D;}
	.st7{fill-rule:evenodd;clip-rule:evenodd;fill:#606266;}
	.st8{fill:#626262;}
	.st9{fill:#FFFFFF;}
</style>
<g>
	<path d="M13.5,4.3C13.1,3.4,12.6,2.7,12,2c-0.6-0.6-1.4-1.1-2.2-1.5C8.9,0.2,8,0,7,0C3.2,0,0,3.1,0,7c0,3.9,3.1,7,7,7
		c0.9,0,1.9-0.2,2.7-0.6c0.8-0.4,1.6-0.9,2.2-1.5c0.6-0.6,1.1-1.4,1.5-2.2C13.8,8.8,14,7.9,14,7C14,6,13.8,5.1,13.5,4.3L13.5,4.3z
		 M10.2,7.5c0.1,0.2,0.3,0.4,0.5,0.5c-0.4,1.4-1.6,2.5-3.1,2.7V9.6c0.5-0.1,1-0.3,1.3-0.7C9.3,8.5,9.5,8,9.6,7.5H10.2z M10.1,6.5
		H9.6C9.5,6,9.3,5.5,8.9,5.1C8.5,4.8,8,4.5,7.5,4.4V3.3c1.5,0.2,2.7,1.2,3.1,2.7C10.4,6,10.2,6.2,10.1,6.5L10.1,6.5z M7.5,13v-1.2
		c1-0.1,1.9-0.5,2.6-1.1c0.4-0.3,0.7-0.7,1-1.1c0.2-0.4,0.4-0.9,0.5-1.3C12,8,12.2,7.8,12.4,7.5H13C12.8,10.4,10.4,12.7,7.5,13
		L7.5,13z M11.1,4.5c-0.3-0.4-0.6-0.8-1-1.1c-0.7-0.6-1.6-1-2.6-1.1V1c2.9,0.2,5.2,2.6,5.5,5.5h-0.6c-0.1-0.3-0.4-0.6-0.7-0.7
		C11.5,5.3,11.4,4.9,11.1,4.5L11.1,4.5z M5.1,3.7C5.6,3.5,6,3.3,6.5,3.3v1.2C6,4.5,5.5,4.8,5.2,5.1C4.8,5.5,4.6,6,4.5,6.5H3.3
		c0.1-0.4,0.2-0.9,0.4-1.2c0.1,0,0.2,0,0.3,0c0.7,0,1.2-0.6,1.2-1.2C5.2,3.9,5.2,3.8,5.1,3.7L5.1,3.7z M3.9,2.8
		C3.3,2.8,2.7,3.4,2.7,4c0,0.2,0.1,0.4,0.2,0.6C2.6,5.2,2.4,5.8,2.3,6.5H1.1C1.3,3.6,3.6,1.3,6.5,1v1.2c-0.7,0.1-1.4,0.3-2,0.7
		C4.3,2.8,4.1,2.8,3.9,2.8L3.9,2.8z M4.5,7.5c0.1,0.5,0.3,1,0.7,1.3C5.6,9.2,6,9.5,6.5,9.6v1.2c-1.7-0.2-3-1.5-3.2-3.2H4.5z
		 M6.5,11.7v1.2c-2.9-0.2-5.2-2.5-5.5-5.5h1.2c0.1,1.1,0.6,2.1,1.4,2.9C4.4,11.1,5.4,11.6,6.5,11.7L6.5,11.7z M6.5,11.7"/>
</g>
</svg>
