<?xml version="1.0" encoding="utf-8"?>
<!-- Generator: Adobe Illustrator 22.0.2, SVG Export Plug-In . SVG Version: 6.00 Build 0)  -->
<svg version="1.1" id="图层_1" xmlns="http://www.w3.org/2000/svg" xmlns:xlink="http://www.w3.org/1999/xlink" x="0px" y="0px"
	 viewBox="0 0 14 14" style="enable-background:new 0 0 14 14;" xml:space="preserve">
<style type="text/css">
	.st0{fill:#606266;}
	.st1{fill:#A7C5EC;}
	.st2{fill:#FAAF00;}
	.st3{fill:#299C2C;}
	.st4{fill:#979A9F;}
	.st5{fill:#FFFFFF;}
	.st6{fill:#606165;}
	.st7{fill:#00699D;}
	.st8{fill-rule:evenodd;clip-rule:evenodd;fill:#606266;}
	.st9{fill:#626262;}
</style>
<rect x="8.1" y="7" transform="matrix(-1 -1.224647e-16 1.224647e-16 -1 20.1728 15.0471)" width="4" height="1"/>
<rect x="7.2" y="4.7" transform="matrix(-1 -1.224647e-16 1.224647e-16 -1 17.3258 10.3655)" width="3" height="1"/>
<path d="M13.1,2.3H6.2c-0.5,0-0.9,0.4-0.9,0.9v1c-0.1,0-0.1,0-0.2,0H2.7c-0.2,0-0.4,0.1-0.8,0.5C1.7,5,1.5,5.2,1.3,5.4
	L1.3,5.5C1.2,5.5,1.2,5.6,1.1,5.7C1,5.7,1,5.8,0.9,5.9C0.7,6.2,0.5,6.5,0.3,6.8C0,7.2,0,7.4,0,7.5v2.9c0,0.5,0.4,0.9,0.9,0.9h0.5
	c0.1,0.7,0.7,1.2,1.4,1.3c0.5,0.1,0.9,0,1.3-0.3c0.4-0.3,0.6-0.6,0.7-1.1h0.2c0.2,0,0.4-0.1,0.6-0.2c0.2,0.1,0.4,0.2,0.6,0.2h2.4
	c0.2,0.8,0.9,1.4,1.7,1.4c0.8,0,1.5-0.6,1.7-1.4h1.1c0.5,0,0.9-0.4,0.9-0.9V3.3C14,2.8,13.6,2.3,13.1,2.3L13.1,2.3z M2.1,11L2.1,11
	c0-0.6,0.5-1.1,1-1.1c0.6,0,1,0.5,1,1c0,0.6-0.5,1-1,1C2.6,12,2.1,11.6,2.1,11L2.1,11z M3.1,9.2L3.1,9.2c-0.8,0-1.5,0.6-1.7,1.4H0.9
	c-0.1,0-0.2-0.1-0.2-0.2V8.3h2.7c0.5,0,0.9-0.4,0.9-0.9V6.3c0-0.5-0.4-0.9-0.9-0.9H2.3c0,0,0,0,0,0C2.6,5.1,2.7,5,2.7,5h2.3
	c0.1,0,0.2,0.1,0.2,0.2v5.3c0,0.1-0.1,0.2-0.2,0.2H4.8C4.7,9.8,3.9,9.3,3.1,9.2L3.1,9.2z M0.7,7.6c0,0,0-0.1,0.2-0.4c0,0,0,0,0-0.1
	C1,7.1,1,7,1,7c0.2-0.3,0.4-0.6,0.6-0.9h1.8c0.1,0,0.2,0.1,0.2,0.2v1.1c0,0.1-0.1,0.2-0.2,0.2L0.7,7.6L0.7,7.6z M10,10.1
	c0.5-0.2,1.1,0.1,1.3,0.6l0,0c0,0.1,0,0.1,0,0.2V11c0,0.6-0.5,1-1,1c-0.5,0-0.9-0.4-1-0.8V11C9.3,10.6,9.6,10.2,10,10.1L10,10.1z
	 M10.3,9.2L10.3,9.2c-0.8,0-1.5,0.6-1.7,1.4c0,0,0,0,0,0H6.2c-0.1,0-0.2-0.1-0.2-0.2V3.3c0-0.1,0.1-0.2,0.2-0.2h6.9
	c0.1,0,0.2,0.1,0.2,0.2v7.2c0,0.1-0.1,0.2-0.2,0.2H12v0C11.8,9.8,11.1,9.3,10.3,9.2L10.3,9.2z M10.3,9.2"/>
</svg>
