<?xml version="1.0" encoding="utf-8"?>
<!-- Generator: Adobe Illustrator 23.0.3, SVG Export Plug-In . SVG Version: 6.00 Build 0)  -->
<svg version="1.1" id="图层_1" xmlns="http://www.w3.org/2000/svg" xmlns:xlink="http://www.w3.org/1999/xlink" x="0px" y="0px"
	 viewBox="0 0 12 12" style="enable-background:new 0 0 12 12;" xml:space="preserve">
<style type="text/css">
	.st0{fill:#606266;}
	.st1{fill:#FAAF00;}
	.st2{fill:#299C2C;}
	.st3{fill:#BCD4F8;}
	.st4{fill:#A7C5EC;}
	.st5{fill:#F39700;}
	.st6{fill:#00699D;}
	.st7{fill:#FFFFFF;}
	.st8{fill-rule:evenodd;clip-rule:evenodd;fill:#606266;}
	.st9{fill:#ABABAB;}
	.st10{fill:#626262;}
	.st11{fill:#2C2C2C;}
	.st12{fill-rule:evenodd;clip-rule:evenodd;fill:#BCD4F8;}
	.st13{clip-path:url(#SVGID_2_);}
	.st14{clip-path:url(#SVGID_4_);}
	.st15{fill:#231815;}
	.st16{font-family:'AdobeSongStd-Light-GBpc-EUC-H';}
	.st17{font-size:6px;}
	.st18{clip-path:url(#SVGID_6_);}
	.st19{fill:#333333;}
</style>
<text transform="matrix(1 0 0 1 -5.3748 -7.2873)" class="st7 st16 st17">业务报表</text>
<g>
	<path d="M1.5,2.1c1-1.2,2.5-2,4.1-2.1c0.2,0,0.2,0.1,0.2,0.2v6h6C12,6.2,12,6.4,12,6.4c-0.1,1.3-0.6,2.5-1.4,3.5
		c-0.1,0.1-0.2,0.2-0.3,0.3L10,10.5c-0.1,0.1-0.2,0.2-0.3,0.3C8.5,11.7,7,12.1,5.5,12C2.6,11.8,0.3,9.4,0,6.5
		C-0.1,4.9,0.4,3.3,1.5,2.1L1.5,2.1z"/>
	<path d="M12,6c0,3.3-2.7,6-5.9,6c-1.4,0-2.8-0.5-3.9-1.5C2.1,10.4,2,10.3,2,10.2c0-0.1,0-0.1,0.1-0.1C2.2,10,2.3,10,2.4,10
		c0,0,0.1,0,0.1,0.1c1,0.9,2.2,1.4,3.6,1.4C9,11.4,11.4,9,11.4,6S9,0.6,6.1,0.6C4.7,0.6,3.5,1.1,2.5,2C2.5,2,2.4,2,2.4,2
		C2.3,2,2.2,2,2.1,1.9c0,0-0.1-0.1-0.1-0.1c0-0.1,0.1-0.2,0.1-0.3C3.3,0.5,4.6,0,6.1,0C9.3,0,12,2.7,12,6z"/>
</g>
</svg>
