<?xml version="1.0" encoding="utf-8"?>
<!-- Generator: Adobe Illustrator 23.0.3, SVG Export Plug-In . SVG Version: 6.00 Build 0)  -->
<svg version="1.1" id="图层_1" xmlns="http://www.w3.org/2000/svg" xmlns:xlink="http://www.w3.org/1999/xlink" x="0px" y="0px"
	 viewBox="0 0 12 12"   style="enable-background:new 0 0 12 12;" xml:space="preserve">
<style type="text/css">
	.st0{fill:#606266;}
	.st1{fill:#FAAF00;}
	.st2{fill:#299C2C;}
	.st3{fill:#BCD4F8;}
	.st4{fill:#A7C5EC;}
	.st5{fill:#F39700;}
	.st6{fill:#00699D;}
	.st7{fill:#FFFFFF;}
	.st8{fill-rule:evenodd;clip-rule:evenodd;fill:#606266;}
	.st9{fill:#ABABAB;}
	.st10{fill:#626262;}
	.st11{fill:#2C2C2C;}
	.st12{fill-rule:evenodd;clip-rule:evenodd;fill:#BCD4F8;}
	.st13{clip-path:url(#SVGID_2_);}
	.st14{clip-path:url(#SVGID_4_);}
	.st15{fill:#231815;}
	.st16{font-family:'AdobeSongStd-Light-GBpc-EUC-H';}
	.st17{font-size:6px;}
	.st18{clip-path:url(#SVGID_6_);}
	.st19{fill:#333333;}
</style>
<text transform="matrix(1 0 0 1 -9.672 -8.4646)" class="st7 st16 st17">信用证管理</text>
<g>
	<path  d="M11,11.8H1.4c-0.7,0-1.2-0.5-1.2-1.2V3.4c0-0.7,0.5-1.2,1.2-1.2H11c0.7,0,1.2,0.5,1.2,1.2v7.2
		C12.2,11.3,11.6,11.8,11,11.8L11,11.8z M11.2,3.6c0-0.3-0.1-0.4-0.4-0.4H1.5c-0.3,0-0.4,0.1-0.4,0.4v6.9c0,0.3,0.1,0.4,0.4,0.4h9.3
		c0.3,0,0.4-0.1,0.4-0.4V3.6z M11.2,3.6"/>
	<path  d="M0.2,5.4h12v0.8h-12V5.4z M10.9,7.7L9.8,9.4C9.7,9.5,9.5,9.6,9.3,9.5c-0.1,0-0.1-0.1-0.2-0.2
		c0-0.1,0-0.2,0-0.3l1.1-1.7c0.1-0.2,0.3-0.2,0.5-0.1c0.1,0,0.1,0.1,0.2,0.2C11,7.5,11,7.6,10.9,7.7L10.9,7.7z M8,9.4
		C7.9,9.5,7.7,9.6,7.5,9.5c-0.1,0-0.1-0.1-0.2-0.2c0-0.1,0-0.2,0-0.3l1.1-1.7C8.6,7.2,8.8,7.1,9,7.2c0.1,0,0.1,0.1,0.2,0.2
		c0,0.1,0,0.2,0,0.3L8,9.4z M6.2,9.4C6.1,9.5,5.9,9.6,5.7,9.5c-0.1,0-0.1-0.1-0.2-0.2c0-0.1,0-0.2,0-0.3l1.1-1.7
		C6.8,7.2,7,7.1,7.2,7.2c0.1,0,0.1,0.1,0.2,0.2c0,0.1,0,0.2,0,0.3L6.2,9.4z M6.2,9.4"/>
</g>
</svg>
