<?xml version="1.0" encoding="utf-8"?>
<!-- Generator: Adobe Illustrator 22.0.2, SVG Export Plug-In . SVG Version: 6.00 Build 0)  -->
<svg version="1.1" id="图层_1" xmlns="http://www.w3.org/2000/svg" xmlns:xlink="http://www.w3.org/1999/xlink" x="0px" y="0px"
	 viewBox="0 0 14 14" style="enable-background:new 0 0 14 14;" xml:space="preserve">
<style type="text/css">
	.st0{fill:#606266;}
	.st1{fill:#A7C5EC;}
	.st2{fill:#FAAF00;}
	.st3{fill:#299C2C;}
	.st4{fill:#979A9F;}
	.st5{fill:#FFFFFF;}
	.st6{fill:#606165;}
	.st7{fill:#00699D;}
	.st8{fill-rule:evenodd;clip-rule:evenodd;fill:#606266;}
	.st9{fill:#626262;}
</style>
<path d="M13.5,10.4H8.4c-0.3,0-0.4-0.2-0.4-0.5c0-0.3,0.2-0.5,0.4-0.5h5.1c0.3,0,0.5,0.2,0.5,0.5
	C14,10.2,13.8,10.4,13.5,10.4L13.5,10.4z M13.5,10.4"/>
<path d="M13.5,14H8.4c-0.2,0-0.3-0.1-0.4-0.2c-0.1-0.1-0.1-0.3,0-0.5c0.1-0.1,0.2-0.2,0.4-0.2h5.1
	c0.3,0,0.5,0.2,0.5,0.5C14,13.8,13.8,14,13.5,14L13.5,14z M13.5,14"/>
<path d="M11.9,12.2H8.4c-0.3,0-0.4-0.2-0.4-0.5s0.2-0.5,0.4-0.5h3.5c0.3,0,0.5,0.2,0.5,0.5C12.4,12,12.2,12.2,11.9,12.2
	L11.9,12.2z M11.9,12.2"/>
<path d="M6,6.9c-1.4,0-2.7-0.8-3.2-2.1C2.3,3.5,2.6,2,3.5,1c1-1,2.5-1.3,3.8-0.8C8.6,0.8,9.5,2,9.5,3.5
	C9.5,5.4,7.9,6.9,6,6.9L6,6.9z"/>
<path d="M0.5,12.9c-0.3,0-0.5-0.2-0.5-0.5C0,10.1,1.4,8,3.5,7c2.1-1,4.6-0.6,6.4,0.9c0.2,0.2,0.2,0.5,0,0.7
	c-0.2,0.2-0.5,0.2-0.7,0C7.8,7.3,5.7,7,3.9,7.8c-1.8,0.8-3,2.6-3,4.6C0.9,12.7,0.7,12.9,0.5,12.9L0.5,12.9z M0.5,12.9"/>
</svg>
