<?xml version="1.0" encoding="utf-8"?>
<!-- Generator: Adobe Illustrator 23.0.3, SVG Export Plug-In . SVG Version: 6.00 Build 0)  -->
<svg version="1.1" id="图层_1" xmlns="http://www.w3.org/2000/svg" xmlns:xlink="http://www.w3.org/1999/xlink" x="0px" y="0px"
	 width="20px" height="20px" viewBox="0 0 20 20" style="enable-background:new 0 0 20 20;" xml:space="preserve">
<style type="text/css">
	.st0{fill:#606266;}
	.st1{fill:#FAAF00;}
	.st2{fill:#299C2C;}
	.st3{fill:#BCD4F8;}
	.st4{fill:#A7C5EC;}
	.st5{fill:#F39700;}
	.st6{fill:#00699D;}
	.st7{fill:#FFFFFF;}
	.st8{fill-rule:evenodd;clip-rule:evenodd;fill:#606266;}
	.st9{fill:#ABABAB;}
	.st10{fill:#626262;}
	.st11{fill:#2C2C2C;}
	.st12{fill-rule:evenodd;clip-rule:evenodd;fill:#BCD4F8;}
	.st13{clip-path:url(#SVGID_2_);}
	.st14{clip-path:url(#SVGID_4_);}
	.st15{fill:#231815;}
	.st16{clip-path:url(#SVGID_6_);}
	.st17{fill:#6E6E6E;}
	.st18{fill:#333333;}
</style>
<g>
	<defs>
		<rect id="SVGID_1_" x="0" y="1.3" width="20" height="17.3"/>
	</defs>
	<clipPath id="SVGID_2_">
		<use xlink:href="#SVGID_1_"  style="overflow:visible;"/>
	</clipPath>
	<path class="st13" d="M18.3,15.9H1.7c-1,0-1.7-0.6-1.7-1.6V2.9c0-1,0.7-1.6,1.7-1.6h16.7c1,0,1.7,0.6,1.7,1.6v11.4
		C20,15.3,19.3,15.9,18.3,15.9L18.3,15.9z M1.7,2.4c-0.3,0-0.6,0.2-0.6,0.6v11.4c0,0.3,0.2,0.6,0.6,0.6h16.7c0.3,0,0.6-0.2,0.6-0.6
		V2.9c0-0.3-0.2-0.6-0.6-0.6H1.7z M9.4,15.9h1.1v1.6H9.4V15.9z M9.4,15.9"/>
</g>
<path d="M16.6,18.6h-13C3.3,18.6,3,18.4,3,18c0-0.3,0.4-0.5,0.7-0.5l13,0c0.3,0,0.6,0.2,0.6,0.5C17.2,18.4,16.9,18.6,16.6,18.6
	L16.6,18.6z"/>
<path d="M10.1,9.4c-1.6,0-2.9-1.3-2.9-2.9s1.3-2.9,2.9-2.9c1.6,0,2.9,1.3,2.9,2.9S11.7,9.4,10.1,9.4L10.1,9.4z"/>
<path d="M13.9,13.3c-0.3,0-0.6-0.3-0.6-0.6c0-1.8-1.4-3.2-3.2-3.2c-1.8,0-3.2,1.4-3.2,3.2c0,0.3-0.3,0.6-0.6,0.6
	c-0.3,0-0.6-0.3-0.6-0.6c0-2.4,2-4.4,4.4-4.4s4.4,2,4.4,4.4C14.5,13.1,14.3,13.3,13.9,13.3L13.9,13.3z M13.9,13.3"/>
</svg>
