<?xml version="1.0" encoding="utf-8"?>
<!-- Generator: Adobe Illustrator 22.0.2, SVG Export Plug-In . SVG Version: 6.00 Build 0)  -->
<svg version="1.1" id="图层_1" xmlns="http://www.w3.org/2000/svg" xmlns:xlink="http://www.w3.org/1999/xlink" x="0px" y="0px"
	 viewBox="0 0 14 14" style="enable-background:new 0 0 14 14;" xml:space="preserve">
<style type="text/css">
	.st0{fill:#606266;}
	.st1{fill:#A7C5EC;}
	.st2{fill:#FAAF00;}
	.st3{fill:#299C2C;}
	.st4{fill:#979A9F;}
	.st5{fill:#606165;}
	.st6{fill:#00699D;}
	.st7{fill-rule:evenodd;clip-rule:evenodd;fill:#606266;}
	.st8{fill:#626262;}
	.st9{fill:#FFFFFF;}
</style>
<g>
	<g>
		<path d="M13.2,8.7h-1.7V7.4c0-0.5-0.4-0.8-0.9-0.8H7.5V5.2h1.3c0.5,0,0.9-0.4,0.9-0.9V0.9C9.7,0.4,9.3,0,8.8,0H5.3
			C4.8,0,4.5,0.4,4.5,0.9v3.5c0,0.5,0.4,0.9,0.9,0.9h1.3v1.4H3.6C3.4,6.6,3.1,6.7,3,6.8C2.8,7,2.7,7.2,2.7,7.4v1.3H1
			C0.7,8.7,0.5,8.8,0.3,9C0.2,9.2,0.1,9.4,0.1,9.6v3.5c0,0.2,0.1,0.5,0.3,0.6C0.5,13.9,0.7,14,1,14h3.5c0.5,0,0.9-0.4,0.9-0.9V9.6
			c0-0.5-0.4-0.9-0.9-0.9H3.6V7.4h7v1.3H9.7c-0.5,0-0.9,0.4-0.9,0.9v3.5c0,0.5,0.4,0.9,0.9,0.9h3.5c0.5,0,0.9-0.4,0.9-0.9V9.6
			C14.1,9.1,13.7,8.7,13.2,8.7L13.2,8.7z M13.2,8.7"/>
	</g>
</g>
</svg>
