<?xml version="1.0" encoding="utf-8"?>
<!-- Generator: Adobe Illustrator 23.0.3, SVG Export Plug-In . SVG Version: 6.00 Build 0)  -->
<svg version="1.1" id="图层_1" xmlns="http://www.w3.org/2000/svg" xmlns:xlink="http://www.w3.org/1999/xlink" x="0px" y="0px"
	 width="20px" height="20px" viewBox="0 0 20 20" style="enable-background:new 0 0 20 20;" xml:space="preserve">
<style type="text/css">
	.st0{fill:#606266;}
	.st1{fill:#FAAF00;}
	.st2{fill:#299C2C;}
	.st3{fill:#BCD4F8;}
	.st4{fill:#A7C5EC;}
	.st5{fill:#F39700;}
	.st6{fill:#00699D;}
	.st7{fill:#FFFFFF;}
	.st8{fill-rule:evenodd;clip-rule:evenodd;fill:#606266;}
	.st9{fill:#ABABAB;}
	.st10{fill:#626262;}
	.st11{fill:#2C2C2C;}
	.st12{fill-rule:evenodd;clip-rule:evenodd;fill:#BCD4F8;}
	.st13{clip-path:url(#SVGID_2_);}
	.st14{clip-path:url(#SVGID_4_);}
	.st15{fill:#231815;}
	.st16{clip-path:url(#SVGID_6_);}
	.st17{fill:#6E6E6E;}
	.st18{fill:#333333;}
</style>
<path d="M1.2,8.7V2.9c0-0.6,0.4-1.2,1.1-1.3L9.8,0c0.2,0,0.3,0,0.5,0l7.5,1.6c0.6,0.1,1.1,0.6,1.1,1.3v5.6c0,2.1-0.7,4.2-2.1,5.8
	c-0.8,0.9-1.4,1.6-2,2.1c-0.9,0.8-1.6,1.9-4,3.3c-0.4,0.2-0.9,0.3-1.3,0c-2.4-1.3-3.1-2.4-4.1-3.4c-0.6-0.5-1.2-1.2-1.9-2
	C1.9,12.8,1.2,10.8,1.2,8.7L1.2,8.7z M9,4.3l-2.6,6c0,0,0,0.1,0,0.1c0,0,0.1,0.1,0.1,0.1h2.7c0,0,0.1,0,0.1,0c0,0,0,0.1,0,0.1
	l-1,4.5c0,0.1,0,0.1,0.1,0.1c0.1,0,0.1,0,0.2,0l5-6.8c0,0,0-0.1,0-0.1c0,0-0.1-0.1-0.1-0.1h-3c0,0-0.1,0-0.1-0.1c0,0,0-0.1,0-0.1
	l1.6-3.7c0,0,0-0.1,0-0.1c0,0-0.1-0.1-0.1-0.1H9.1C9,4.2,9,4.3,9,4.3L9,4.3z M9,4.3"/>
</svg>
