<?xml version="1.0" encoding="utf-8"?>
<!-- Generator: Adobe Illustrator 23.0.3, SVG Export Plug-In . SVG Version: 6.00 Build 0)  -->
<svg version="1.1" id="图层_1" xmlns="http://www.w3.org/2000/svg" xmlns:xlink="http://www.w3.org/1999/xlink" x="0px" y="0px"
	 viewBox="0 0 12 12" style="enable-background:new 0 0 12 12;" xml:space="preserve">
<style type="text/css">
	.st0{fill:#606266;}
	.st1{fill:#FAAF00;}
	.st2{fill:#299C2C;}
	.st3{fill:#BCD4F8;}
	.st4{fill:#A7C5EC;}
	.st5{fill:#F39700;}
	.st6{fill:#00699D;}
	.st7{fill:#FFFFFF;}
	.st8{fill-rule:evenodd;clip-rule:evenodd;fill:#606266;}
	.st9{fill:#ABABAB;}
	.st10{fill:#626262;}
	.st11{fill:#2C2C2C;}
	.st12{fill-rule:evenodd;clip-rule:evenodd;fill:#BCD4F8;}
	.st13{clip-path:url(#SVGID_2_);}
	.st14{clip-path:url(#SVGID_4_);}
	.st15{fill:#231815;}
	.st16{font-family:'AdobeSongStd-Light-GBpc-EUC-H';}
	.st17{font-size:6px;}
	.st18{clip-path:url(#SVGID_6_);}
	.st19{fill:#333333;}
</style>
<text transform="matrix(1 0 0 1 -5.6606 -7.4048)" class="st7 st16 st17">消息管理</text>
<g>
	<path d="M10.7,3.3c-0.1-0.2-0.4-0.3-0.6-0.2L6,5.1l-4.1-2C1.8,3,1.6,3,1.4,3.1C1.3,3.2,1.2,3.3,1.2,3.5c0,0.2,0.1,0.3,0.3,0.4
		L5.8,6C5.9,6,5.9,6.1,6,6.1c0.1,0,0.1,0,0.2-0.1l4.3-2.1c0.1-0.1,0.2-0.1,0.2-0.3C10.8,3.5,10.7,3.4,10.7,3.3L10.7,3.3z M10.7,3.3"
		/>
	<path d="M10.7,0.4H1.3C0.6,0.4,0,1,0,1.7v7.7c0,0.7,0.6,1.3,1.3,1.3h3.6V9.8H1.3c-0.2,0-0.4-0.2-0.4-0.4V1.7c0-0.2,0.2-0.4,0.4-0.4
		h9.4c0.2,0,0.4,0.2,0.4,0.4v3H12v-3C12,1,11.4,0.4,10.7,0.4L10.7,0.4z M10.7,0.4"/>
	<path d="M7.5,6.4l0.7-0.3l0.5,0.8h0.7l0.5-0.8l0.7,0.3c-0.1,0.3-0.1,0.6-0.2,0.9c0.1,0.1,0.3,0.3,0.4,0.5l0.9-0.2l0.3,0.7l-0.7,0.5
		v0.7c0.2,0.2,0.5,0.3,0.8,0.5c-0.1,0.2-0.2,0.5-0.3,0.7l-0.9-0.2c-0.1,0.2-0.3,0.3-0.5,0.5c0,0.3,0.1,0.6,0.1,0.9l-0.7,0.3
		l-0.5-0.8H8.6c-0.2,0.2-0.3,0.5-0.5,0.7c-0.2-0.1-0.5-0.2-0.7-0.3c0.1-0.3,0.1-0.6,0.2-0.9c-0.2-0.1-0.3-0.3-0.5-0.5l-0.9,0.2
		C6.2,10.2,6.1,10,6.1,9.8c0.2-0.2,0.5-0.4,0.7-0.5V8.7L6.1,8.2l0.3-0.7c0.3,0.1,0.6,0.1,0.9,0.2c0.1-0.2,0.3-0.3,0.5-0.5
		C7.6,6.9,7.5,6.6,7.5,6.4 M8.9,7.9C8.3,8,7.9,8.6,8,9.3c0.1,0.6,0.7,1.1,1.3,1c0.6-0.1,1.1-0.6,1.1-1.3c0-0.3-0.2-0.7-0.5-0.9
		C9.6,7.9,9.2,7.9,8.9,7.9L8.9,7.9z M8.9,7.9"/>
</g>
</svg>
