<?xml version="1.0" encoding="utf-8"?>
<!-- Generator: Adobe Illustrator 23.0.3, SVG Export Plug-In . SVG Version: 6.00 Build 0)  -->
<svg version="1.1" id="图层_1" xmlns="http://www.w3.org/2000/svg" xmlns:xlink="http://www.w3.org/1999/xlink" x="0px" y="0px"
	 width="20px" height="20px" viewBox="0 0 20 20" style="enable-background:new 0 0 20 20;" xml:space="preserve">
<style type="text/css">
	.st0{fill:#606266;}
	.st1{fill:#FAAF00;}
	.st2{fill:#299C2C;}
	.st3{fill:#BCD4F8;}
	.st4{fill:#A7C5EC;}
	.st5{fill:#F39700;}
	.st6{fill:#00699D;}
	.st7{fill:#FFFFFF;}
	.st8{fill-rule:evenodd;clip-rule:evenodd;fill:#606266;}
	.st9{fill:#ABABAB;}
	.st10{fill:#626262;}
	.st11{fill:#2C2C2C;}
	.st12{fill-rule:evenodd;clip-rule:evenodd;fill:#BCD4F8;}
	.st13{clip-path:url(#SVGID_2_);}
	.st14{clip-path:url(#SVGID_4_);}
	.st15{fill:#231815;}
	.st16{clip-path:url(#SVGID_6_);}
	.st17{fill:#6E6E6E;}
	.st18{fill:#333333;}
</style>
<path d="M19.2,6.1c-0.5-1.2-1.2-2.3-2.1-3.2c-0.9-0.9-2-1.6-3.2-2.1C12.7,0.3,11.4,0,10,0C4.5,0,0,4.5,0,10c0,5.5,4.5,10,10,10
	c1.3,0,2.7-0.3,3.9-0.8c1.2-0.5,2.3-1.2,3.2-2.1c0.9-0.9,1.6-2,2.1-3.2c0.5-1.2,0.8-2.5,0.8-3.9C20,8.7,19.8,7.3,19.2,6.1L19.2,6.1z
	 M14.5,10.7c0.2,0.3,0.4,0.6,0.7,0.8c-0.6,2.1-2.4,3.6-4.5,3.8v-1.7c0.7-0.1,1.4-0.5,1.9-1c0.5-0.5,0.9-1.2,1-1.9H14.5z M14.5,9.3
	h-0.8c-0.1-0.7-0.5-1.4-1-1.9c-0.5-0.5-1.2-0.9-1.9-1V4.7c2.1,0.3,3.8,1.8,4.4,3.8C14.9,8.6,14.6,8.9,14.5,9.3L14.5,9.3z M10.7,18.5
	v-1.7c1.4-0.1,2.7-0.7,3.8-1.6c0.5-0.5,1-1,1.4-1.6c0.4-0.6,0.6-1.2,0.8-1.9c0.5-0.2,0.8-0.5,1-0.9h0.9
	C18.2,14.9,14.9,18.2,10.7,18.5L10.7,18.5z M15.8,6.5c-0.4-0.6-0.8-1.1-1.4-1.6c-1.1-0.9-2.3-1.5-3.7-1.6V1.5
	c4.1,0.4,7.4,3.7,7.8,7.8h-0.9c-0.2-0.5-0.6-0.8-1.1-1C16.5,7.7,16.2,7,15.8,6.5L15.8,6.5z M7.3,5.3c0.6-0.4,1.3-0.6,2-0.7v1.7
	c-0.7,0.1-1.4,0.5-1.9,1c-0.5,0.5-0.9,1.2-1,1.9H4.7C4.8,8.7,5,8.1,5.2,7.5c0.1,0,0.2,0,0.4,0c1,0,1.8-0.8,1.8-1.8
	C7.4,5.6,7.3,5.5,7.3,5.3L7.3,5.3z M5.6,4c-1,0-1.8,0.8-1.8,1.8c0,0.3,0.1,0.6,0.2,0.9C3.6,7.5,3.4,8.4,3.3,9.3H1.5
	c0.3-4.2,3.6-7.5,7.8-7.8v1.7c-1,0.1-2,0.5-2.9,1C6.2,4.1,5.9,4,5.6,4L5.6,4z M6.4,10.7c0.1,0.7,0.5,1.4,1,1.9
	c0.5,0.5,1.2,0.9,1.9,1v1.7C6.9,15,5,13.1,4.7,10.7H6.4z M9.3,16.8v1.7c-4.2-0.3-7.5-3.6-7.8-7.8h1.7c0.2,1.5,0.9,3,2,4.1
	C6.3,15.9,7.8,16.6,9.3,16.8L9.3,16.8z M9.3,16.8"/>
</svg>
