<?xml version="1.0" encoding="utf-8"?>
<!-- Generator: Adobe Illustrator 22.0.2, SVG Export Plug-In . SVG Version: 6.00 Build 0)  -->
<svg version="1.1" id="图层_1" xmlns="http://www.w3.org/2000/svg" xmlns:xlink="http://www.w3.org/1999/xlink" x="0px" y="0px"
	 viewBox="0 0 14 14" style="enable-background:new 0 0 14 14;" xml:space="preserve">
<style type="text/css">
	.st0{fill:#606266;}
	.st1{fill:#A7C5EC;}
	.st2{fill:#FAAF00;}
	.st3{fill:#299C2C;}
	.st4{fill:#979A9F;}
	.st5{fill:#606165;}
	.st6{fill:#00699D;}
	.st7{fill-rule:evenodd;clip-rule:evenodd;fill:#606266;}
	.st8{fill:#626262;}
	.st9{fill:#FFFFFF;}
</style>
<g>
	<path d="M7.5,0C11,0.2,13.8,3,14,6.5c0,0,0,0.3-0.2,0.2H7.2V0.2C7.2,0,7.5,0,7.5,0L7.5,0z M13.2,6.1
		C12.8,2.2,9.5,1,7.9,0.8v5.3H13.2z M13.2,6.1 M7.2,6.8V0.2C7.2,0,7.5,0,7.5,0"/>
	<path d="M1.7,2.4C2.9,1,4.7,0.1,6.5,0c0.3,0,0.2,0.1,0.2,0.2v7h7C14,7.3,14,7.5,14,7.5c-0.1,1.5-0.7,3-1.7,4.1
		c-0.1,0.1-0.2,0.2-0.3,0.3l-0.4,0.3c-0.1,0.1-0.2,0.2-0.4,0.3c-1.4,1.1-3.1,1.6-4.8,1.4C3.1,13.7,0.3,11,0,7.6
		C-0.1,5.7,0.5,3.9,1.7,2.4L1.7,2.4z"/>
</g>
</svg>
