<?xml version="1.0" encoding="utf-8"?>
<!-- Generator: Adobe Illustrator 22.0.2, SVG Export Plug-In . SVG Version: 6.00 Build 0)  -->
<svg version="1.1" id="图层_1" xmlns="http://www.w3.org/2000/svg" xmlns:xlink="http://www.w3.org/1999/xlink" x="0px" y="0px"
	 viewBox="0 0 14 14" style="enable-background:new 0 0 14 14;" xml:space="preserve">
<style type="text/css">
	.st0{fill:#606266;}
	.st1{fill:#A7C5EC;}
	.st2{fill:#FAAF00;}
	.st3{fill:#299C2C;}
	.st4{fill:#979A9F;}
	.st5{fill:#606165;}
	.st6{fill:#00699D;}
	.st7{fill-rule:evenodd;clip-rule:evenodd;fill:#606266;}
	.st8{fill:#626262;}
	.st9{fill:#FFFFFF;}
</style>
<g>
	<path d="M8.3,3.4H5.8c-0.8,0-1.4-0.6-1.4-1.4c0-0.8,0.6-1.4,1.4-1.4h2.5c0.8,0,1.4,0.6,1.4,1.4
		C9.8,2.7,9.1,3.4,8.3,3.4L8.3,3.4z M8.3,8.4H5.8C5.1,8.4,4.4,7.8,4.4,7S5,5.5,5.8,5.5h2.5c0.8,0,1.4,0.6,1.4,1.4S9.1,8.4,8.3,8.4
		L8.3,8.4z M8.3,13.5H5.8c-0.8,0-1.4-0.6-1.4-1.4c0-0.8,0.6-1.4,1.4-1.4h2.5c0.8,0,1.4,0.6,1.4,1.4C9.8,12.8,9.1,13.5,8.3,13.5
		L8.3,13.5z M3,12.4c-0.1,0-1.3,0-2.1-0.8c-0.5-0.5-0.8-1.2-0.8-2.1c0-1.5,0.8-2.3,1.5-2.6C2.3,6.5,3,6.5,3,6.5h0.9v0.9H3
		c0,0-0.6,0-1.1,0.3C1.7,7.8,1.4,8,1.3,8.3C1.1,8.6,1,9,1,9.5c0,0.6,0.2,1.1,0.5,1.5C2.1,11.5,3,11.5,3,11.5h0.4v0.9L3,12.4
		C3,12.4,3,12.4,3,12.4L3,12.4z M11.2,7.4h-0.4V6.5h0.4c0,0,0.6,0,1.1-0.3c0.3-0.2,0.5-0.4,0.7-0.6c0.2-0.3,0.3-0.7,0.3-1.2
		c0-0.6-0.2-1.1-0.5-1.5c-0.6-0.6-1.5-0.6-1.5-0.6h-0.9V1.5h0.9c0.1,0,1.3,0,2.1,0.8c0.5,0.5,0.8,1.2,0.8,2.1c0,1.5-0.8,2.3-1.5,2.6
		C11.9,7.4,11.2,7.4,11.2,7.4L11.2,7.4z M11.2,7.4"/>
	<path d="M3.1,10.9v2l1-1L3.1,10.9z M11.1,6l-1,1l1,1V6z M11.1,6"/>
</g>
</svg>
