<?xml version="1.0" encoding="utf-8"?>
<!-- Generator: Adobe Illustrator 23.0.3, SVG Export Plug-In . SVG Version: 6.00 Build 0)  -->
<svg version="1.1" id="图层_1" xmlns="http://www.w3.org/2000/svg" xmlns:xlink="http://www.w3.org/1999/xlink" x="0px" y="0px"
	 width="20px" height="20px" viewBox="0 0 20 20" style="enable-background:new 0 0 20 20;" xml:space="preserve">
<style type="text/css">
	.st0{fill:#606266;}
	.st1{fill:#FAAF00;}
	.st2{fill:#299C2C;}
	.st3{fill:#BCD4F8;}
	.st4{fill:#A7C5EC;}
	.st5{fill:#F39700;}
	.st6{fill:#00699D;}
	.st7{fill:#FFFFFF;}
	.st8{fill-rule:evenodd;clip-rule:evenodd;fill:#606266;}
	.st9{fill:#ABABAB;}
	.st10{fill:#626262;}
	.st11{fill:#2C2C2C;}
	.st12{fill-rule:evenodd;clip-rule:evenodd;fill:#BCD4F8;}
	.st13{clip-path:url(#SVGID_2_);}
	.st14{clip-path:url(#SVGID_4_);}
	.st15{fill:#231815;}
	.st16{clip-path:url(#SVGID_6_);}
	.st17{fill:#6E6E6E;}
	.st18{fill:#333333;}
</style>
<g>
	<g>
		<path d="M19.9,13.3c0,0.2-0.1,0.5-0.2,0.7c-0.1,0.3-0.2,0.5-0.4,0.7c-0.1,0.2-0.3,0.3-0.5,0.4c-0.2,0.1-0.3,0.1-0.5,0.1
			c-0.1,0-0.3,0-0.4-0.1c-0.2,0-0.4-0.1-0.5-0.1c-0.2,0-0.4,0-0.7,0c-0.2,0-0.4,0.1-0.7,0.1c-0.2,0.1-0.4,0.2-0.6,0.4
			C15.2,16,15,16.4,15,16.8c-0.1,0.4,0,0.9,0.2,1.3c0.1,0.3,0.1,0.6-0.1,0.9c-0.1,0.1-0.2,0.2-0.4,0.4c-0.2,0.1-0.4,0.2-0.6,0.3
			c-0.2,0.1-0.5,0.2-0.7,0.2C13.2,20,13,20,12.7,20c-0.1,0-0.3-0.1-0.4-0.2c-0.1-0.1-0.2-0.2-0.2-0.3c-0.2-0.4-0.5-0.8-0.8-1.1
			c-0.4-0.3-0.8-0.5-1.3-0.5c-0.5,0-0.9,0.2-1.3,0.5c-0.4,0.3-0.7,0.7-0.8,1.1c-0.1,0.2-0.2,0.3-0.3,0.4C7.4,20,7.2,20,7.1,20
			c-0.2,0-0.4,0-0.7-0.1c-0.3-0.1-0.5-0.2-0.8-0.3c-0.2-0.1-0.5-0.2-0.7-0.4c-0.2-0.1-0.3-0.3-0.5-0.4c-0.1-0.1-0.1-0.2-0.1-0.4
			c0-0.1,0-0.3,0.2-0.6c0.2-0.3,0.2-0.7,0.2-1.1c0-0.4-0.2-0.8-0.5-1.2c-0.2-0.2-0.4-0.4-0.7-0.4c-0.3-0.1-0.5-0.1-0.8-0.1
			c-0.3,0-0.6,0.1-0.9,0.2c-0.2,0.1-0.4,0-0.6,0C1,15.2,0.8,15,0.7,14.8c-0.1-0.2-0.3-0.4-0.4-0.7c-0.1-0.2-0.2-0.5-0.2-0.8
			C0,13.1,0,12.9,0,12.7c0-0.3,0.2-0.5,0.4-0.6c0.4-0.2,0.8-0.5,1.2-0.8c0.3-0.4,0.5-0.8,0.5-1.3c0-0.5-0.2-1-0.5-1.3
			C1.3,8.3,0.9,8,0.4,7.8c-0.1,0-0.2-0.1-0.3-0.3C0,7.4,0,7.2,0,7c0-0.2,0-0.4,0.1-0.6c0.1-0.2,0.1-0.5,0.2-0.7
			c0.1-0.2,0.2-0.4,0.3-0.6C0.8,4.9,0.9,4.8,1,4.7c0.1-0.1,0.2-0.1,0.3-0.1c0.1,0,0.2,0,0.4,0.1C2.1,4.9,2.6,5,3.1,4.9
			C3.5,4.8,4,4.6,4.3,4.3c0.2-0.2,0.3-0.4,0.4-0.6c0.1-0.3,0.1-0.5,0.1-0.7c0-0.2,0-0.4,0-0.7c0-0.1,0-0.3-0.1-0.4
			c0-0.1-0.1-0.2-0.1-0.3c0-0.1,0-0.2,0-0.3C4.8,1,5,0.8,5.2,0.7c0.2-0.1,0.5-0.3,0.7-0.4c0.3-0.1,0.5-0.2,0.8-0.2
			C6.9,0,7.1,0,7.2,0c0.2,0,0.3,0.1,0.4,0.2c0.1,0.1,0.2,0.2,0.2,0.4c0.2,0.4,0.4,0.7,0.8,1C9,1.9,9.4,2,9.9,2
			c0.5,0,0.9-0.1,1.3-0.4c0.4-0.3,0.7-0.6,0.8-1.1c0.1-0.1,0.1-0.2,0.3-0.4C12.5,0.1,12.6,0,12.7,0c0.2,0,0.4,0,0.7,0.1
			c0.2,0.1,0.5,0.1,0.7,0.2c0.2,0.1,0.4,0.2,0.6,0.4c0.2,0.2,0.3,0.3,0.5,0.5c0.1,0.1,0.1,0.2,0.1,0.4c0,0.1-0.1,0.2-0.1,0.3
			C15,2.3,14.9,2.8,15,3.2c0.1,0.5,0.3,0.9,0.6,1.2c0.3,0.3,0.8,0.5,1.3,0.6c0.5,0,1,0,1.4-0.2c0.1-0.1,0.3-0.1,0.4-0.1
			c0.2,0,0.3,0.1,0.4,0.2c0.2,0.2,0.4,0.5,0.6,0.9C19.8,6.2,19.9,6.6,20,7c0,0.2,0,0.4-0.1,0.6c-0.1,0.1-0.2,0.2-0.3,0.3
			c-0.4,0.2-0.8,0.4-1.1,0.8C18.1,9,17.9,9.5,17.9,10c0,0.5,0.1,0.9,0.4,1.3c0.3,0.4,0.6,0.6,1,0.8c0.1,0.1,0.2,0.1,0.3,0.2
			c0.2,0.1,0.3,0.3,0.3,0.5C20,12.9,20,13.1,19.9,13.3L19.9,13.3z M11.3,13.2c0.4-0.2,0.8-0.4,1.1-0.7c0.3-0.3,0.6-0.7,0.7-1.1
			c0.2-0.4,0.3-0.9,0.3-1.3c0-0.5-0.1-0.9-0.3-1.3c-0.2-0.4-0.4-0.8-0.7-1.1c-0.3-0.3-0.7-0.6-1.1-0.7c-0.4-0.2-0.9-0.3-1.3-0.3
			c-0.5,0-0.9,0.1-1.3,0.3c-0.8,0.4-1.5,1-1.8,1.8C6.6,9.1,6.5,9.5,6.6,10c0,0.5,0.1,0.9,0.3,1.3c0.2,0.4,0.4,0.8,0.7,1.1
			c0.3,0.3,0.7,0.6,1.1,0.7c0.4,0.2,0.9,0.3,1.3,0.3C10.5,13.4,10.9,13.3,11.3,13.2L11.3,13.2z M11.3,13.2"/>
	</g>
</g>
</svg>
