<?xml version="1.0" encoding="utf-8"?>
<!-- Generator: Adobe Illustrator 23.0.3, SVG Export Plug-In . SVG Version: 6.00 Build 0)  -->
<svg version="1.1" id="图层_1" xmlns="http://www.w3.org/2000/svg" xmlns:xlink="http://www.w3.org/1999/xlink" x="0px" y="0px"
	 viewBox="0 0 12 12" style="enable-background:new 0 0 12 12;" xml:space="preserve">
<style type="text/css">
	.st0{fill:#606266;}
	.st1{fill:#FAAF00;}
	.st2{fill:#299C2C;}
	.st3{fill:#BCD4F8;}
	.st4{fill:#A7C5EC;}
	.st5{fill:#F39700;}
	.st6{fill:#00699D;}
	.st7{fill:#FFFFFF;}
	.st8{fill-rule:evenodd;clip-rule:evenodd;fill:#606266;}
	.st9{fill:#ABABAB;}
	.st10{fill:#626262;}
	.st11{fill:#2C2C2C;}
	.st12{fill-rule:evenodd;clip-rule:evenodd;fill:#BCD4F8;}
	.st13{clip-path:url(#SVGID_2_);}
	.st14{clip-path:url(#SVGID_4_);}
	.st15{fill:#231815;}
	.st16{font-family:'AdobeSongStd-Light-GBpc-EUC-H';}
	.st17{font-size:6px;}
	.st18{clip-path:url(#SVGID_6_);}
	.st19{fill:#333333;}
</style>
<text transform="matrix(1 0 0 1 -3.7645 -7.4055)" class="st7 st16 st17">系统设置</text>
<g>
	<g>
		<path d="M12,8.4c0,0.1-0.1,0.3-0.1,0.4c-0.1,0.2-0.1,0.3-0.2,0.4c-0.1,0.1-0.2,0.2-0.3,0.3c-0.1,0.1-0.2,0.1-0.3,0.1
			c-0.1,0-0.2,0-0.3-0.1c-0.1,0-0.2-0.1-0.3-0.1c-0.1,0-0.3,0-0.4,0c-0.1,0-0.3,0-0.4,0.1c-0.1,0-0.2,0.1-0.3,0.2
			C9.1,10,9,10.2,9,10.5c0,0.3,0,0.5,0.1,0.8c0.1,0.2,0.1,0.3,0,0.5C9,11.9,8.9,11.9,8.8,12c-0.1,0.1-0.2,0.1-0.4,0.2
			c-0.1,0.1-0.3,0.1-0.4,0.1c-0.1,0-0.3,0-0.4,0.1c-0.1,0-0.2,0-0.2-0.1c-0.1-0.1-0.1-0.1-0.1-0.2c-0.1-0.3-0.3-0.5-0.5-0.7
			c-0.2-0.2-0.5-0.3-0.8-0.3c-0.3,0-0.6,0.1-0.8,0.3c-0.2,0.2-0.4,0.4-0.5,0.7c0,0.1-0.1,0.2-0.2,0.2c-0.1,0-0.2,0.1-0.3,0.1
			c-0.1,0-0.3,0-0.4-0.1c-0.2,0-0.3-0.1-0.5-0.2C3.2,12.1,3.1,12,3,12c-0.1-0.1-0.2-0.2-0.3-0.3c0-0.1-0.1-0.1-0.1-0.2
			c0-0.1,0-0.2,0.1-0.3c0.1-0.2,0.1-0.4,0.1-0.7c0-0.3-0.1-0.5-0.3-0.7C2.4,9.6,2.2,9.6,2.1,9.5c-0.2,0-0.3-0.1-0.5,0
			c-0.2,0-0.4,0-0.6,0.1c-0.1,0-0.2,0-0.4,0c-0.1,0-0.2-0.1-0.3-0.2C0.3,9.2,0.2,9,0.2,8.9C0.1,8.7,0.1,8.6,0,8.4C0,8.3,0,8.1,0,8
			c0-0.2,0.1-0.3,0.3-0.4C0.5,7.6,0.8,7.4,1,7.2c0.2-0.2,0.3-0.5,0.3-0.8c0-0.3-0.1-0.6-0.3-0.8C0.8,5.4,0.5,5.2,0.3,5.1
			C0.2,5.1,0.1,5,0.1,4.9C0,4.8,0,4.7,0,4.6c0-0.1,0-0.2,0.1-0.4c0-0.1,0.1-0.3,0.1-0.4c0.1-0.1,0.1-0.2,0.2-0.4
			c0.1-0.1,0.2-0.2,0.2-0.2c0.1,0,0.1-0.1,0.2-0.1c0.1,0,0.1,0,0.2,0.1c0.3,0.1,0.5,0.1,0.8,0.1c0.3,0,0.5-0.2,0.7-0.4
			c0.1-0.1,0.2-0.2,0.2-0.4c0-0.2,0.1-0.3,0.1-0.4c0-0.1,0-0.3,0-0.4c0-0.1,0-0.2,0-0.3c0-0.1,0-0.1,0-0.2c0-0.1,0-0.1,0-0.2
			C2.9,1,3,0.9,3.1,0.8c0.1-0.1,0.3-0.2,0.4-0.2C3.7,0.5,3.8,0.5,4,0.5c0.1,0,0.3,0,0.3,0c0.1,0,0.2,0,0.3,0.1
			c0.1,0.1,0.1,0.1,0.1,0.2C4.8,1,5,1.2,5.2,1.4C5.4,1.5,5.7,1.6,6,1.6c0.3,0,0.6-0.1,0.8-0.3C7,1.2,7.2,1,7.2,0.7
			c0-0.1,0.1-0.1,0.2-0.2c0.1-0.1,0.1-0.1,0.2-0.1c0.1,0,0.3,0,0.4,0.1c0.1,0,0.3,0.1,0.4,0.1c0.1,0.1,0.3,0.1,0.4,0.2
			C8.9,0.9,9,1,9.1,1.1c0,0.1,0.1,0.1,0,0.2c0,0.1,0,0.1-0.1,0.2C9,1.8,8.9,2.1,9,2.3c0,0.3,0.2,0.5,0.4,0.7
			c0.2,0.2,0.5,0.3,0.8,0.3c0.3,0,0.6,0,0.8-0.1c0.1,0,0.2-0.1,0.3-0.1c0.1,0,0.2,0,0.3,0.1c0.1,0.1,0.2,0.3,0.3,0.5
			C11.9,4.1,12,4.4,12,4.6c0,0.1,0,0.3-0.1,0.3c-0.1,0.1-0.1,0.1-0.2,0.2c-0.3,0.1-0.5,0.3-0.7,0.5c-0.2,0.2-0.3,0.5-0.3,0.8
			c0,0.3,0.1,0.5,0.2,0.8c0.2,0.2,0.4,0.4,0.6,0.5c0.1,0,0.1,0.1,0.2,0.1C11.9,7.8,11.9,7.9,12,8C12,8.1,12,8.3,12,8.4L12,8.4z
			 M6.8,8.3c0.2-0.1,0.5-0.3,0.7-0.4c0.2-0.2,0.3-0.4,0.4-0.7C8,6.9,8.1,6.7,8.1,6.4c0-0.3-0.1-0.6-0.2-0.8C7.8,5.3,7.7,5.1,7.5,4.9
			C7.3,4.7,7.1,4.6,6.8,4.5C6.5,4.4,6.3,4.3,6,4.3c-0.3,0-0.6,0.1-0.8,0.2C4.7,4.7,4.3,5.1,4.1,5.6C4,5.8,3.9,6.1,3.9,6.4
			c0,0.3,0.1,0.6,0.2,0.8c0.1,0.3,0.3,0.5,0.4,0.7c0.2,0.2,0.4,0.3,0.7,0.4C5.4,8.4,5.7,8.5,6,8.5C6.3,8.5,6.5,8.4,6.8,8.3L6.8,8.3z
			 M6.8,8.3"/>
	</g>
</g>
</svg>
