<?xml version="1.0" encoding="utf-8"?>
<!-- Generator: Adobe Illustrator 23.0.3, SVG Export Plug-In . SVG Version: 6.00 Build 0)  -->
<svg version="1.1" id="图层_1" xmlns="http://www.w3.org/2000/svg" xmlns:xlink="http://www.w3.org/1999/xlink" x="0px" y="0px"
	 viewBox="0 0 12 12" style="enable-background:new 0 0 12 12;" xml:space="preserve">
<style type="text/css">
	.st0{fill:#606266;}
	.st1{fill:#FAAF00;}
	.st2{fill:#299C2C;}
	.st3{fill:#BCD4F8;}
	.st4{fill:#A7C5EC;}
	.st5{fill:#F39700;}
	.st6{fill:#00699D;}
	.st7{fill:#FFFFFF;}
	.st8{fill-rule:evenodd;clip-rule:evenodd;fill:#606266;}
	.st9{fill:#ABABAB;}
	.st10{fill:#626262;}
	.st11{fill:#2C2C2C;}
	.st12{fill-rule:evenodd;clip-rule:evenodd;fill:#BCD4F8;}
	.st13{clip-path:url(#SVGID_2_);}
	.st14{clip-path:url(#SVGID_4_);}
	.st15{fill:#231815;}
	.st16{font-family:'AdobeSongStd-Light-GBpc-EUC-H';}
	.st17{font-size:6px;}
	.st18{clip-path:url(#SVGID_6_);}
	.st19{fill:#333333;}
</style>
<text transform="matrix(1 0 0 1 -4.5083 -8.4638)" class="st7 st16 st17">客户管理</text>
<g>
	<path d="M11.6,8.9H7.2C7,8.9,6.8,8.7,6.8,8.5c0-0.2,0.2-0.4,0.4-0.4h4.4c0.2,0,0.4,0.2,0.4,0.4C12,8.7,11.8,8.9,11.6,8.9L11.6,8.9z
		 M11.6,8.9"/>
	<path d="M11.6,12H7.2c-0.1,0-0.3-0.1-0.4-0.2c-0.1-0.1-0.1-0.3,0-0.4c0.1-0.1,0.2-0.2,0.4-0.2h4.4c0.2,0,0.4,0.2,0.4,0.4
		C12,11.8,11.8,12,11.6,12L11.6,12z M11.6,12"/>
	<path d="M10.2,10.5h-3c-0.2,0-0.4-0.2-0.4-0.4S7,9.7,7.2,9.7h3c0.2,0,0.4,0.2,0.4,0.4C10.6,10.3,10.4,10.5,10.2,10.5L10.2,10.5z
		 M10.2,10.5"/>
	<path d="M5.1,5.9c-1.2,0-2.3-0.7-2.7-1.8C1.9,3,2.2,1.7,3,0.9C3.9,0,5.2-0.2,6.3,0.2C7.4,0.7,8.1,1.8,8.1,3
		C8.1,4.6,6.8,5.9,5.1,5.9L5.1,5.9z"/>
	<path d="M0.4,11.1c-0.2,0-0.4-0.2-0.4-0.4c0-2,1.2-3.8,3-4.7c1.8-0.8,4-0.5,5.5,0.8c0.2,0.1,0.2,0.4,0,0.6C8.4,7.5,8.2,7.5,8,7.4
		C6.7,6.3,4.9,6,3.4,6.7C1.8,7.4,0.8,9,0.8,10.7C0.8,10.9,0.6,11.1,0.4,11.1L0.4,11.1z M0.4,11.1"/>
</g>
</svg>
