<?xml version="1.0" encoding="utf-8"?>
<!-- Generator: Adobe Illustrator 23.0.3, SVG Export Plug-In . SVG Version: 6.00 Build 0)  -->
<svg version="1.1" id="图层_1" xmlns="http://www.w3.org/2000/svg" xmlns:xlink="http://www.w3.org/1999/xlink" x="0px" y="0px"
	 viewBox="0 0 12 12" style="enable-background:new 0 0 12 12;" xml:space="preserve">
<style type="text/css">
	.st0{fill:#606266;}
	.st1{fill:#FAAF00;}
	.st2{fill:#299C2C;}
	.st3{fill:#BCD4F8;}
	.st4{fill:#A7C5EC;}
	.st5{fill:#F39700;}
	.st6{fill:#00699D;}
	.st7{fill:#FFFFFF;}
	.st8{fill-rule:evenodd;clip-rule:evenodd;fill:#606266;}
	.st9{fill:#ABABAB;}
	.st10{fill:#626262;}
	.st11{fill:#2C2C2C;}
	.st12{fill-rule:evenodd;clip-rule:evenodd;fill:#BCD4F8;}
	.st13{clip-path:url(#SVGID_2_);}
	.st14{clip-path:url(#SVGID_4_);}
	.st15{fill:#231815;}
	.st16{font-family:'AdobeSongStd-Light-GBpc-EUC-H';}
	.st17{font-size:6px;}
	.st18{clip-path:url(#SVGID_6_);}
	.st19{fill:#333333;}
</style>
<text transform="matrix(1 0 0 1 -8.862 -8.4642)" class="st7 st16 st17">票据管理</text>
<path d="M11,0.7H1.1c-0.6,0-1,0.5-1,1.1v2.6c0.8,0,1.5,0.7,1.5,1.6c0,0.9-0.7,1.6-1.5,1.6h0v2.6c0,0.6,0.5,1,1.1,1.1H11
	c0.6,0,1-0.5,1.1-1.1V7.5c-0.8,0-1.5-0.7-1.5-1.6c0-0.8,0.7-1.5,1.5-1.6v0h0V1.7C12,1.1,11.5,0.7,11,0.7z M6.2,5.7v0.7H4.6v1h1.6
	v0.7H4.6v1.4H3.7V8.1H2V7.4h1.7v-1H2V5.7h1.4L1.7,2.9h1L3.9,5C4,5.2,4,5.3,4.1,5.6h0C4.2,5.4,4.3,5.2,4.4,5l1.2-2.1h0.9L4.8,5.7H6.2
	z M8.2,10.9H7.7v-0.5h0.5V10.9z M8.2,10H7.7V9.5h0.5V10z M8.2,9H7.7V8.5h0.5V9z M8.2,8H7.7V7.5h0.5V8z M8.2,7H7.7V6.5h0.5V7z M8.2,6
	H7.7V5.5h0.5V6z M8.2,5.1H7.7V4.6h0.5V5.1z M8.2,4.1H7.7V3.6h0.5V4.1z M8.2,3.1H7.7V2.6h0.5V3.1z M8.2,2.1H7.7V1.6h0.5V2.1z
	 M8.2,1.1H7.7V0.7h0.5V1.1z"/>
</svg>
