<?xml version="1.0" encoding="utf-8"?>
<!-- Generator: Adobe Illustrator 22.0.2, SVG Export Plug-In . SVG Version: 6.00 Build 0)  -->
<svg version="1.1" id="图层_1" xmlns="http://www.w3.org/2000/svg" xmlns:xlink="http://www.w3.org/1999/xlink" x="0px" y="0px"
	 viewBox="0 0 14 14" style="enable-background:new 0 0 14 14;" xml:space="preserve">
<style type="text/css">
	.st0{fill:#606266;}
	.st1{fill:#A7C5EC;}
	.st2{fill:#FAAF00;}
	.st3{fill:#299C2C;}
	.st4{fill:#979A9F;}
	.st5{fill:#FFFFFF;}
	.st6{fill:#606165;}
	.st7{fill:#00699D;}
	.st8{fill-rule:evenodd;clip-rule:evenodd;fill:#606266;}
	.st9{fill:#626262;}
</style>
<path d="M6.3,4.5C6.1,4.8,5.7,5.3,5.4,5.7L6,5.6c0.4,0,0.6,0.1,0.7,0.4c0,0.3-0.2,0.5-0.5,0.6L5,6.8
	C4.8,6.9,4.3,7,4.3,7C3.8,7.1,3.6,6.9,3.5,6.5C3.4,6.3,3.1,4.9,3.1,4.9c0-0.1,0-0.3,0.1-0.4c0.1-0.1,0.2-0.2,0.4-0.3l0,0
	c0.3-0.1,0.6,0.1,0.7,0.4c0,0,0.1,0.6,0.1,0.6c0.3-0.4,1-1.3,1.4-1.7C5.8,3.4,6,3.3,6.1,3.3c0.1,0,0.3,0,0.5,0.1c0,0,5.3,2.8,7.5,4
	c0-0.1,0-0.3,0-0.4c0-2.8-1.7-5.4-4.3-6.5C7.1-0.6,4.1,0.1,2.1,2.1C1,3.2,0.3,4.7,0.1,6.3l7.3,4l1.1-1.4L8,8.9C7.8,9,7.7,9,7.5,9
	C7.3,9,7.1,8.8,7.1,8.6c0-0.2,0.1-0.4,0.3-0.5C7.5,8,7.9,7.9,7.9,7.9c0,0,1.8-0.3,1.8-0.3c0.2,0,0.3-0.1,0.4,0
	c0.2,0.1,0.3,0.3,0.3,0.4c0,0,0.2,1.8,0.2,2c0,0.1,0,0.2,0,0.3c-0.1,0.2-0.2,0.3-0.4,0.3c-0.1,0-0.1,0-0.2,0c-0.3,0-0.5-0.2-0.5-0.4
	c0-0.1,0-0.4-0.1-0.7l-1.3,1.7c-0.1,0.1-0.2,0.2-0.4,0.3l0,0c-0.2,0-0.3,0-0.5-0.1L0.1,7.5C0.2,8.2,0.3,9,0.6,9.7
	C1.7,12.3,4.3,14,7.1,14c3.3,0,6.1-2.3,6.8-5.5L6.3,4.5z"/>
</svg>
