<?xml version="1.0" encoding="utf-8"?>
<!-- Generator: Adobe Illustrator 23.0.3, SVG Export Plug-In . SVG Version: 6.00 Build 0)  -->
<svg version="1.1" id="图层_1" xmlns="http://www.w3.org/2000/svg" xmlns:xlink="http://www.w3.org/1999/xlink" x="0px" y="0px"
	 viewBox="0 0 12 12" style="enable-background:new 0 0 12 12;" xml:space="preserve">
<style type="text/css">
	.st0{fill:#606266;}
	.st1{fill:#FAAF00;}
	.st2{fill:#299C2C;}
	.st3{fill:#BCD4F8;}
	.st4{fill:#A7C5EC;}
	.st5{fill:#F39700;}
	.st6{fill:#00699D;}
	.st7{fill:#FFFFFF;}
	.st8{fill-rule:evenodd;clip-rule:evenodd;fill:#606266;}
	.st9{fill:#ABABAB;}
	.st10{fill:#626262;}
	.st11{fill:#2C2C2C;}
	.st12{fill-rule:evenodd;clip-rule:evenodd;fill:#BCD4F8;}
	.st13{clip-path:url(#SVGID_2_);}
	.st14{clip-path:url(#SVGID_4_);}
	.st15{fill:#231815;}
	.st16{font-family:'AdobeSongStd-Light-GBpc-EUC-H';}
	.st17{font-size:6px;}
	.st18{clip-path:url(#SVGID_6_);}
	.st19{fill:#333333;}
</style>
<text transform="matrix(1 0 0 1 -8.3991 -7.4055)" class="st7 st16 st17">机构管理</text>
<g>
	<g>
		<path d="M7,5.7c-0.2,0-0.4,0.2-0.4,0.4v5.5C6.6,11.8,6.8,12,7,12h0.7c0.2,0,0.4-0.2,0.4-0.4V9.5c0-0.2,0.2-0.4,0.4-0.4h1.6
			c0.2,0,0.4,0.2,0.4,0.4v2.1c0,0.2,0.2,0.4,0.4,0.4h0.7c0.2,0,0.4-0.2,0.4-0.4V6.1c0-0.2-0.2-0.4-0.4-0.4H7z M7,5.7"/>
		<path d="M3.4,4.7c0-0.3,0.1-0.3,0.3-0.3h0.9c0.3,0,0.3,0,0.3,0.3l0,0.8c0,0.3,0,0.4-0.3,0.4H3.8c-0.3,0-0.4,0-0.4-0.3L3.4,4.7z
			 M0,11.6C0,11.8,0.2,12,0.4,12h5.2c0.1,0,0.2,0,0.3-0.1C6,11.8,6,11.7,6,11.6V0.4c0-0.1,0-0.2-0.1-0.3C5.8,0,5.7,0,5.6,0H0.4
			C0.2,0,0,0.2,0,0.4V11.6z M1,1.9c0-0.3,0.1-0.3,0.3-0.3l0.9,0c0.3,0,0.3,0,0.3,0.3l0,0.8c0,0.3,0,0.4-0.3,0.4H1.5
			c-0.3,0-0.4,0-0.4-0.3L1,1.9z M3.4,1.9c0-0.3,0.1-0.3,0.3-0.3l0.9,0c0.3,0,0.3,0,0.3,0.3l0,0.8c0,0.3,0,0.4-0.3,0.4H3.8
			c-0.3,0-0.4,0-0.4-0.3L3.4,1.9z M1,4.7c0-0.3,0.1-0.3,0.3-0.3h0.9c0.3,0,0.3,0,0.3,0.3l0,0.8c0,0.3,0,0.4-0.3,0.4H1.5
			c-0.3,0-0.4,0-0.4-0.3L1,4.7z M3.4,7.3C3.4,7,3.4,7,3.7,7l0.9,0c0.3,0,0.3,0,0.3,0.3l0,0.8c0,0.3,0,0.4-0.3,0.4H3.8
			c-0.3,0-0.4,0-0.4-0.3L3.4,7.3z M1,7.3C1,7,1.1,7,1.4,7l0.9,0c0.3,0,0.3,0,0.3,0.3l0,0.8c0,0.3,0,0.4-0.3,0.4H1.5
			c-0.3,0-0.4,0-0.4-0.3L1,7.3z M1.2,7.6"/>
	</g>
</g>
</svg>
