<?xml version="1.0" encoding="utf-8"?>
<!-- Generator: Adobe Illustrator 22.0.2, SVG Export Plug-In . SVG Version: 6.00 Build 0)  -->
<svg version="1.1" id="图层_1" xmlns="http://www.w3.org/2000/svg" xmlns:xlink="http://www.w3.org/1999/xlink" x="0px" y="0px"
	 viewBox="0 0 14 14" style="enable-background:new 0 0 14 14;" xml:space="preserve">
<style type="text/css">
	.st0{fill:#606266;}
	.st1{fill:#A7C5EC;}
	.st2{fill:#FAAF00;}
	.st3{fill:#299C2C;}
	.st4{fill:#979A9F;}
	.st5{fill:#606165;}
	.st6{fill:#00699D;}
	.st7{fill-rule:evenodd;clip-rule:evenodd;fill:#606266;}
	.st8{fill:#626262;}
	.st9{fill:#FFFFFF;}
</style>
<g>
	<path d="M11.3,6h-0.9V3.3C10.4,1.5,8.9,0,7.1,0C5.3,0,3.8,1.5,3.8,3.3V6H2.9C2.5,6,2.1,6.4,2.1,6.8v6.4
		c0,0.4,0.4,0.8,0.8,0.8h8.4c0.4,0,0.8-0.4,0.8-0.8V6.8C12.1,6.4,11.7,6,11.3,6L11.3,6z M4.7,3.3c0-1.3,1.1-2.4,2.4-2.4
		c1.3,0,2.4,1.1,2.4,2.4V6H4.7V3.3z M4.7,3.3"/>
</g>
</svg>
