<?xml version="1.0" encoding="utf-8"?>
<!-- Generator: Adobe Illustrator 23.0.3, SVG Export Plug-In . SVG Version: 6.00 Build 0)  -->
<svg version="1.1" id="图层_1" xmlns="http://www.w3.org/2000/svg" xmlns:xlink="http://www.w3.org/1999/xlink" x="0px" y="0px"
	 viewBox="0 0 12 12" style="enable-background:new 0 0 12 12;" xml:space="preserve">
<style type="text/css">
	.st0{fill:#606266;}
	.st1{fill:#FAAF00;}
	.st2{fill:#299C2C;}
	.st3{fill:#BCD4F8;}
	.st4{fill:#A7C5EC;}
	.st5{fill:#F39700;}
	.st6{fill:#00699D;}
	.st7{fill:#FFFFFF;}
	.st8{fill-rule:evenodd;clip-rule:evenodd;fill:#606266;}
	.st9{fill:#ABABAB;}
	.st10{fill:#626262;}
	.st11{fill:#2C2C2C;}
	.st12{fill-rule:evenodd;clip-rule:evenodd;fill:#BCD4F8;}
	.st13{clip-path:url(#SVGID_2_);}
	.st14{clip-path:url(#SVGID_4_);}
	.st15{fill:#231815;}
	.st16{font-family:'AdobeSongStd-Light-GBpc-EUC-H';}
	.st17{font-size:6px;}
	.st18{clip-path:url(#SVGID_6_);}
	.st19{fill:#333333;}
</style>
<text transform="matrix(1 0 0 1 -6.2436 -8.464)" class="st7 st16 st17">定价管理</text>
<path d="M11.9,9.6c0-0.1,0-0.1-0.1-0.2l-0.3-0.1c0-0.2-0.1-0.3-0.2-0.5l0.1-0.2c0-0.1,0-0.1,0-0.2l-0.3-0.3c0,0-0.1,0-0.1,0
	c0,0-0.1,0-0.1,0l-0.2,0.1c-0.2-0.1-0.3-0.2-0.5-0.2l-0.1-0.2c0-0.1-0.1-0.1-0.2-0.1l-0.4,0c-0.1,0-0.1,0.1-0.2,0.1L9.3,8.1
	C9.1,8.1,9,8.2,8.8,8.3L8.6,8.1c-0.1,0-0.1,0-0.2,0L8.1,8.5C8.1,8.5,8,8.6,8.1,8.7l0.1,0.2C8.1,9.1,8.1,9.2,8,9.4L7.8,9.5
	c-0.1,0-0.2,0.1-0.2,0.2l0,0.4c0,0.1,0.1,0.1,0.2,0.2L8,10.3c0,0.2,0.1,0.3,0.2,0.5L8.1,11c0,0.1,0,0.1,0,0.2l0.3,0.3
	c0,0,0.1,0,0.1,0c0,0,0.1,0,0.1,0l0.2-0.1c0.1,0.1,0.3,0.2,0.5,0.2l0.1,0.2c0,0.1,0.1,0.2,0.2,0.2H10c0.1,0,0.1-0.1,0.2-0.2l0.1-0.2
	c0.2,0,0.3-0.1,0.5-0.2l0.2,0.1c0,0,0,0,0.1,0c0,0,0.1,0,0.1-0.1l0.3-0.3c0.1-0.1,0.1-0.1,0-0.2l-0.1-0.2c0.1-0.2,0.2-0.3,0.2-0.5
	l0.3-0.1c0.1,0,0.1-0.1,0.1-0.2L11.9,9.6z M9.7,10.6C9.4,10.6,9,10.2,9,9.9c0-0.4,0.3-0.7,0.7-0.7c0.4,0,0.7,0.3,0.7,0.7
	C10.5,10.2,10.1,10.6,9.7,10.6L9.7,10.6z M9.2,10.6"/>
<path d="M9.8,0H1.2C0.6,0,0.5,0.2,0.5,0.7v9.9c0,0.5,0.2,0.6,0.7,0.6h6.5c0,0,0,0,0,0l0.2-0.3c-0.1-0.2-0.2-0.4-0.3-0.6l-0.3-0.1
	C7.2,10.2,7,10.1,7,10l0-0.5c0-0.1,0.1-0.2,0.2-0.2l0.3-0.1C7.6,9,7.7,8.8,7.8,8.6L7.7,8.4c0-0.1,0-0.2,0-0.2l0.4-0.3
	c0.1-0.1,0.2-0.1,0.3,0l0.3,0.2c0.2-0.1,0.4-0.2,0.6-0.2l0.1-0.3c0-0.1,0.1-0.1,0.2-0.2l0.5,0c0.1,0,0.2,0.1,0.2,0.2l0.1,0.2
	c0,0,0.1,0,0.1,0V0.6C10.6,0.1,10.4,0,9.8,0L9.8,0z M6.3,5.1h1.6v0.6H6v0.6h1.9v0.6H6v1.6H4.7V6.9H2.8V6.3h1.9V5.7H2.8V5.1h1.6
	L2.5,1.9h1.3l0.8,1.6c0.6,1.2-0.4-0.7,0.7,1.4h0.1C5.6,4.4,5.8,4,6.1,3.5l0.8-1.6h1.2L6.3,5.1z M6.8,5.2"/>
</svg>
