<?xml version="1.0" encoding="utf-8"?>
<!-- Generator: Adobe Illustrator 23.0.3, SVG Export Plug-In . SVG Version: 6.00 Build 0)  -->
<svg version="1.1" id="图层_1" xmlns="http://www.w3.org/2000/svg" xmlns:xlink="http://www.w3.org/1999/xlink" x="0px" y="0px"
	 viewBox="0 0 12 12" style="enable-background:new 0 0 12 12;" xml:space="preserve">
<style type="text/css">
	.st0{fill:#606266;}
	.st1{fill:#FAAF00;}
	.st2{fill:#299C2C;}
	.st3{fill:#BCD4F8;}
	.st4{fill:#A7C5EC;}
	.st5{fill:#F39700;}
	.st6{fill:#00699D;}
	.st7{fill:#FFFFFF;}
	.st8{fill-rule:evenodd;clip-rule:evenodd;fill:#606266;}
	.st9{fill:#ABABAB;}
	.st10{fill:#626262;}
	.st11{fill:#2C2C2C;}
	.st12{fill-rule:evenodd;clip-rule:evenodd;fill:#BCD4F8;}
	.st13{clip-path:url(#SVGID_2_);}
	.st14{clip-path:url(#SVGID_4_);}
	.st15{fill:#231815;}
	.st16{font-family:'AdobeSongStd-Light-GBpc-EUC-H';}
	.st17{font-size:6px;}
	.st18{clip-path:url(#SVGID_6_);}
	.st19{fill:#333333;}
</style>
<text transform="matrix(1 0 0 1 -7.7728 -8.4643)" class="st7 st16 st17">资金管理</text>
<g>
	<g>
		<path d="M10.2,4c0,0.5-0.4,1-0.8,1.2c0.3,0,0.5,0.1,0.8,0.2c0-0.1,0-0.1,0-0.2L10.2,4z M5.7,5.2c2.5,0,4.5-1,4.5-2.2V2.3
			C10.2,1,8.2,0,5.7,0C3.2,0,1.2,1,1.2,2.3V3C1.2,4.2,3.2,5.2,5.7,5.2L5.7,5.2z M4.9,9.8c-0.1-0.5-0.1-1,0-1.5
			c-2.1-0.1-3.7-0.9-3.7-2v1.2C1.2,8.6,2.8,9.5,4.9,9.8L4.9,9.8z M4.9,9.8"/>
		<path d="M5.7,12h0.5c-0.5-0.4-0.9-0.9-1.1-1.5c-2.3-0.1-3.9-0.9-3.9-2v1.3C1.2,11,3.2,12,5.7,12L5.7,12z M5.2,7.5
			C5.4,6.9,5.8,6.4,6.3,6H5.7C3.2,6,1.2,5.2,1.2,4v1.3C1.2,6.4,3,7.3,5.2,7.5L5.2,7.5z M9.2,6.1c0,0-0.1,0.1-0.1,0.1
			c0,0.1-0.1,0.2-0.2,0.3C8.8,6.6,8.6,6.6,8.5,6.6c-0.1,0-0.3,0-0.4-0.1C8,6.4,7.9,6.3,7.9,6.2c0,0,0-0.1-0.1-0.1C7.8,6,7.7,6,7.7,6
			H7.5L7.3,6.1C7.2,6.1,7.1,6.1,7,6.2C7,6.2,6.9,6.3,6.9,6.3c0,0,0,0.1,0,0.1c0,0,0,0.1,0,0.1v0.1c0,0.1,0,0.1,0,0.2
			c0,0.1,0,0.2,0,0.2c0,0.1-0.1,0.1-0.1,0.2C6.7,7.4,6.5,7.4,6.4,7.4c-0.1,0-0.3,0-0.4,0H5.9c0,0-0.1,0-0.1,0c0,0-0.1,0.1-0.1,0.1
			C5.6,7.6,5.5,7.8,5.5,7.9c0,0.1,0,0.1,0,0.2c0,0.1,0,0.1,0,0.1c0,0,0.1,0.1,0.1,0.1C5.8,8.4,5.9,8.5,6,8.6C6.1,8.7,6.1,8.8,6.1,9
			c0,0.1-0.1,0.3-0.2,0.4C5.9,9.5,5.8,9.6,5.6,9.7c-0.1,0-0.1,0.1-0.1,0.2c0,0.1,0,0.1,0,0.2c0,0.1,0,0.2,0.1,0.2
			c0,0.1,0.1,0.1,0.1,0.2c0,0.1,0.1,0.1,0.1,0.1c0.1,0,0.1,0,0.2,0c0.1,0,0.2-0.1,0.3-0.1c0.1,0,0.2,0,0.2,0c0.1,0,0.2,0.1,0.2,0.1
			c0.1,0.1,0.2,0.2,0.2,0.4c0,0.1,0,0.2-0.1,0.3c0,0.1,0,0.1,0,0.2c0,0,0,0.1,0,0.1c0,0,0.1,0.1,0.1,0.1c0.1,0,0.1,0.1,0.2,0.1
			l0.2,0.1c0.1,0,0.1,0,0.2,0c0,0,0.1,0,0.1,0c0.1,0,0.1,0,0.1-0.1c0-0.1,0.1-0.3,0.2-0.3c0.1-0.1,0.3-0.1,0.4-0.1
			c0.1,0,0.3,0,0.4,0.1c0.1,0.1,0.2,0.2,0.2,0.3c0,0,0,0.1,0.1,0.1c0,0,0.1,0,0.1,0h0.2c0.1,0,0.1,0,0.2-0.1l0.2-0.1
			c0,0,0.1-0.1,0.1-0.1c0-0.1,0-0.2,0-0.3C10,11.4,10,11.2,10,11.1c0-0.1,0.1-0.3,0.2-0.4c0-0.1,0.1-0.1,0.2-0.1c0.1,0,0.1,0,0.2,0
			c0.1,0,0.1,0,0.2,0h0.2c0,0,0.1,0,0.1,0c0,0,0.1,0,0.1,0c0.1,0,0.1-0.1,0.1-0.1c0-0.1,0.1-0.1,0.1-0.2c0-0.1,0.1-0.1,0.1-0.2
			c0-0.1,0-0.1,0-0.2c0-0.1,0-0.1-0.1-0.1l-0.1-0.1c-0.1,0-0.2-0.1-0.3-0.2c-0.1-0.1-0.1-0.2-0.1-0.4c0-0.1,0-0.3,0.1-0.4
			c0.1-0.1,0.2-0.2,0.3-0.2c0,0,0.1,0,0.1-0.1c0-0.1,0-0.1,0-0.2c0-0.1,0-0.2-0.1-0.4c0-0.1-0.1-0.2-0.2-0.3c0,0-0.1-0.1-0.1-0.1
			c0,0-0.1,0-0.1,0c-0.1,0.1-0.3,0.1-0.4,0.1c-0.1,0-0.3-0.1-0.4-0.2C10,7.2,9.9,7.1,9.9,6.9c0-0.1,0-0.3,0.1-0.4c0,0,0-0.1,0-0.1
			c0,0,0-0.1,0-0.1c0-0.1-0.1-0.1-0.1-0.2c-0.1,0-0.1-0.1-0.2-0.1L9.5,6L9.2,6.1C9.3,6,9.2,6,9.2,6.1L9.2,6.1z M9.8,8.4
			c0.1,0.3,0.1,0.7,0,1.1C9.7,9.7,9.6,9.8,9.5,10c-0.3,0.3-0.6,0.4-1,0.4c-0.2,0-0.4,0-0.5-0.1c-0.2-0.1-0.3-0.2-0.4-0.3
			C7.4,9.8,7.3,9.7,7.2,9.5C7.1,9.4,7.1,9.2,7.1,9c0-0.2,0-0.4,0.1-0.5C7.4,8.1,7.6,7.8,8,7.7c0.2-0.1,0.4-0.1,0.5-0.1
			c0.2,0,0.4,0,0.5,0.1C9.4,7.8,9.7,8.1,9.8,8.4L9.8,8.4z M9.8,8.4"/>
	</g>
</g>
</svg>
