<?xml version="1.0" encoding="utf-8"?>
<!-- Generator: Adobe Illustrator 23.0.3, SVG Export Plug-In . SVG Version: 6.00 Build 0)  -->
<svg version="1.1" id="图层_1" xmlns="http://www.w3.org/2000/svg" xmlns:xlink="http://www.w3.org/1999/xlink" x="0px" y="0px"
	 width="20px" height="20px" viewBox="0 0 20 20" style="enable-background:new 0 0 20 20;" xml:space="preserve">
<style type="text/css">
		.st0{fill:#606266;}
	.st1{fill:#FAAF00;}
	.st2{fill:#299C2C;}
	.st3{fill:#BCD4F8;}
	.st4{fill:#A7C5EC;}
	.st5{fill:#F39700;}
	.st6{fill:#00699D;}
	.st7{fill:#FFFFFF;}
	.st8{fill-rule:evenodd;clip-rule:evenodd;fill:#606266;}
	.st9{fill:#ABABAB;}
	.st10{fill:#626262;}
	.st11{fill:#2C2C2C;}
	.st12{fill-rule:evenodd;clip-rule:evenodd;fill:#BCD4F8;}
	.st13{clip-path:url(#SVGID_2_);}
	.st14{clip-path:url(#SVGID_4_);}
	.st15{fill:#fff;}
	.st16{clip-path:url(#SVGID_6_);}
	.st17{fill:#6E6E6E;}
	.st18{fill:#333333;}
</style>
		<path  d="M18.5,13c0.1-0.6,0.2-1.1,0.2-1.7c0-3.8-2.4-6.9-5.6-8.1C13.1,1.4,11.8,0,10,0C8.3,0,6.9,1.4,6.9,3.1
			c-3.3,1.2-5.6,4.4-5.6,8.1c0,0.6,0.1,1.1,0.3,1.7C0.6,13.5,0,14.5,0,15.6c0,1.8,1.4,3.1,3.1,3.1c0.6,0,1.1-0.1,1.6-0.5
			C6.3,19.4,8,20,10,20c2,0,3.7-0.6,5.2-1.7c0.5,0.3,1,0.5,1.6,0.5c1.8,0,3.1-1.4,3.1-3.1C20,14.5,19.4,13.5,18.5,13L18.5,13z
			 M12.9,4.4c2.8,1.1,4.6,3.8,4.6,6.9c0,0.5,0,0.9-0.1,1.2h-0.5c-0.4,0-0.7,0.1-1.1,0.2l-4-7C12.3,5.4,12.6,4.9,12.9,4.4L12.9,4.4z
			 M14.1,14.3H5.9c-0.1-0.4-0.4-0.6-0.6-0.9l4.1-7.1h1.2l4.1,7.1C14.5,13.6,14.3,13.9,14.1,14.3L14.1,14.3z M2.5,11.3
			c0-3.1,1.9-5.8,4.6-6.9c0.2,0.5,0.6,1,1.1,1.4l-4,7c-0.4-0.1-0.7-0.2-1.1-0.2H2.6C2.5,12.1,2.5,11.6,2.5,11.3L2.5,11.3z M5.8,17.4
			c0.4-0.5,0.5-1.1,0.5-1.8v-0.1h7.5v0.1c0,0.6,0.3,1.2,0.5,1.8c-1.3,0.9-2.8,1.4-4.2,1.4C8.5,18.8,6.9,18.3,5.8,17.4L5.8,17.4z
			 M16.9,17.5"/>
</svg>
