<?xml version="1.0" encoding="utf-8"?>
<!-- Generator: Adobe Illustrator 23.0.3, SVG Export Plug-In . SVG Version: 6.00 Build 0)  -->
<svg version="1.1" id="图层_1" xmlns="http://www.w3.org/2000/svg" xmlns:xlink="http://www.w3.org/1999/xlink" x="0px" y="0px"
	 viewBox="0 0 12 12" style="enable-background:new 0 0 12 12;" xml:space="preserve">
<style type="text/css">
	.st0{fill:#606266;}
	.st1{fill:#FAAF00;}
	.st2{fill:#299C2C;}
	.st3{fill:#BCD4F8;}
	.st4{fill:#A7C5EC;}
	.st5{fill:#F39700;}
	.st6{fill:#00699D;}
	.st7{fill:#FFFFFF;}
	.st8{fill-rule:evenodd;clip-rule:evenodd;fill:#606266;}
	.st9{fill:#ABABAB;}
	.st10{fill:#626262;}
	.st11{fill:#2C2C2C;}
	.st12{fill-rule:evenodd;clip-rule:evenodd;fill:#BCD4F8;}
	.st13{clip-path:url(#SVGID_2_);}
	.st14{clip-path:url(#SVGID_4_);}
	.st15{fill:#231815;}
	.st16{font-family:'AdobeSongStd-Light-GBpc-EUC-H';}
	.st17{font-size:6px;}
	.st18{clip-path:url(#SVGID_6_);}
	.st19{fill:#333333;}
</style>
<text transform="matrix(1 0 0 1 -6.2438 -8.2286)" class="st7 st16 st17">策略中心</text>
<g>
	<g>
		<path d="M10.1,4.2C9,4.2,8.2,5,8.2,6c0,1,0.9,1.8,1.9,1.8S12,7,12,6C12,5,11.1,4.2,10.1,4.2L10.1,4.2z M0.2,6.5H7
			c0.1,0,0.2-0.1,0.2-0.2V5.7c0-0.1-0.1-0.2-0.2-0.2H0.2c0,0-0.1,0-0.1,0.1C0,5.6,0,5.7,0,5.7v0.5C0,6.4,0.1,6.5,0.2,6.5L0.2,6.5z
			 M1.9,3.7c1.1,0,1.9-0.8,1.9-1.8C3.8,0.8,3,0,1.9,0C0.9,0,0,0.8,0,1.8S0.9,3.7,1.9,3.7L1.9,3.7z M11.8,1.4H5
			c-0.1,0-0.2,0.1-0.2,0.2v0.5c0,0.1,0.1,0.2,0.2,0.2h6.7c0.1,0,0.2-0.1,0.2-0.2V1.6c0,0,0-0.1-0.1-0.1C11.9,1.4,11.9,1.4,11.8,1.4
			L11.8,1.4z M1.9,8.3C0.9,8.3,0,9.1,0,10.2c0,1,0.9,1.8,1.9,1.8c1.1,0,1.9-0.8,1.9-1.8S3,8.3,1.9,8.3L1.9,8.3z M11.8,9.7H5
			c-0.1,0-0.2,0.1-0.2,0.2v0.5c0,0.1,0.1,0.2,0.2,0.2h6.7c0.1,0,0.2-0.1,0.2-0.2V9.9c0,0,0-0.1-0.1-0.1C11.9,9.7,11.9,9.7,11.8,9.7
			L11.8,9.7z M11.8,9.7"/>
	</g>
</g>
</svg>
