<?xml version="1.0" encoding="utf-8"?>
<!-- Generator: Adobe Illustrator 23.0.3, SVG Export Plug-In . SVG Version: 6.00 Build 0)  -->
<svg version="1.1" id="图层_1" xmlns="http://www.w3.org/2000/svg" xmlns:xlink="http://www.w3.org/1999/xlink" x="0px" y="0px"
	 viewBox="0 0 12 12" style="enable-background:new 0 0 12 12;" xml:space="preserve">
<style type="text/css">
	.st0{fill:#606266;}
	.st1{fill:#FAAF00;}
	.st2{fill:#299C2C;}
	.st3{fill:#BCD4F8;}
	.st4{fill:#A7C5EC;}
	.st5{fill:#F39700;}
	.st6{fill:#00699D;}
	.st7{fill:#FFFFFF;}
	.st8{fill-rule:evenodd;clip-rule:evenodd;fill:#606266;}
	.st9{fill:#ABABAB;}
	.st10{fill:#626262;}
	.st11{fill:#2C2C2C;}
	.st12{fill-rule:evenodd;clip-rule:evenodd;fill:#BCD4F8;}
	.st13{clip-path:url(#SVGID_2_);}
	.st14{clip-path:url(#SVGID_4_);}
	.st15{fill:#231815;}
	.st16{font-family:'AdobeSongStd-Light-GBpc-EUC-H';}
	.st17{font-size:6px;}
	.st18{clip-path:url(#SVGID_6_);}
	.st19{fill:#333333;}
</style>
<text transform="matrix(1 0 0 1 -6 -7.4052)" class="st7 st16 st17">预警设置</text>
<path d="M11.5,3.7c-0.3-0.7-0.7-1.4-1.3-1.9C9.7,1.2,9,0.8,8.3,0.5C7.6,0.2,6.8,0,6,0C2.7,0,0,2.7,0,6c0,3.3,2.7,6,6,6
	c0.8,0,1.6-0.2,2.3-0.5c0.7-0.3,1.4-0.7,1.9-1.3c0.6-0.6,1-1.2,1.3-1.9C11.8,7.6,12,6.8,12,6C12,5.2,11.8,4.4,11.5,3.7L11.5,3.7z
	 M8.7,6.4c0.1,0.2,0.2,0.4,0.4,0.5C8.7,8.1,7.7,9,6.4,9.2v-1c0.4-0.1,0.8-0.3,1.1-0.6c0.3-0.3,0.5-0.7,0.6-1.2H8.7z M8.7,5.6H8.2
	C8.1,5.1,7.9,4.7,7.6,4.4C7.3,4.1,6.9,3.9,6.4,3.8v-1C7.7,3,8.7,3.9,9.1,5.1C8.9,5.2,8.7,5.4,8.7,5.6L8.7,5.6z M6.4,11.1v-1
	C7.3,10,8,9.6,8.7,9.1c0.3-0.3,0.6-0.6,0.8-1C9.7,7.8,9.9,7.4,10,7c0.3-0.1,0.5-0.3,0.6-0.6h0.5C10.9,8.9,8.9,10.9,6.4,11.1
	L6.4,11.1z M9.5,3.9C9.3,3.5,9,3.2,8.7,2.9C8,2.4,7.3,2,6.4,1.9V0.9c2.5,0.2,4.5,2.2,4.7,4.7h-0.5C10.5,5.3,10.3,5.1,10,5
	C9.9,4.6,9.7,4.2,9.5,3.9L9.5,3.9z M4.4,3.2C4.7,3,5.1,2.9,5.6,2.8v1C5.1,3.9,4.7,4.1,4.4,4.4C4.1,4.7,3.9,5.1,3.8,5.6h-1
	C2.8,5.2,3,4.8,3.1,4.5c0.1,0,0.1,0,0.2,0c0.6,0,1.1-0.5,1.1-1.1C4.4,3.4,4.4,3.3,4.4,3.2L4.4,3.2z M3.4,2.4c-0.6,0-1.1,0.5-1.1,1.1
	c0,0.2,0,0.4,0.1,0.5C2.2,4.5,2,5,1.9,5.6H0.9c0.2-2.5,2.2-4.5,4.7-4.7v1C4.9,2,4.3,2.2,3.8,2.5C3.7,2.5,3.5,2.4,3.4,2.4L3.4,2.4z
	 M3.8,6.4c0.1,0.4,0.3,0.8,0.6,1.2c0.3,0.3,0.7,0.5,1.2,0.6v1C4.1,9,3,7.9,2.8,6.4H3.8z M5.6,10.1v1c-2.5-0.2-4.5-2.2-4.7-4.7h1
	C2,7.4,2.4,8.2,3.1,8.9C3.8,9.6,4.6,10,5.6,10.1L5.6,10.1z M5.6,10.1"/>
</svg>
