<?xml version="1.0" encoding="utf-8"?>
<!-- Generator: Adobe Illustrator 23.0.3, SVG Export Plug-In . SVG Version: 6.00 Build 0)  -->
<svg version="1.1" id="图层_1" xmlns="http://www.w3.org/2000/svg" xmlns:xlink="http://www.w3.org/1999/xlink" x="0px" y="0px"
	 viewBox="0 0 12 12" style="enable-background:new 0 0 12 12;" xml:space="preserve">
<style type="text/css">
	.st0{fill:#606266;}
	.st1{fill:#FAAF00;}
	.st2{fill:#299C2C;}
	.st3{fill:#BCD4F8;}
	.st4{fill:#A7C5EC;}
	.st5{fill:#F39700;}
	.st6{fill:#00699D;}
	.st7{fill:#FFFFFF;}
	.st8{fill-rule:evenodd;clip-rule:evenodd;fill:#606266;}
	.st9{fill:#ABABAB;}
	.st10{fill:#626262;}
	.st11{fill:#2C2C2C;}
	.st12{fill-rule:evenodd;clip-rule:evenodd;fill:#BCD4F8;}
	.st13{clip-path:url(#SVGID_2_);}
	.st14{clip-path:url(#SVGID_4_);}
	.st15{fill:#231815;}
	.st16{font-family:'AdobeSongStd-Light-GBpc-EUC-H';}
	.st17{font-size:6px;}
	.st18{clip-path:url(#SVGID_6_);}
	.st19{fill:#333333;}
</style>
<text transform="matrix(1 0 0 1 -6.353 -7.405)" class="st7 st16 st17">基础档案</text>
<g>
	<path d="M12,6.9v4.7H0V6.9c0.3-0.6,0.6-1.2,0.8-1.8C1,3.8,1.1,2.5,1.3,1.3C1.3,1,1.4,0.7,1.5,0.4h9c0.1,0.1,0.1,0.2,0.1,0.3
		c0.1,1,0.3,2,0.4,3C11.1,4.8,11.4,5.9,12,6.9L12,6.9z M1.3,6.6h2.3c0.2,0,0.4,0.1,0.5,0.3c0,0,0,0.1,0,0.1c0,1,0.9,1.8,2,1.8
		C7,8.8,7.8,8,7.9,7c0-0.2,0.2-0.4,0.4-0.4c0,0,0.1,0,0.1,0h2.3L10,1.2H2L1.3,6.6L1.3,6.6z M6,1.8h2.3c0.3,0,0.5,0,0.5,0.4
		c0,0.3-0.2,0.4-0.5,0.4H3.6c-0.3,0-0.5,0-0.5-0.4c0-0.3,0.2-0.4,0.5-0.4H6z M6,4.1H3.7c-0.3,0-0.5,0-0.5-0.4c0-0.3,0.2-0.4,0.5-0.4
		h4.7c0.3,0,0.5,0,0.5,0.4c0,0.3-0.2,0.4-0.5,0.4L6,4.1L6,4.1z M6,5.5H3.6c-0.3,0-0.5,0-0.5-0.4c0-0.3,0.3-0.3,0.5-0.3h4.7
		c0.3,0,0.5,0,0.5,0.4c0,0.3-0.3,0.3-0.5,0.3L6,5.5L6,5.5z M6,5.5"/>
</g>
</svg>
