<?xml version="1.0" encoding="utf-8"?>
<!-- Generator: Adobe Illustrator 22.0.2, SVG Export Plug-In . SVG Version: 6.00 Build 0)  -->
<svg version="1.1" id="图层_1" xmlns="http://www.w3.org/2000/svg" xmlns:xlink="http://www.w3.org/1999/xlink" x="0px" y="0px"
	 viewBox="0 0 14 14" style="enable-background:new 0 0 14 14;" xml:space="preserve">
<style type="text/css">
	.st0{fill:#606266;}
	.st1{fill:#A7C5EC;}
	.st2{fill:#FAAF00;}
	.st3{fill:#299C2C;}
	.st4{fill:#979A9F;}
	.st5{fill:#606165;}
	.st6{fill:#00699D;}
	.st7{fill-rule:evenodd;clip-rule:evenodd;fill:#606266;}
	.st8{fill:#626262;}
	.st9{fill:#FFFFFF;}
</style>
<g>
	<g>
		<path d="M11.8,4.8c-1.2,0-2.2,1-2.2,2.2c0,1.2,1,2.2,2.2,2.2S14,8.2,14,7C14,5.8,13,4.8,11.8,4.8L11.8,4.8z M0.3,7.5
			h7.8c0.2,0,0.3-0.1,0.3-0.3V6.7c0-0.1-0.1-0.2-0.2-0.2h-8c-0.1,0-0.1,0-0.2,0.1c0,0-0.1,0.1-0.1,0.1v0.6C0,7.4,0.2,7.5,0.3,7.5
			L0.3,7.5z M2.3,4.3c1.2,0,2.2-1,2.2-2.2C4.5,1,3.5,0,2.3,0C1,0,0,1,0,2.1C0,3.3,1,4.3,2.3,4.3L2.3,4.3z M13.8,1.6h-8
			c-0.1,0-0.2,0.1-0.2,0.2v0.6c0,0.1,0.1,0.3,0.3,0.3h7.8c0.2,0,0.3-0.1,0.3-0.3V1.8c0-0.1,0-0.1-0.1-0.1
			C13.9,1.6,13.9,1.6,13.8,1.6L13.8,1.6z M2.3,9.7C1,9.7,0,10.6,0,11.8C0,13,1,14,2.3,14c1.2,0,2.2-1,2.2-2.2S3.5,9.7,2.3,9.7
			L2.3,9.7z M13.8,11.3h-8c-0.1,0-0.2,0.1-0.2,0.2v0.6c0,0.1,0.1,0.3,0.3,0.3h7.8c0.2,0,0.3-0.1,0.3-0.3v-0.6c0-0.1,0-0.1-0.1-0.1
			C13.9,11.3,13.9,11.3,13.8,11.3L13.8,11.3z M13.8,11.3"/>
	</g>
</g>
</svg>
