<?xml version="1.0" encoding="utf-8"?>
<!-- Generator: Adobe Illustrator 23.0.3, SVG Export Plug-In . SVG Version: 6.00 Build 0)  -->
<svg version="1.1" id="图层_1" xmlns="http://www.w3.org/2000/svg" xmlns:xlink="http://www.w3.org/1999/xlink" x="0px" y="0px"
	 viewBox="0 0 12 12" style="enable-background:new 0 0 12 12;" xml:space="preserve">
<style type="text/css">
	.st0{fill:#606266;}
	.st1{fill:#FAAF00;}
	.st2{fill:#299C2C;}
	.st3{fill:#BCD4F8;}
	.st4{fill:#A7C5EC;}
	.st5{fill:#F39700;}
	.st6{fill:#00699D;}
	.st7{fill:#FFFFFF;}
	.st8{fill-rule:evenodd;clip-rule:evenodd;fill:#606266;}
	.st9{fill:#ABABAB;}
	.st10{fill:#626262;}
	.st11{fill:#2C2C2C;}
	.st12{fill-rule:evenodd;clip-rule:evenodd;fill:#BCD4F8;}
	.st13{clip-path:url(#SVGID_2_);}
	.st14{clip-path:url(#SVGID_4_);}
	.st15{fill:#231815;}
	.st16{font-family:'AdobeSongStd-Light-GBpc-EUC-H';}
	.st17{font-size:6px;}
	.st18{clip-path:url(#SVGID_6_);}
	.st19{fill:#333333;}
</style>
<text transform="matrix(1 0 0 1 -6.9041 -8.4637)" class="st7 st16 st17">库存管理</text>
<g>
	<path d="M5.8,6.5L3.1,5.2c-0.1,0-0.1,0-0.2,0L0.1,6.5C0.1,6.5,0,6.6,0,6.7v3.6h0c0,0.1,0,0.1,0.1,0.2L2.8,12l0,0h0l0,0l0,0l0,0l0,0
		l0,0l0,0l0,0h0l0,0l0,0h0l0,0l0,0l0,0h0l0,0h0l0,0l0,0h0l0,0h0v0h0l0,0H3l0,0h0v0h0l0,0h0l0,0h0l0,0h0l0,0l0,0l0,0l0,0l0,0l0,0h0
		l0,0h0l0,0l0,0l0,0h0l0,0l2.7-1.5c0.1,0,0.1-0.1,0.1-0.2h0V6.7C5.9,6.6,5.9,6.5,5.8,6.5L5.8,6.5z M3,5.6l0.6,0.3L1.4,7.1L0.7,6.7
		L3,5.6z M2.7,11.4l-2.3-1.3V7.1l0.7,0.4v0.7l0.5,0.2V7.7l1.1,0.6V11.4L2.7,11.4z M3,8L1.9,7.4l2.3-1.2l1,0.5L3,8L3,8z M11.9,6.5
		L9.2,5.2c-0.1,0-0.1,0-0.2,0L6.2,6.5c-0.1,0-0.1,0.1-0.1,0.2v3.6h0c0,0.1,0,0.1,0.1,0.2L8.9,12l0,0h0l0,0l0,0l0,0l0,0l0,0h0l0,0
		l0,0h0l0,0l0,0l0,0h0l0,0h0l0,0h0l0,0h0l0,0h0l0,0h0.1l0,0h0v0h0l0,0h0l0,0l0,0h0l0,0h0l0,0l0,0l0,0h0l0,0l0,0h0l0,0l0,0l0,0l0,0
		l0,0l0,0l0,0v0h0l0,0l2.8-1.5c0.1,0,0.1-0.1,0.1-0.2h0V6.7C12,6.6,11.9,6.5,11.9,6.5L11.9,6.5z M9.1,5.6l0.6,0.3L7.4,7.1L6.8,6.7
		L9.1,5.6z M8.8,11.4l-2.3-1.3V7.1l0.7,0.4v0.7l0.5,0.2V7.7l1.1,0.6V11.4L8.8,11.4z M9,8L8,7.4l2.3-1.2l1,0.5L9,8z M8.9,1.3L6.2,0
		C6.2,0,6.1,0,6.1,0L3.2,1.3c-0.1,0-0.1,0.1-0.1,0.2v3.6h0c0,0.1,0,0.1,0.1,0.2l2.7,1.5l0,0h0l0,0l0,0l0,0l0,0l0,0l0,0l0,0l0,0h0
		l0,0h0l0,0l0,0l0,0l0,0h0l0,0h0l0,0l0,0h0l0,0h0l0,0h0l0,0h0.1l0,0h0l0,0h0l0,0h0l0,0l0,0h0l0,0h0l0,0l0,0l0,0h0l0,0h0l0,0l0,0l0,0
		l0,0l0,0l0,0l0,0v0h0l0,0l2.7-1.5C8.9,5.3,9,5.2,9,5.1h0V1.5C9,1.4,9,1.4,8.9,1.3L8.9,1.3z M6.3,0.5l0.6,0.3L4.6,2L3.9,1.6L6.3,0.5
		z M5.9,6.3L3.5,5.1V2l0.7,0.4V3l0.5,0.2V2.6l1.1,0.6L5.9,6.3L5.9,6.3z M6.1,2.8L5,2.2L7.3,1l1,0.5L6.1,2.8L6.1,2.8z M6.1,2.8"/>
</g>
</svg>
