<?xml version="1.0" encoding="utf-8"?>
<!-- Generator: Adobe Illustrator 23.0.3, SVG Export Plug-In . SVG Version: 6.00 Build 0)  -->
<svg version="1.1" id="图层_1" xmlns="http://www.w3.org/2000/svg" xmlns:xlink="http://www.w3.org/1999/xlink" x="0px" y="0px"
	 viewBox="0 0 12 12" style="enable-background:new 0 0 12 12;" xml:space="preserve">
<style type="text/css">
	.st0{fill:#606266;}
	.st1{fill:#FAAF00;}
	.st2{fill:#299C2C;}
	.st3{fill:#BCD4F8;}
	.st4{fill:#A7C5EC;}
	.st5{fill:#F39700;}
	.st6{fill:#00699D;}
	.st7{fill:#FFFFFF;}
	.st8{fill-rule:evenodd;clip-rule:evenodd;fill:#606266;}
	.st9{fill:#ABABAB;}
	.st10{fill:#626262;}
	.st11{fill:#2C2C2C;}
	.st12{fill-rule:evenodd;clip-rule:evenodd;fill:#BCD4F8;}
	.st13{clip-path:url(#SVGID_2_);}
	.st14{clip-path:url(#SVGID_4_);}
	.st15{fill:#231815;}
	.st16{clip-path:url(#SVGID_6_);}
	.st17{fill:#333333;}
</style>
<g>
	<g>
		<defs>
			<rect id="SVGID_5_" x="0" width="12" height="12"/>
		</defs>
		<clipPath id="SVGID_2_">
			<use xlink:href="#SVGID_5_"  style="overflow:visible;"/>
		</clipPath>
		<path class="st13" d="M3.2,9.4H1.9c0,0-0.1,0-0.1,0c0,0,0,0-0.1,0c-0.1,0,0.1,0,0,0c0,0-0.1,0-0.1,0c0,0-0.1,0-0.1,0
			c0,0,0,0-0.1,0c0.1,0,0,0,0,0c-0.1,0-0.2-0.1-0.2-0.1c0,0,0,0,0,0c0.1,0.1,0,0,0,0c0,0-0.1-0.1-0.1-0.1C1,9,1,9,1,9c0,0,0,0,0,0
			c0,0,0.1,0.1,0,0c0-0.1-0.1-0.1-0.1-0.2c0,0,0,0,0-0.1c0-0.1,0,0.1,0,0c0,0,0-0.1,0-0.1c0,0,0-0.1,0-0.1c0,0,0,0,0-0.1
			c0,0.1,0,0,0,0c0,0,0-0.1,0-0.1V1.9c0,0,0-0.1,0-0.1c0,0,0,0,0-0.1c0-0.1,0,0.1,0,0c0,0,0-0.1,0-0.1c0,0,0-0.1,0-0.1
			c0,0,0,0,0-0.1c0,0.1,0,0,0,0c0-0.1,0.1-0.2,0.1-0.2c0,0,0,0,0,0c-0.1,0.1,0,0,0,0c0,0,0.1-0.1,0.1-0.1c0,0,0.1-0.1,0.1-0.1
			c0,0,0,0,0,0c0,0-0.1,0.1,0,0c0.1,0,0.1-0.1,0.2-0.1c0,0,0,0,0.1,0c0.1,0-0.1,0,0,0c0,0,0.1,0,0.1,0c0,0,0.1,0,0.1,0
			c0,0,0,0,0.1,0c-0.1,0,0,0,0,0c0,0,0.1,0,0.1,0h8.2c0,0,0.1,0,0.1,0c0,0,0,0,0.1,0c0.1,0-0.1,0,0,0c0,0,0.1,0,0.1,0
			c0,0,0.1,0,0.1,0c0,0,0,0,0.1,0c0.1,0-0.1,0,0,0c0.1,0,0.1,0.1,0.2,0.1c0,0,0,0,0,0c0.1,0-0.1-0.1,0,0c0,0,0.1,0.1,0.1,0.1
			c0,0,0.1,0.1,0.1,0.1c0,0,0,0,0,0c0,0.1-0.1-0.1,0,0c0.1,0.1,0.1,0.1,0.1,0.2c0,0,0,0,0,0.1c0,0.1,0-0.1,0,0c0,0,0,0.1,0,0.1
			c0,0,0,0.1,0,0.1c0,0,0,0,0,0.1c0,0.1,0-0.1,0,0c0,0.1,0,0.1,0,0.2v6.3c0,0,0,0.1,0,0.1c0,0,0,0,0,0.1c0,0.1,0-0.1,0,0
			c0,0,0,0.1,0,0.1c0,0,0,0.1,0,0.1c0,0,0,0,0,0.1c0,0.1,0-0.1,0,0c0,0.1-0.1,0.1-0.1,0.2c0,0,0,0,0,0c0,0.1,0.1-0.1,0,0
			C11,9,11,9,10.9,9c0,0-0.1,0.1-0.1,0.1c0,0,0,0,0,0c-0.1,0,0.1-0.1,0,0c-0.1,0.1-0.1,0.1-0.2,0.1c0,0,0,0-0.1,0c-0.1,0,0.1,0,0,0
			c0,0-0.1,0-0.1,0c0,0-0.1,0-0.1,0c0,0,0,0-0.1,0c-0.1,0,0.1,0,0,0c-0.1,0-0.1,0-0.2,0H6.9c-0.2,0-0.3,0.1-0.4,0.3
			c-0.1,0.1-0.3,0.3-0.4,0.4c-0.3,0.3-0.7,0.7-1,1c-0.1,0.1-0.2,0.2-0.3,0.3c-0.1,0.1-0.1,0.4,0,0.5c0.1,0.1,0.4,0.1,0.5,0
			c0.5-0.5,1.1-1.1,1.6-1.6C7,10.2,7.1,10.1,7.2,10c-0.1,0-0.2,0.1-0.3,0.1h3.2c0.7,0,1.3-0.3,1.6-0.9C11.9,8.9,12,8.5,12,8.1V2.2
			c0-0.3,0-0.5-0.1-0.7c-0.1-0.4-0.3-0.7-0.6-0.9C11,0.2,10.6,0,10.2,0C10.1,0,10,0,9.8,0H1.9C1.4,0,0.8,0.2,0.5,0.7
			C0.2,1,0,1.4,0,1.8C0,1.8,0,1.9,0,2v5.9c0,0.2,0,0.3,0,0.5c0.1,0.8,0.6,1.5,1.4,1.7c0.2,0,0.4,0,0.6,0h1.1c0.2,0,0.4-0.2,0.4-0.4
			C3.5,9.6,3.4,9.4,3.2,9.4L3.2,9.4z M3.2,9.4"/>
	</g>
	<path d="M3.2,3.5h5.6c0.2,0,0.4-0.2,0.4-0.4C9.2,3,9,2.8,8.8,2.8H3.2C3,2.8,2.8,3,2.8,3.2C2.8,3.4,3,3.5,3.2,3.5L3.2,3.5z M3.2,3.5
		"/>
	<path d="M3.2,6.4h5.6C9,6.4,9.2,6.2,9.2,6c0-0.2-0.2-0.4-0.4-0.4H3.2C3,5.6,2.8,5.8,2.8,6C2.8,6.2,3,6.4,3.2,6.4L3.2,6.4z M3.2,6.4
		"/>
</g>
</svg>
