<?xml version="1.0" encoding="utf-8"?>
<!-- Generator: Adobe Illustrator 23.0.3, SVG Export Plug-In . SVG Version: 6.00 Build 0)  -->
<svg version="1.1" id="图层_1" xmlns="http://www.w3.org/2000/svg" xmlns:xlink="http://www.w3.org/1999/xlink" x="0px" y="0px"
	 viewBox="0 0 12 12" style="enable-background:new 0 0 12 12;" xml:space="preserve">
<style type="text/css">
	.st0{fill:#606266;}
	.st1{fill:#FAAF00;}
	.st2{fill:#299C2C;}
	.st3{fill:#BCD4F8;}
	.st4{fill:#A7C5EC;}
	.st5{fill:#F39700;}
	.st6{fill:#00699D;}
	.st7{fill:#FFFFFF;}
	.st8{fill-rule:evenodd;clip-rule:evenodd;fill:#606266;}
	.st9{fill:#ABABAB;}
	.st10{fill:#626262;}
	.st11{fill:#2C2C2C;}
	.st12{fill-rule:evenodd;clip-rule:evenodd;fill:#BCD4F8;}
	.st13{clip-path:url(#SVGID_2_);}
	.st14{clip-path:url(#SVGID_4_);}
	.st15{fill:#231815;}
	.st16{font-family:'AdobeSongStd-Light-GBpc-EUC-H';}
	.st17{font-size:6px;}
	.st18{clip-path:url(#SVGID_6_);}
	.st19{fill:#333333;}
</style>
<text transform="matrix(1 0 0 1 -12.4074 -8.4643)" class="st7 st16 st17">承兑汇票管理</text>
<g>
	<path d="M6.2,6c0.1-0.1,0.1-0.2,0.1-0.3l0,0v-1c0-0.1,0-0.2-0.1-0.2C6.1,4.4,6,4.3,6,4.3H2.8c-0.2,0-0.3,0.1-0.3,0.4v1
		c0,0.1,0,0.2,0.1,0.3c0.1,0.1,0.2,0.1,0.2,0.1h3.1C6,6.1,6.1,6.1,6.2,6z"/>
	<path d="M10.9,0.9H1C0.5,0.9,0,1.4,0,2v2.6c0.8,0,1.5,0.7,1.5,1.6C1.6,7,0.9,7.8,0,7.8h0v2.6c0,0.6,0.5,1,1.1,1.1h9.9
		c0.6,0,1-0.5,1.1-1.1V7.8c-0.8,0-1.5-0.7-1.5-1.6c0-0.8,0.7-1.5,1.5-1.6v0h0V2C12,1.4,11.5,0.9,10.9,0.9z M7.3,9.5L7.3,9.5L7.3,9.5
		H5.5c-0.2,0-0.3-0.1-0.5-0.2C5,9.2,4.9,9,4.9,8.8v-2H3.7c0,1.1-0.7,2.1-2,2.9L1.3,9.2C2.5,8.4,3,7.6,3.1,6.8H2.5
		C2.3,6.8,2.1,6.7,2,6.5C1.9,6.4,1.8,6.2,1.8,6V4.6C1.8,4.3,1.9,4.1,2,4c0.1-0.2,0.3-0.2,0.5-0.2H3C2.8,3.4,2.7,3,2.7,2.7h0.7
		C3.4,3,3.5,3.4,3.7,3.7H5C5.1,3.4,5.2,3,5.3,2.7H6C5.9,3,5.8,3.4,5.6,3.7h0.5c0.2,0,0.4,0.1,0.5,0.2c0.1,0.2,0.2,0.4,0.2,0.6v1.5
		c0,0.4-0.3,0.7-0.6,0.7H5.6v1.8C5.6,8.9,5.7,9,5.9,9h1.5L7.3,9.5L7.3,9.5z M8.2,11.2H7.7v-0.5h0.5V11.2z M8.2,10.2H7.7V9.7h0.5
		V10.2z M8.2,9.2H7.7V8.8h0.5V9.2z M8.2,8.3H7.7V7.8h0.5V8.3z M8.2,7.3H7.7V6.8h0.5V7.3z M8.2,6.3H7.7V5.8h0.5V6.3z M8.2,5.3H7.7
		V4.8h0.5V5.3z M8.2,4.3H7.7V3.8h0.5V4.3z M8.2,3.4H7.7V2.9h0.5V3.4z M8.2,2.4H7.7V1.9h0.5V2.4z M8.2,1.4H7.7V0.9h0.5V1.4z"/>
</g>
</svg>
