<svg id="图层_1" data-name="图层 1" xmlns="http://www.w3.org/2000/svg" viewBox="0 0 12 12"><defs><style>.cls-1,.cls-2{fill:#606266;}.cls-2{fill-rule:evenodd;}</style></defs><title>xx_</title><rect x="6" y="10.17" width="6" height="0.8"/><rect x="6" y="2.14" width="6" height="0.8"/><rect x="6" y="6.1" width="6" height="0.8"/><polygon points="1.69 12 0.01 10.38 0.58 9.75 2.32 11.39 1.69 12"/><polygon points="1.07 11.4 4.2 8.35 4.79 9 1.69 12 1.07 11.4"/><polygon points="1.69 7.83 0.01 6.21 0.58 5.58 2.32 7.21 1.69 7.83"/><polygon points="1.07 7.23 4.2 4.17 4.79 4.82 1.69 7.83 1.07 7.23"/><polygon points="1.69 3.66 0.01 2.04 0.58 1.41 2.32 3.05 1.69 3.66"/><polygon points="1.07 3.06 4.2 0.01 4.79 0.66 1.69 3.66 1.07 3.06"/></svg>