<svg id="图层_1" data-name="图层 1" xmlns="http://www.w3.org/2000/svg" viewBox="0 0 12 12"><defs><style>.cls-1,.cls-2{fill:#606266;}.cls-2{fill-rule:evenodd;}</style></defs><title>xx_</title><path d="M6,.78A5.22,5.22,0,1,0,11.22,6,5.21,5.21,0,0,0,6,.78M6,12a5.92,5.92,0,0,1-4.23-1.76A5.89,5.89,0,0,1,.51,8.33,5.81,5.81,0,0,1,0,6,6,6,0,0,1,.51,3.66,6,6,0,0,1,6,0a5.92,5.92,0,0,1,4.23,1.76,5.89,5.89,0,0,1,1.28,1.91A6,6,0,0,1,6,12"/><path d="M10.11,1.89c.1.11.19.24.28.36L12,.63,11.37,0,9.75,1.61C9.87,1.7,10,1.79,10.11,1.89Z"/><path d="M1.9,10.1c-.11-.12-.19-.25-.29-.37L0,11.34.66,12l1.61-1.61C2.15,10.29,2,10.21,1.9,10.1Z"/><polygon points="3.96 7.84 6.57 3.41 7.37 3.86 4.77 8.28 4.08 8.55 3.96 7.84"/><rect x="4.07" y="7.75" width="4" height="0.8"/></svg>