<svg id="图层_1" data-name="图层 1" xmlns="http://www.w3.org/2000/svg" viewBox="0 0 12 12"><defs><style>.cls-1{fill:#606266;}</style></defs><title>xx_</title><path d="M11.18,6.21a1.42,1.42,0,0,0-.36,0h-.2V6.09a4.73,4.73,0,0,0-2-3.2l-.08-.05,0-.08a1.63,1.63,0,0,0,.18-.43l0-.13.12.07A5.34,5.34,0,0,1,11.3,6.1l0,.14Z"/><path d="M6,3.23A1.62,1.62,0,0,1,4.41,1.59,1.55,1.55,0,0,1,6,0,1.59,1.59,0,0,1,7.13.46a1.55,1.55,0,0,1,.45,1.12A1.62,1.62,0,0,1,6,3.23ZM6,.62a1,1,0,0,0-1,1,1,1,0,1,0,2,0A1,1,0,0,0,6.69.9,1,1,0,0,0,6,.62Z"/><path d="M1.58,10.55A1.61,1.61,0,0,1,0,8.91,1.55,1.55,0,0,1,1.58,7.32a1.59,1.59,0,0,1,1.14.46,1.59,1.59,0,0,1,.45,1.13A1.61,1.61,0,0,1,1.58,10.55Zm0-2.6a1,1,0,0,0-1,1,1,1,0,0,0,1,1,1,1,0,0,0,.69-1.71A1,1,0,0,0,1.59,8Z"/><path d="M10.41,10.55A1.61,1.61,0,0,1,8.83,8.91a1.59,1.59,0,1,1,3.17,0A1.61,1.61,0,0,1,10.41,10.55Zm0-2.6a1,1,0,0,0-1,1,1,1,0,1,0,1.94,0,1,1,0,0,0-.27-.69,1,1,0,0,0-.7-.27Z"/><path d="M.69,6.07A5.35,5.35,0,0,1,3,2.3l.13-.09,0,.15a1.44,1.44,0,0,0,.15.47l0,.08L3.29,3a5.21,5.21,0,0,0-2,3.1l0,.09H1.12a1,1,0,0,0-.3,0l-.15,0Z"/><path d="M6,12a5.44,5.44,0,0,1-2.63-.67l-.14-.08.12-.09a1.29,1.29,0,0,0,.34-.36l0-.08.08,0a4.94,4.94,0,0,0,2.13.54A4.6,4.6,0,0,0,8,10.71l.08,0,.05.07a1.42,1.42,0,0,0,.44.4l.14.08-.14.09A5,5,0,0,1,6,12Z"/></svg>