<svg id="图层_1" data-name="图层 1" xmlns="http://www.w3.org/2000/svg" viewBox="0 0 12 12"><defs><style>.cls-1,.cls-2{fill:#606266;}.cls-2{fill-rule:evenodd;}</style></defs><title>线性-画板 248</title><path d="M8.64-.16H3.35V2.65H8.65V-.16ZM8,2h-4V.48H8Z"/><rect x="2.54" y="3.58" width="6.6" height="0.8"/><rect x="2.54" y="5.67" width="3.3" height="0.8"/><rect x="5.02" y="7.35" width="3.18" height="0.64" transform="translate(-3.49 6.92) rotate(-45.02)"/><rect x="6.29" y="7.88" width="0.64" height="3.18" transform="translate(-4.76 7.45) rotate(-45.02)"/><rect x="5.58" y="8.25" width="5.75" height="0.64"/><polygon points="8.12 0.66 8.12 1.43 11.21 1.43 11.21 11.07 0.8 11.07 0.8 1.43 3.69 1.43 3.69 0.66 0 0.66 0 11.84 12 11.84 12 0.66 8.12 0.66"/></svg>