<svg id="图层_1" data-name="图层 1" xmlns="http://www.w3.org/2000/svg" viewBox="0 0 12 12"><defs><style>.cls-1,.cls-2{fill:#606266;}.cls-2{fill-rule:evenodd;}</style></defs><title>xx_</title><rect x="4.65" y="4.28" width="0.8" height="3.36"/><rect x="2.55" y="4.14" width="5.01" height="0.8"/><rect x="2.55" y="5.93" width="5.01" height="0.8"/><polygon points="5.06 5.03 2.83 2.5 3.43 1.96 5.6 4.38 5.06 5.03"/><polygon points="4.47 4.44 6.55 1.96 7.16 2.51 5.06 5.03 4.47 4.44"/><polygon points="10.03 0 10.03 5.1 9.23 5.1 9.23 0.83 0.82 0.83 0.82 9.17 4.51 9.17 4.51 10 0.03 10 0.03 0 10.03 0"/><polygon points="8.28 12 6.28 10.06 6.86 9.43 8.91 11.39 8.28 12"/><polygon points="7.66 11.4 11.41 7.73 12 8.38 8.28 12 7.66 11.4"/></svg>