<svg id="图层_1" data-name="图层 1" xmlns="http://www.w3.org/2000/svg" viewBox="0 0 12 12"><defs><style>.cls-1{fill:#606266;}</style></defs><title>xx_</title><rect width="0.8" height="3.08"/><rect y="3.09" width="3.97" height="0.8"/><path d="M10.81,5.25A5.18,5.18,0,0,0,1.37,3.09H.47a6.05,6.05,0,0,1,1-1.33A5.91,5.91,0,0,1,3.35.47,6,6,0,0,1,9.92,1.76a5.86,5.86,0,0,1,1.71,3.49Z"/><rect x="11.2" y="8.91" width="0.8" height="3.08"/><rect x="8.03" y="8.11" width="3.97" height="0.8"/><path d="M1.19,6.75a5.18,5.18,0,0,0,9.44,2.16h.9a6.05,6.05,0,0,1-1,1.33,5.91,5.91,0,0,1-1.91,1.29,6,6,0,0,1-6.57-1.29A5.86,5.86,0,0,1,.37,6.75Z"/></svg>