<svg id="图层_1" data-name="图层 1" xmlns="http://www.w3.org/2000/svg" viewBox="0 0 12 12"><defs><style>.cls-1{fill:#606266;}</style></defs><title>xx_</title><path d="M5.94.78A2.62,2.62,0,1,0,8.55,3.39,2.61,2.61,0,0,0,5.94.78m0,6a3.36,3.36,0,0,1-1.33-.27A3.43,3.43,0,0,1,2.8,4.72a3.36,3.36,0,0,1-.27-1.33,3.4,3.4,0,0,1,1-2.4A3.44,3.44,0,0,1,4.61.26,3.36,3.36,0,0,1,5.94,0a3.4,3.4,0,0,1,2.4,1,3.44,3.44,0,0,1,.73,1.08,3.39,3.39,0,0,1,0,2.65A3.28,3.28,0,0,1,8.34,5.8a3.4,3.4,0,0,1-2.4,1"/><path d="M.8,12a5.2,5.2,0,0,1,10.4,0H12a6,6,0,0,0-1.76-4.18A5.76,5.76,0,0,0,8.33,6.52a6,6,0,0,0-4.66,0A5.89,5.89,0,0,0,1.76,7.8,6,6,0,0,0,.47,9.71,6.11,6.11,0,0,0,0,12Z"/></svg>