<svg id="图层_1" data-name="图层 1" xmlns="http://www.w3.org/2000/svg" viewBox="0 0 12 12"><defs><style>.cls-1,.cls-2{fill:#606266;}.cls-2{fill-rule:evenodd;}</style></defs><title>xx_</title><rect x="5.88" y="6" width="3" height="0.8"/><rect x="5.88" y="4.21" width="3" height="0.8"/><polygon points="10.97 7.99 7.46 12 8.54 12 11.57 8.51 10.97 7.99"/><rect x="7.29" y="7.71" width="0.8" height="3.46"/><polygon points="10.78 8.51 10.78 3.19 4 3.19 4 11.17 8.09 11.17 8.09 12 3.2 12 3.2 2.36 11.57 2.36 11.57 8.51 10.78 8.51"/><rect x="8.09" y="7.71" width="3.48" height="0.8"/><polygon points="2.25 9.14 1.23 9.14 1.23 0.83 6.78 0.83 6.78 1.79 7.57 1.79 7.57 0 0.43 0 0.43 9.96 2.25 9.96 2.25 9.14"/></svg>