<svg id="图层_1" data-name="图层 1" xmlns="http://www.w3.org/2000/svg" viewBox="0 0 12 12"><defs><style>.cls-1{fill:#606266;}</style></defs><title>xx_</title><rect x="5.6" y="0.24" width="0.8" height="11.53" transform="translate(-2.49 6) rotate(-45)"/><path d="M6,.79A5.21,5.21,0,1,0,11.21,6,5.22,5.22,0,0,0,6,.79M6,12a6,6,0,0,1-2.34-.47,6,6,0,0,1-1.9-1.29A5.91,5.91,0,0,1,.47,8.33a6,6,0,0,1,0-4.67,5.82,5.82,0,0,1,1.29-1.9A6,6,0,0,1,3.66.47a6.06,6.06,0,0,1,4.68,0,6,6,0,0,1,1.9,1.29,5.91,5.91,0,0,1,1.29,1.91,6,6,0,0,1,0,4.67,5.82,5.82,0,0,1-1.29,1.9,6,6,0,0,1-1.9,1.29A6,6,0,0,1,6,12"/></svg>