<svg id="图层_1" data-name="图层 1" xmlns="http://www.w3.org/2000/svg" viewBox="0 0 12 12"><defs><style>.cls-1{fill:#606266;}</style></defs><title>线性-画板 245</title><rect x="3.09" y="3.46" width="5.44" height="0.84"/><path d="M5.79,11.2H1.67V.8h8V5.41a3.13,3.13,0,0,1,.8.39V0H.88V12H6.82A3.49,3.49,0,0,1,5.79,11.2Z"/><path d="M6.35,5.91H3.09v.84H5.52A3.89,3.89,0,0,1,6.35,5.91Z"/><path d="M8.68,8.43h.5q.25-.36.3-.33a.32.32,0,0,1,.18.07,3.33,3.33,0,0,1-.25-1A4.08,4.08,0,0,1,8.68,8.43Z"/><path d="M8.49,5.62a3.19,3.19,0,1,0,3.18,3.19A3.19,3.19,0,0,0,8.49,5.62Zm-.2,3.63s0,0,0-.05h0a1.19,1.19,0,0,1,.56.68c.06.28,0,.45-.29.51s-.3-.1-.28-.38A2.27,2.27,0,0,0,8.29,9.25ZM8.91,9s0-.05,0-.07L9,9a1.37,1.37,0,0,1,.61.73c.07.29,0,.47-.28.53S9,10.16,9,9.84A4.53,4.53,0,0,0,8.91,9ZM9,8.57a2.1,2.1,0,0,0-.4,0H8.5v0a4,4,0,0,1-.35.26c.11.07.17.12.17.16s0,.09-.07.14-.06.05-.07.12a8.83,8.83,0,0,1-.07,1.08,1.6,1.6,0,0,1,0,.21l.49,0h1a6.39,6.39,0,0,0,.19-1c0-.3,0-.53,0-.68a.09.09,0,0,1,.12-.09l.35.09.33.09q.11,0,.09.12c0,.06,0,.09-.11.1s-.1,0-.14.13a5.89,5.89,0,0,1-.7,1.27h.18c.15-.21.27-.33.35-.35a1.26,1.26,0,0,1,.45.35c0,.05,0,.08,0,.11s0,0-.09,0H8.45l-.14,0H8.17a.11.11,0,0,1-.1,0L8,10.7a.46.46,0,0,1-.14.14h0a1.64,1.64,0,0,1-.47.14q-.18.06-.18-.12c0-.16-.14-.28-.38-.36-.08,0-.13,0-.13-.07s.06,0,.14,0c.47.06.69,0,.65-.23s0-.28,0-.56a6.73,6.73,0,0,1-.78.44l-.13.07c0,.06-.08.08-.1.07s-.06,0-.09-.1-.09-.27-.14-.44,0-.12.12-.1a10.39,10.39,0,0,0,1.14-.09c0-.12,0-.26,0-.42H7.19v0l-.1.12c-.06.08-.12.1-.18.07a1,1,0,0,1-.26-.14A.18.18,0,0,0,6.56,9c-.08,0-.08-.11,0-.18a.29.29,0,0,0,.12-.26l.09-.66V7.76a1.58,1.58,0,0,0,0-.19.08.08,0,0,1,0-.09s0,0,.11,0l.5.13c.11,0,.11.11,0,.19a.12.12,0,0,0-.09.12l-.14,1H7.4l.21-1.74h-1s-.07,0-.08,0a.61.61,0,0,1-.07-.13s0,0,0,0l.48,0h.57a.11.11,0,0,0,0,0c.1-.14.17-.2.19-.19a1.53,1.53,0,0,1,.56.37.19.19,0,0,1-.07.14.14.14,0,0,0-.09.12L8,8.81l0,0a5.53,5.53,0,0,0,.61-1.45,2.81,2.81,0,0,0,.09-.59c0-.11,0-.15.14-.13l.24.06a2.41,2.41,0,0,1,.46.12c.07,0,.1,0,.1.1a.1.1,0,0,1-.09.11.25.25,0,0,0-.12.07A2.8,2.8,0,0,0,10.6,8.2q.09,0,.09.09s0,.07-.07.1a2.78,2.78,0,0,0-.32.35c0,.1-.11.11-.21,0L9.9,8.57Z"/></svg>