<svg id="图层_1" data-name="图层 1" xmlns="http://www.w3.org/2000/svg" viewBox="0 0 12 12"><defs><style>.cls-1{fill:#606266;}</style></defs><title>xx_</title><path d="M3.32,12A3.32,3.32,0,0,1,1,6.34L2.38,4.93l.6.53L1.57,6.94A2.53,2.53,0,0,0,.85,8.65a2.41,2.41,0,0,0,.72,1.78,2.45,2.45,0,0,0,1.74.73,2.5,2.5,0,0,0,1.75-.73L6.47,9l.6.53L5.66,11A3.28,3.28,0,0,1,3.32,12Z"/><polygon points="1.35 1.95 1.87 1.3 10.7 10.1 10.12 10.73 1.35 1.95"/><path d="M9,6.54l1.41-1.48a2.54,2.54,0,0,0,.73-1.71,2.48,2.48,0,0,0-.73-1.78A2.42,2.42,0,0,0,8.7.85a2.53,2.53,0,0,0-1.76.72L5.53,3l-.6-.53L6.34,1A3.32,3.32,0,0,1,11,5.66L9.59,7.1Z"/></svg>