<svg id="图层_1" data-name="图层 1" xmlns="http://www.w3.org/2000/svg" viewBox="0 0 12 12"><defs><style>.cls-1,.cls-2{fill:#606266;}.cls-2{fill-rule:evenodd;}</style></defs><title>线性-画板 247</title><path d="M8.64,0H3.35V2.82H8.65V0ZM8,2.16h-4V.64H8Z"/><rect x="2.54" y="3.74" width="6.6" height="0.8"/><rect x="2.54" y="5.84" width="3.3" height="0.8"/><rect x="9.67" y="6.24" width="0.64" height="3.18" transform="translate(-2.61 9.35) rotate(-44.98)"/><rect x="8.39" y="9.31" width="3.18" height="0.64" transform="translate(-3.89 9.88) rotate(-44.98)"/><rect x="5.26" y="8.41" width="5.75" height="0.64"/><polygon points="8.12 0.83 8.12 1.59 11.21 1.59 11.21 11.23 0.8 11.23 0.8 1.59 3.69 1.59 3.69 0.83 0 0.83 0 12 12 12 12 0.83 8.12 0.83"/></svg>