<svg id="图层_1" data-name="图层 1" xmlns="http://www.w3.org/2000/svg" viewBox="0 0 12 12"><defs><style>.cls-1,.cls-2{fill:#606266;}.cls-2{fill-rule:evenodd;}</style></defs><title>xx_</title><rect x="4.96" y="1.31" width="7.04" height="0.8"/><rect y="1.31" width="2.6" height="0.8"/><path d="M5,.5A1.65,1.65,0,0,0,3.8,0,1.64,1.64,0,0,0,2.6.5a1.65,1.65,0,0,0-.5,1.21,1.66,1.66,0,0,0,.5,1.21,1.64,1.64,0,0,0,1.2.5A1.65,1.65,0,0,0,5,2.92a1.66,1.66,0,0,0,.5-1.21A1.65,1.65,0,0,0,5,.5ZM4.45,2.35a.91.91,0,0,1-1.29,0,.87.87,0,0,1-.27-.64.88.88,0,0,1,.27-.65.91.91,0,0,1,1.29,0,.91.91,0,0,1,.26.65A.9.9,0,0,1,4.45,2.35Z"/><rect y="5.16" width="7.04" height="0.8"/><rect x="9.4" y="5.16" width="2.6" height="0.8"/><path d="M7,6.77A1.71,1.71,0,0,0,9.9,5.56,1.71,1.71,0,0,0,8.2,3.85,1.71,1.71,0,0,0,6.49,5.56,1.66,1.66,0,0,0,7,6.77Zm.56-1.85a.91.91,0,0,1,1.29,0,.85.85,0,0,1,.27.64.88.88,0,0,1-.27.65.93.93,0,0,1-1.29,0,.91.91,0,0,1-.26-.65A.88.88,0,0,1,7.55,4.92Z"/><rect x="4.96" y="9.89" width="7.04" height="0.8"/><rect y="9.89" width="2.6" height="0.8"/><path d="M5,9.08a1.65,1.65,0,0,0-1.21-.5,1.64,1.64,0,0,0-1.2.5,1.71,1.71,0,0,0,0,2.42,1.64,1.64,0,0,0,1.2.5A1.71,1.71,0,0,0,5,9.08Zm-.56,1.85a.91.91,0,0,1-1.29,0,.85.85,0,0,1-.27-.64.88.88,0,0,1,.27-.65.91.91,0,0,1,1.55.65A.88.88,0,0,1,4.45,10.93Z"/></svg>