<svg id="图层_1" data-name="图层 1" xmlns="http://www.w3.org/2000/svg" viewBox="0 0 12 12"><defs><style>.cls-1,.cls-2{fill:#606266;}.cls-2{fill-rule:evenodd;}</style></defs><title>xx_</title><path d="M6,.79A5.22,5.22,0,1,0,11.21,6,5.22,5.22,0,0,0,6,.79M6,12a6,6,0,0,1-2.33-.47A6,6,0,0,1,.47,3.67,6,6,0,0,1,1.76,1.76,5.89,5.89,0,0,1,3.67.48a6,6,0,0,1,4.66,0,5.76,5.76,0,0,1,1.91,1.29,6,6,0,0,1,1.29,1.9A6,6,0,0,1,12,6a6,6,0,0,1-.47,2.33,5.76,5.76,0,0,1-1.29,1.91A6,6,0,0,1,6,12"/><polygon points="6.51 2.93 3.94 8.64 2.9 8.64 5.49 2.93 6.51 2.93"/><polygon points="5.49 2.93 8.06 8.64 9.1 8.64 6.51 2.93 5.49 2.93"/><rect x="4.23" y="6.24" width="3.5" height="0.8"/></svg>