<?xml version="1.0" encoding="utf-8"?>
<!-- Generator: Adobe Illustrator 23.0.3, SVG Export Plug-In . SVG Version: 6.00 Build 0)  -->
<svg version="1.1" id="图层_1" xmlns="http://www.w3.org/2000/svg" xmlns:xlink="http://www.w3.org/1999/xlink" x="0px" y="0px"
	 width="12px" height="12px" viewBox="0 0 12 12" style="enable-background:new 0 0 12 12;" xml:space="preserve">
<style type="text/css">
	.st0{fill:#606266;}
	.st1{fill:#FAAF00;}
	.st2{fill:#299C2C;}
	.st3{fill:#BCD4F8;}
	.st4{fill:#A7C5EC;}
	.st5{fill:#F39700;}
	.st6{fill:#00699D;}
	.st7{fill:#FFFFFF;}
	.st8{fill-rule:evenodd;clip-rule:evenodd;fill:#606266;}
	.st9{fill:#ABABAB;}
	.st10{fill:#626262;}
</style>
<path class="st0" d="M8.6,0H3.4v0.4l0,2.4h0.3h4.6h0.3V2.4l0-2V0z M8,2.2h-4l0-1.5h4L8,2.2z"/>
<rect x="2.7" y="4.4" class="st8" width="6.6" height="0.8"/>
<rect x="2.7" y="6.5" class="st8" width="3.3" height="0.8"/>
<polygon class="st8" points="6.9,7.2 7.3,6.8 11.3,10.8 10.9,11.3 "/>
<path class="st0" d="M9.1,12c-0.4,0-0.8-0.1-1.1-0.2c-0.4-0.2-0.7-0.4-0.9-0.6c-0.3-0.3-0.5-0.6-0.6-0.9C6.2,9.8,6.1,9.4,6.1,9
	c0-0.4,0.1-0.8,0.2-1.2C6.5,7.5,6.7,7.2,7,6.9c0.3-0.3,0.6-0.5,0.9-0.6c0.4-0.2,0.7-0.2,1.1-0.2c0.4,0,0.8,0.1,1.1,0.2
	c0.4,0.2,0.7,0.4,0.9,0.6c0.3,0.3,0.5,0.6,0.6,0.9C11.9,8.3,12,8.6,12,9c0,0.4-0.1,0.8-0.2,1.2c-0.1,0.4-0.4,0.7-0.6,0.9
	c-0.3,0.3-0.6,0.5-0.9,0.6C9.8,11.9,9.5,12,9.1,12z M9.1,6.7C7.8,6.7,6.7,7.7,6.7,9s1.1,2.4,2.4,2.4c1.3,0,2.4-1.1,2.4-2.4
	S10.4,6.7,9.1,6.7z"/>
<g>
	<polygon class="st8" points="11.2,6.1 12,6.1 12,0.8 8.1,0.8 8.1,1.6 11.2,1.6 	"/>
	<polygon class="st8" points="6,11.2 0.8,11.2 0.8,1.6 3.7,1.6 3.7,0.8 0,0.8 0,12 6,12 	"/>
</g>
</svg>
