<?xml version="1.0" encoding="utf-8"?>
<!-- Generator: Adobe Illustrator 23.0.3, SVG Export Plug-In . SVG Version: 6.00 Build 0)  -->
<svg version="1.1" id="图层_1" xmlns="http://www.w3.org/2000/svg" xmlns:xlink="http://www.w3.org/1999/xlink" x="0px" y="0px"
	 viewBox="0 0 12 12" style="enable-background:new 0 0 12 12;" xml:space="preserve">
<rect x="0.4" y="3.9" width="9" height="0.8"/>
<rect x="0.4" y="0.7" width="11.1" height="0.8"/>
<rect x="0.4" y="7.2" width="5.4" height="0.8"/>
<rect x="0.4" y="10.5" width="4.2" height="0.8"/>
<g>
	<rect x="8.6" y="7" width="0.4" height="2.2"/>
	<rect x="8.6" y="8.8" width="2.3" height="0.4"/>
	<path d="M8.9,12.1c-0.4,0-0.8-0.1-1.2-0.2c-0.4-0.2-0.7-0.4-1-0.7c-0.3-0.3-0.5-0.6-0.7-1
		C5.9,9.8,5.8,9.4,5.8,9c0-0.4,0.1-0.8,0.2-1.2c0.2-0.4,0.4-0.7,0.7-1c0.3-0.3,0.6-0.5,1-0.7C8.1,6,8.5,5.9,8.9,5.9
		c0.4,0,0.8,0.1,1.2,0.2c0.4,0.2,0.7,0.4,1,0.7c0.3,0.3,0.5,0.6,0.7,1C11.9,8.2,12,8.6,12,9c0,0.4-0.1,0.8-0.2,1.2
		c-0.2,0.4-0.4,0.7-0.7,1c-0.3,0.3-0.6,0.5-1,0.7C9.7,12,9.3,12.1,8.9,12.1z M8.9,6.5C7.5,6.5,6.4,7.6,6.4,9s1.1,2.5,2.5,2.5
		s2.5-1.1,2.5-2.5S10.3,6.5,8.9,6.5z"/>
</g>
</svg>
