<?xml version="1.0" encoding="utf-8"?>
<!-- Generator: Adobe Illustrator 23.0.3, SVG Export Plug-In . SVG Version: 6.00 Build 0)  -->
<svg version="1.1" id="图层_1" xmlns="http://www.w3.org/2000/svg" xmlns:xlink="http://www.w3.org/1999/xlink" x="0px" y="0px"
	 viewBox="0 0 12 12" style="enable-background:new 0 0 12 12;" xml:space="preserve">
<path d="M6.7,11H1.1l-0.2,0V1.2l0-0.1h3.8l1.5,1.8l0,0h4.9v3.6l0,0.3H12V6.4V2.8V1.9H6.7L5.1,0.1H5H0v1v9.7v1
	h6.7"/>
<rect x="6.4" y="0.7" style="fill:#606266;" width="4.1" height="0.8"/>
<polyline points="9.4,6.5 11.6,8.8 11.2,9.2 8.9,7 "/>
<polyline points="8.9,10.6 11.2,8.3 11.6,8.8 9.4,11 "/>
<polyline points="5.6,8.5 11.3,8.5 11.3,9.1 5.6,9.1 "/>
</svg>
