<svg id="图层_1" data-name="图层 1" xmlns="http://www.w3.org/2000/svg" viewBox="0 0 12 12"><defs><style>.cls-1,.cls-2{fill:#606266;}.cls-1{fill-rule:evenodd;}</style></defs><title>xx_</title><polygon points="10 0 10 5.1 9.2 5.1 9.2 0.83 0.79 0.83 0.79 9.17 4.48 9.17 4.48 10 0 10 0 0 10 0"/><rect x="3" y="2.04" width="4" height="0.8"/><rect x="3" y="4.14" width="4" height="0.8"/><rect x="9.1" y="8.64" width="0.8" height="3.36"/><rect x="6.99" y="8.5" width="5.01" height="0.8"/><rect x="6.99" y="10.29" width="5.01" height="0.8"/><polygon points="9.5 9.38 7.27 6.86 7.87 6.31 10.05 8.73 9.5 9.38"/><polygon points="8.92 8.79 11 6.31 11.61 6.86 9.5 9.38 8.92 8.79"/></svg>