<svg id="图层_1" data-name="图层 1" xmlns="http://www.w3.org/2000/svg" viewBox="0 0 12 12"><defs><style>.cls-1{fill:#606266;}</style></defs><title>xx_</title><path d="M8.85,5.28A3,3,0,0,0,7.5,3.47,3,3,0,0,0,3.12,6.71,3,3,0,0,0,4.47,8.52,2.9,2.9,0,0,0,6,9a3,3,0,0,0,.72-.09A3,3,0,0,0,8.85,5.28Zm-2.29,3A2.39,2.39,0,0,1,5.41,3.68,2.22,2.22,0,0,1,6,3.61a2.39,2.39,0,0,1,.58,4.7Zm0,0"/><path d="M4.75,11.86A5.44,5.44,0,0,0,5.88,12H6a6.33,6.33,0,0,0,1.66-.23l.24-.07,0-.25a1.65,1.65,0,0,1,.36-1.32,1.62,1.62,0,0,1,1-.57,1.66,1.66,0,0,1,1.11.22l.21.13.16-.19a6.18,6.18,0,0,0,.91-1.62h0a6.41,6.41,0,0,0,.23-.78l.06-.24L11.65,7a1.63,1.63,0,0,1-1-2.1A1.61,1.61,0,0,1,11.38,4l.22-.12-.1-.23h0a6.59,6.59,0,0,0-.44-.83h0a5.64,5.64,0,0,0-.46-.63h0l-.1-.12-.16-.19L10.14,2A1.65,1.65,0,0,1,9,2.3a1.68,1.68,0,0,1-1-.52A1.64,1.64,0,0,1,7.58.48l0-.25L7.37.17A6,6,0,0,0,6.44,0h0A5.55,5.55,0,0,0,4.72.14l-.25,0,0,.25a1.71,1.71,0,0,1-.29,1.1,1.71,1.71,0,0,1-1,.65,1.65,1.65,0,0,1-1.35-.25l-.2-.15L1.54,2A5.26,5.26,0,0,0,.82,3h0A6.65,6.65,0,0,0,.17,4.54l-.06.24.24.09a1.63,1.63,0,0,1,1,1A1.63,1.63,0,0,1,1.29,7a1.61,1.61,0,0,1-.75.85L.32,8l.09.23a4.68,4.68,0,0,0,.2.45h0c.09.17.18.34.28.51h0v0c.09.15.2.3.3.44h0c.1.14.22.28.34.42l.17.18.2-.15a1.65,1.65,0,0,1,2.6,1.48l0,.25Zm-.28-2a2.2,2.2,0,0,0-2.65-.39,5.67,5.67,0,0,1-.42-.58l0,0,0,0A4.89,4.89,0,0,1,1,8.21a2.13,2.13,0,0,0,.79-1,2.15,2.15,0,0,0,0-1.54A2.25,2.25,0,0,0,.78,4.45a5.51,5.51,0,0,1,.64-1.39h0a4.6,4.6,0,0,1,.38-.52,2.22,2.22,0,0,0,1.6.2,2.17,2.17,0,0,0,1.27-.87A2.13,2.13,0,0,0,5.06.64,5.69,5.69,0,0,1,5.77.57H6a5,5,0,0,1,1,.1A2.19,2.19,0,0,0,7.6,2.16,2.16,2.16,0,0,0,9,2.85a2.21,2.21,0,0,0,1.26-.23c.12.16.24.32.35.49h0a3.5,3.5,0,0,1,.29.54,2.18,2.18,0,0,0-.76,1,2.18,2.18,0,0,0,1.1,2.72,5.2,5.2,0,0,1-.59,1.39h0c-.08.13-.16.25-.25.37a2.23,2.23,0,0,0-2.61.58,2.23,2.23,0,0,0-.52,1.52,5,5,0,0,1-1.14.15h0a6,6,0,0,1-1-.07,2.24,2.24,0,0,0-.63-1.48Zm0,0"/></svg>