<svg id="图层_1" data-name="图层 1" xmlns="http://www.w3.org/2000/svg" viewBox="0 0 12 12"><defs><style>.cls-1,.cls-2{fill:#606266;}.cls-1{fill-rule:evenodd;}</style></defs><title>xx_</title><polygon points="12 0 12 6.35 11.2 6.35 11.2 0.83 0.79 0.83 0.79 5.53 11.2 5.53 11.2 6.35 0 6.35 0 0 12 0"/><polygon points="5.67 8.43 5.67 12 5.05 12 5.05 9.07 1.7 9.07 1.7 11.36 5.05 11.36 5.05 12 1.09 12 1.09 8.43 5.67 8.43"/><rect x="2.25" y="5.57" width="0.8" height="3.31"/><polygon points="12 8.43 12 12 11.39 12 11.39 9.07 8.03 9.07 8.03 11.36 11.39 11.36 11.39 12 7.43 12 7.43 8.43 12 8.43"/><rect x="8.71" y="5.74" width="0.8" height="3.31"/></svg>