<svg id="图层_1" data-name="图层 1" xmlns="http://www.w3.org/2000/svg" viewBox="0 0 12 12"><defs><style>.cls-1{fill:#606266;}</style></defs><title>xx_</title><rect x="5.6" y="2.15" width="0.8" height="7.69" transform="translate(-2.48 6) rotate(-44.99)"/><rect x="2.16" y="5.6" width="7.69" height="0.8" transform="translate(-2.48 6) rotate(-45.01)"/><path d="M6,.79A5.21,5.21,0,1,0,11.21,6,5.21,5.21,0,0,0,6,.79M6,12a6,6,0,0,1-2.33-.47A6,6,0,0,1,.47,3.66,6.06,6.06,0,0,1,3.67.46,6.13,6.13,0,0,1,6,0,6,6,0,0,1,8.33.47a5.76,5.76,0,0,1,1.91,1.29,6,6,0,0,1,1.29,1.9,6,6,0,0,1,0,4.67,5.76,5.76,0,0,1-1.29,1.91A6,6,0,0,1,6,12"/></svg>