<svg id="图层_1" data-name="图层 1" xmlns="http://www.w3.org/2000/svg" viewBox="0 0 12 12"><defs><style>.cls-1,.cls-2{fill:#606266;}.cls-2{fill-rule:evenodd;}</style></defs><title>xx_</title><rect x="2.34" y="3.2" width="7.37" height="0.8"/><rect x="4.18" y="8.99" width="4.27" height="0.8"/><rect x="4.18" y="3.89" width="0.8" height="5.78"/><path d="M11.57,2.56a1.41,1.41,0,0,0-1-.42A1.45,1.45,0,0,0,9.07,3.6a1.45,1.45,0,0,0,1.47,1.46A1.45,1.45,0,0,0,12,3.6,1.4,1.4,0,0,0,11.57,2.56ZM11,4.06a.62.62,0,0,1-.46.19.64.64,0,0,1-.47-.19.66.66,0,0,1-.19-.46.65.65,0,0,1,.66-.66.66.66,0,0,1,.46.19.64.64,0,0,1,.19.47A.62.62,0,0,1,11,4.06Z"/><path d="M2.5,2.56a1.43,1.43,0,0,0-1-.42,1.41,1.41,0,0,0-1,.42A1.4,1.4,0,0,0,0,3.6a1.4,1.4,0,0,0,.43,1,1.41,1.41,0,0,0,1,.42A1.45,1.45,0,0,0,2.93,3.6,1.44,1.44,0,0,0,2.5,2.56Zm-.57,1.5a.64.64,0,0,1-.47.19A.62.62,0,0,1,1,4.06.62.62,0,0,1,.81,3.6.64.64,0,0,1,1,3.13a.66.66,0,0,1,.46-.19.68.68,0,0,1,.47.19.68.68,0,0,1,.19.47A.66.66,0,0,1,1.93,4.06Z"/><path d="M10.58,8.35a1.41,1.41,0,0,0-1-.42,1.46,1.46,0,0,0-1,2.49,1.4,1.4,0,0,0,1,.43A1.47,1.47,0,0,0,11,9.39,1.4,1.4,0,0,0,10.58,8.35ZM10,9.85a.62.62,0,0,1-.46.19.63.63,0,0,1-.47-.19.66.66,0,0,1,0-.93.63.63,0,0,1,.47-.19.62.62,0,0,1,.46.19.63.63,0,0,1,.19.47A.62.62,0,0,1,10,9.85Z"/></svg>