<?xml version="1.0" encoding="utf-8"?>
<!-- Generator: Adobe Illustrator 23.0.3, SVG Export Plug-In . SVG Version: 6.00 Build 0)  -->
<svg version="1.1" id="图层_1" xmlns="http://www.w3.org/2000/svg" xmlns:xlink="http://www.w3.org/1999/xlink" x="0px" y="0px"
	 viewBox="0 0 12 12" style="enable-background:new 0 0 12 12;" xml:space="preserve">
<g>
	<path d="M2,10C0.9,9,0.9,7.2,2.1,6l3.9-4C7.1,0.9,8.9,0.9,10,2s1.1,2.9,0,4L9.6,6.3C9.6,6.3,9.5,6.4,9.4,6.4
		c-0.1,0-0.2,0-0.2-0.1C9.1,6.2,9.1,6.1,9.1,6.1c0-0.1,0-0.2,0.1-0.2l0.3-0.3c0.8-0.9,0.9-2.2,0-3c-0.8-0.8-2.2-0.8-3,0.1l-3.9,4
		c-0.8,0.9-0.9,2.2,0,3c0.8,0.8,2.2,0.8,3-0.1l1.3-1.3C7,8,7.2,8,7.3,8.1c0.1,0.1,0.1,0.3,0,0.5L6,9.9C4.9,11.1,3.1,11.1,2,10"/>
	<path d="M3.7,7.6C3.6,7.6,3.6,7.5,3.6,7.4c0-0.1,0-0.2,0.1-0.2l1.4-1.4C5.8,5,7,5,7.7,5.7
		c0.7,0.7,0.7,1.9,0,2.6L7,8.9C6.9,9,6.7,9.1,6.6,8.9C6.5,8.9,6.5,8.8,6.5,8.7c0-0.1,0-0.2,0.1-0.2l0.6-0.6c0.5-0.5,0.5-1.2,0-1.6
		C6.8,5.7,6,5.8,5.6,6.2L4.2,7.6C4.1,7.7,4,7.7,3.9,7.7C3.9,7.7,3.8,7.7,3.7,7.6"/>
</g>
</svg>
