<svg id="图层_1" data-name="图层 1" xmlns="http://www.w3.org/2000/svg" viewBox="0 0 12 12"><defs><style>.cls-1{fill:#606266;}</style></defs><title>xx_</title><path d="M6.79,12s0,0,0,0l-1.29-.78s0,0,0,0c.12-.25,1.28-2.69,1.16-2.57a17.49,17.49,0,0,0-1.53,1.85L4.73,11A9.72,9.72,0,0,1,3,9.47a0,0,0,0,1,0,0c.27-.33,1.71-2.2,1.71-2.2L2.23,8.71h0A12.87,12.87,0,0,1,1,7.25a0,0,0,0,1,0,0l1.54-1.3L.72,6.57s0,0,0,0L0,5.28s0,0,0,0A15,15,0,0,0,4.39,3.7a.07.07,0,0,1,.1,0l3.8,3.8a.08.08,0,0,1,0,.1A11.09,11.09,0,0,0,6.79,12Z"/><path d="M11.74,1.6,9.33,4a.31.31,0,0,1,0,.09,2.25,2.25,0,0,1-.25,2.82.07.07,0,0,1-.09,0L5.17,3.1a.06.06,0,0,1,0-.09A2.27,2.27,0,0,1,8,2.75h.09L10.49.34a.88.88,0,0,1,1.25,0A.89.89,0,0,1,11.74,1.6Z"/></svg>