<svg id="图层_1" data-name="图层 1" xmlns="http://www.w3.org/2000/svg" viewBox="0 0 12 12"><defs><style>.cls-1,.cls-2{fill:#606266;}.cls-2{fill-rule:evenodd;}</style></defs><title>xx_</title><rect x="2.8" y="2.09" width="3" height="0.8"/><polygon points="10.51 4.01 7.01 0 8.08 0 11.12 3.49 10.51 4.01"/><rect x="2.8" y="4.39" width="3" height="0.8"/><rect x="6.83" y="0.83" width="0.8" height="3.46"/><polygon points="10.32 3.49 10.32 11.17 1.77 11.17 1.77 0.83 7.63 0.83 7.63 0 0.97 0 0.97 12 11.12 12 11.12 3.49 10.32 3.49"/><rect x="7.63" y="3.49" width="3.48" height="0.8"/><polygon points="5.11 10.31 3.11 8.38 3.69 7.75 5.74 9.7 5.11 10.31"/><polygon points="4.49 9.71 8.24 6.04 8.83 6.69 5.11 10.31 4.49 9.71"/></svg>