<svg id="图层_1" data-name="图层 1" xmlns="http://www.w3.org/2000/svg" viewBox="0 0 12 12"><defs><style>.cls-1{fill:#606266;}</style></defs><title>xx_</title><path d="M12,6.48a.28.28,0,0,0,0-.13l0,0,0-.05h0L9,5.09V1.56a.2.2,0,0,0,0-.13l0,0,0,0L6.09.14a.23.23,0,0,0-.2,0L3.16,1.33l-.05,0,0,0A.29.29,0,0,0,3,1.55V5.09L.16,6.25h0l0,0,0,0a.28.28,0,0,0,0,.13H0v3.91a.25.25,0,0,0,.16.27l3,1.24h.1a.17.17,0,0,0,.1,0L6,10.67l2.65,1.19a.23.23,0,0,0,.2,0l3-1.24a.25.25,0,0,0,.15-.23V6.48ZM2.83,11,.67,10.07V7.15l.07,0L2.83,8Zm.41-3.67-2-.81,2-.8L5,6.48Zm2.34,2.8L3.64,11V8l1.94-.87Zm0-4.27L3.65,5V2.21L5,2.78l.64.27ZM4.28,1.56,6,.81l1.72.73L6,2.3Zm4.05.69V4.94L6.4,5.79V3.07Zm0,8.71-2-.87V7.16l2,.87Zm.41-3.67L7.89,6.9l-1-.43H7l1.82-.81,2,.82-.95.38Zm2.57,2.78L9.16,11V8l2.16-.89Z"/></svg>