<svg id="图层_1" data-name="图层 1" xmlns="http://www.w3.org/2000/svg" viewBox="0 0 12 12"><defs><style>.cls-1,.cls-2{fill:#606266;}.cls-2{fill-rule:evenodd;}</style></defs><title>xx_</title><path d="M1.31,10.53A.31.31,0,0,1,1,10.22V.31A.31.31,0,0,1,1.31,0H8.13a.31.31,0,0,1,.31.31V4.22a4,4,0,0,0-.58.07V3.53H6.15V5a4.54,4.54,0,0,0-.65.54c-.06.06-.11.13-.16.19v0H3.86V7.45h.56a4,4,0,0,0-.11.5H3.86V9.66h.51a3.47,3.47,0,0,0,.19.57,1.94,1.94,0,0,0,.13.3Zm.27-.87H3.29V8H1.58Zm0-2.21H3.29V5.74H1.58ZM3.86,5.24H5.57V3.53H3.86Zm-2.28,0H3.29V3.53H1.58Zm0-2.48H7.86V.65H1.58Z"/><rect x="8.36" y="8.12" width="0.8" height="3.36"/><rect x="6.25" y="7.98" width="5.01" height="0.8"/><rect x="6.25" y="9.77" width="5.01" height="0.8"/><polygon points="8.76 8.86 6.54 6.33 7.13 5.79 9.31 8.21 8.76 8.86"/><polygon points="8.18 8.27 10.26 5.79 10.87 6.34 8.76 8.86 8.18 8.27"/></svg>