<svg id="图层_1" data-name="图层 1" xmlns="http://www.w3.org/2000/svg" viewBox="0 0 12 12"><defs><style>.cls-1,.cls-2{fill:#606266;}.cls-2{fill-rule:evenodd;}</style></defs><title>xx_</title><rect x="4.63" y="4.28" width="0.8" height="3.36"/><rect x="2.52" y="4.14" width="5.01" height="0.8"/><rect x="2.52" y="5.93" width="5.01" height="0.8"/><polygon points="5.03 5.03 2.8 2.5 3.4 1.96 5.57 4.38 5.03 5.03"/><polygon points="4.45 4.44 6.53 1.96 7.13 2.51 5.03 5.03 4.45 4.44"/><rect x="9.68" y="7.77" width="0.8" height="4.62" transform="translate(-4.17 10.08) rotate(-45)"/><rect x="8.16" y="8.14" width="3.35" height="0.86"/><rect x="8.16" y="8.14" width="0.86" height="3.36"/><polygon points="10 0 10 5.1 9.2 5.1 9.2 0.83 0.79 0.83 0.79 9.17 4.48 9.17 4.48 10 0 10 0 0 10 0"/></svg>