<svg id="图层_1" data-name="图层 1" xmlns="http://www.w3.org/2000/svg" viewBox="0 0 12 12"><defs><style>.cls-1{fill:#606266;}</style></defs><title>xx_</title><rect x="11" y="1" width="0.8" height="2.08"/><rect x="8.83" y="3.09" width="2.97" height="0.8"/><path d="M11,7.68a5.2,5.2,0,1,1-.6-4.59h.9a5.47,5.47,0,0,0-1-1.33A6,6,0,0,0,8.46.47,6,6,0,0,0,6.12,0,6,6,0,0,0,.59,3.66a6,6,0,0,0,0,4.67,6.06,6.06,0,0,0,3.2,3.2A6,6,0,0,0,6.12,12a6,6,0,0,0,2.34-.47,6,6,0,0,0,1.9-1.29,5.82,5.82,0,0,0,1.29-1.9c.09-.22.16-.44.23-.66Z"/><path d="M4.22,9.1a1,1,0,0,1-1-1V6.32a1,1,0,0,1,1-1h.31V4.37a1.5,1.5,0,0,1,3,0v.94H7.8a1,1,0,0,1,1,1V8.1a1,1,0,0,1-1,1Zm0-3A.26.26,0,0,0,4,6.33v1.8a.26.26,0,0,0,.26.25H7.78A.26.26,0,0,0,8,8.13V6.33a.26.26,0,0,0-.26-.25Zm2.52-.77V4.37a.72.72,0,0,0-1.43,0v.94Z"/></svg>