<svg id="图层_1" data-name="图层 1" xmlns="http://www.w3.org/2000/svg" viewBox="0 0 12 12"><defs><style>.cls-1,.cls-2{fill:#606266;}.cls-2{fill-rule:evenodd;}</style></defs><title>xx_</title><rect x="9.2" y="6.6" width="0.8" height="6" transform="translate(-3.97 9.6) rotate(-45)"/><rect x="6.6" y="9.2" width="6" height="0.8" transform="translate(-3.97 9.6) rotate(-45)"/><polygon points="6 12 0 9 0 8.11 6 11.11 6 12"/><polygon points="6 9.72 0 6.72 0 5.84 6 8.84 6 9.72"/><polygon points="6 7.01 0 4.01 0 3.12 6 6.12 6 7.01"/><polygon points="6 7.01 12 4.01 12 3.12 6 6.12 6 7.01"/><polygon points="6 0 12 3 12 3.89 6 0.89 6 0"/><polygon points="6 0 0 3 0 3.89 6 0.89 6 0"/></svg>