<svg id="图层_1" data-name="图层 1" xmlns="http://www.w3.org/2000/svg" viewBox="0 0 12 12"><defs><style>.cls-1,.cls-2{fill:#606266;}.cls-2{fill-rule:evenodd;}</style></defs><title>xx_</title><path d="M6,.79A5.21,5.21,0,1,0,11.21,6,5.22,5.22,0,0,0,6,.79M6,12a6,6,0,0,1-2.34-.47,6,6,0,0,1-1.9-1.29A5.91,5.91,0,0,1,.47,8.33a6,6,0,0,1,0-4.67,5.82,5.82,0,0,1,1.29-1.9A6,6,0,0,1,3.66.47a6.06,6.06,0,0,1,4.68,0,6,6,0,0,1,1.9,1.29,5.91,5.91,0,0,1,1.29,1.91,6,6,0,0,1,0,4.67,5.82,5.82,0,0,1-1.29,1.9,6,6,0,0,1-1.9,1.29A6,6,0,0,1,6,12"/><path d="M6,3.71A2.29,2.29,0,1,0,8.29,6,2.3,2.3,0,0,0,6,3.71M6,9.08a3.06,3.06,0,0,1-1.2-.24A3.08,3.08,0,0,1,3.16,7.2,3.1,3.1,0,0,1,2.92,6a3.06,3.06,0,0,1,.24-1.2A3.08,3.08,0,0,1,4.8,3.16a3.12,3.12,0,0,1,2.4,0,3,3,0,0,1,1,.66A3.1,3.1,0,0,1,8.84,7.2,3.08,3.08,0,0,1,7.2,8.84,3.06,3.06,0,0,1,6,9.08"/><path d="M6,2.92a2.58,2.58,0,0,1,.4,0V.24H5.6V3A2.58,2.58,0,0,1,6,2.92Z"/><path d="M6,9.08a2.58,2.58,0,0,1-.4,0v2.72h.8V9A2.58,2.58,0,0,1,6,9.08Z"/><path d="M2.92,6a2.58,2.58,0,0,1,0-.4H.24v.8H3A2.58,2.58,0,0,1,2.92,6Z"/><path d="M9,5.6a2.71,2.71,0,0,1,0,.4,2.58,2.58,0,0,1,0,.4h2.72V5.6Z"/></svg>