<?xml version="1.0" encoding="utf-8"?>
<!-- Generator: Adobe Illustrator 23.0.3, SVG Export Plug-In . SVG Version: 6.00 Build 0)  -->
<svg version="1.1" id="图层_1" xmlns="http://www.w3.org/2000/svg" xmlns:xlink="http://www.w3.org/1999/xlink" x="0px" y="0px"
	 viewBox="0 0 12 12" style="enable-background:new 0 0 12 12;" xml:space="preserve">
<rect x="1.7" y="3.1" width="3.4" height="0.8"/>
<rect x="1.7" y="5.4" width="5.1" height="0.8"/>
<polygon points="10.9,4 7.3,0 8.3,0 11.5,3.5 "/>
<rect x="7.1" y="0.8" width="0.8" height="3.5"/>
<rect x="7.9" y="3.5" width="3.5" height="0.8"/>
<g>
	<rect x="10.7" y="3.5" width="0.8" height="3"/>
	<polygon points="5.9,11.2 1.2,11.2 1.2,0.8 8,0.8 8,0 0.4,0 0.4,12 
		5.9,12 	"/>
</g>
<path d="M10.7,8.5l-2.3,2.4c-0.1,0.1-0.1,0.2-0.1,0.3l-0.2,0.7c0,0.1,0,0.1,0.1,0.2c0,0,0.1,0.1,0.2,0L9,11.8
	c0.1,0,0.1-0.1,0.2-0.1l2.3-2.4c0.2-0.2,0.2-0.5,0-0.7l-0.1-0.1c-0.1-0.1-0.2-0.2-0.4-0.2C10.9,8.3,10.8,8.4,10.7,8.5L10.7,8.5z"/>
<polygon points="11.5,6.5 5.9,12 5.3,11.4 11,5.9 "/>
</svg>
