<?xml version="1.0" encoding="utf-8"?>
<!-- Generator: Adobe Illustrator 23.0.3, SVG Export Plug-In . SVG Version: 6.00 Build 0)  -->
<svg version="1.1" id="图层_1" xmlns="http://www.w3.org/2000/svg" xmlns:xlink="http://www.w3.org/1999/xlink" x="0px" y="0px"
	 width="12px" height="12px" viewBox="0 0 12 12" style="enable-background:new 0 0 12 12;" xml:space="preserve">
<style type="text/css">
	.st0{fill:#606266;}
	.st1{fill:#FAAF00;}
	.st2{fill:#299C2C;}
	.st3{fill:#BCD4F8;}
	.st4{fill:#A7C5EC;}
	.st5{fill:#F39700;}
	.st6{fill:#00699D;}
	.st7{fill:#FFFFFF;}
	.st8{fill-rule:evenodd;clip-rule:evenodd;fill:#606266;}
	.st9{fill:#ABABAB;}
	.st10{fill:#626262;}
</style>
<path class="st0" d="M8.6,0.1H3.4v0.4l0,2.4h0.3h4.6h0.3V2.5l0-2V0.1z M8,2.2h-4l0-1.5h4L8,2.2z"/>
<rect x="2.7" y="4.4" class="st8" width="6.6" height="0.8"/>
<rect x="2.7" y="6.5" class="st8" width="6.6" height="0.8"/>
<rect x="2.7" y="8.7" class="st8" width="3.3" height="0.8"/>
<polygon class="st8" points="8.1,0.9 8.1,1.6 11.2,1.6 11.2,11.3 0.8,11.3 0.8,1.6 3.7,1.6 3.7,0.9 0,0.9 0,12.1 12,12.1 12,0.9 "/>
</svg>
