<?xml version="1.0" encoding="utf-8"?>
<!-- Generator: Adobe Illustrator 23.0.3, SVG Export Plug-In . SVG Version: 6.00 Build 0)  -->
<svg version="1.1" id="图层_1" xmlns="http://www.w3.org/2000/svg" xmlns:xlink="http://www.w3.org/1999/xlink" x="0px" y="0px"
	 viewBox="0 0 12 12" style="enable-background:new 0 0 12 12;" xml:space="preserve">
<g>
	<rect x="5" y="6.3" style="fill-rule:evenodd;clip-rule:evenodd;fill:#606266;" width="0.8" height="3.3"/>
	<rect x="2.9" y="6.2" style="fill-rule:evenodd;clip-rule:evenodd;fill:#606266;" width="5" height="0.8"/>
	<rect x="2.9" y="8" style="fill-rule:evenodd;clip-rule:evenodd;fill:#606266;" width="5" height="0.8"/>
	<g>
		<polygon style="fill-rule:evenodd;clip-rule:evenodd;fill:#606266;" points="5.4,7.1 3.2,4.5 3.8,4 6,6.4 		"/>
		<polygon style="fill-rule:evenodd;clip-rule:evenodd;fill:#606266;" points="4.8,6.5 6.9,4 7.5,4.5 5.4,7.1 		"/>
	</g>
</g>
<path style="fill:#606266;" d="M11.2,5.8c0,0.1,0,0.1,0,0.2c0,2.9-2.3,5.2-5.2,5.2c-2.9,0-5.2-2.3-5.2-5.2c0-2.9,2.3-5.2,5.2-5.2V0
	C5.2,0,4.4,0.2,3.7,0.5C3,0.8,2.3,1.2,1.8,1.8C1.2,2.3,0.8,3,0.5,3.7C0.2,4.4,0,5.2,0,6s0.2,1.6,0.5,2.3C0.8,9,1.2,9.7,1.8,10.2
	c0.5,0.6,1.2,1,1.9,1.3C4.4,11.8,5.2,12,6,12c0.8,0,1.6-0.2,2.3-0.5c0.7-0.3,1.4-0.7,1.9-1.3c0.6-0.5,1-1.2,1.3-1.9
	C11.8,7.6,12,6.8,12,6c0-0.1,0-0.1,0-0.2H11.2z"/>
<rect x="8.4" y="3" style="fill-rule:evenodd;clip-rule:evenodd;fill:#606266;" width="3.3" height="0.7"/>
<rect x="8.4" y="0.3" style="fill-rule:evenodd;clip-rule:evenodd;fill:#606266;" width="0.7" height="3.3"/>
<rect x="8" y="1.5" transform="matrix(0.7071 -0.7071 0.7071 0.7071 1.6745 7.7785)" style="fill-rule:evenodd;clip-rule:evenodd;fill:#606266;" width="4.4" height="0.7"/>
</svg>
