<svg id="图层_1" data-name="图层 1" xmlns="http://www.w3.org/2000/svg" viewBox="0 0 12 12"><defs><style>.cls-1{fill:#606266;}</style></defs><title>xx_</title><path d="M9.26,9a2,2,0,0,0,.28-4l-.28,0H8.71V4.82a2.86,2.86,0,0,0-.07-.75A2.77,2.77,0,0,0,6,1.73,2.77,2.77,0,0,0,3.35,4.07a3.13,3.13,0,0,0-.08.66v.11l-.1.09H2.74L2.47,5a2,2,0,0,0,.27,4h.07v.77H2.74A2.79,2.79,0,0,1,2.5,4.18h.06V4.12A3.56,3.56,0,0,1,6,1,3.56,3.56,0,0,1,9.43,4.12v.06H9.5a2.79,2.79,0,0,1-.24,5.56"/><rect x="5.84" y="5.65" width="0.76" height="5.43"/><rect x="6.82" y="5.01" width="0.82" height="3.65" transform="translate(-2.72 7.12) rotate(-45)"/><rect x="3.35" y="6.45" width="3.72" height="0.82" transform="translate(-3.33 5.69) rotate(-45)"/></svg>