<svg xmlns="http://www.w3.org/2000/svg" viewBox="0 0 12 12"><defs><style>.cls-1,.cls-2{fill:#606266;}.cls-2{fill-rule:evenodd;}</style></defs><title>线性_审核</title><g id="图层_2" data-name="图层 2"><g id="图层_1-2" data-name="图层 1"><path d="M11.57,12a.43.43,0,0,1-.3-.13L9.73,10.12l-.09.08a3.35,3.35,0,0,1-2.08.72,3.41,3.41,0,1,1,2.8-1.52l-.06.1,1.58,1.8a.41.41,0,0,1-.31.7Zm-4-7.09a2.6,2.6,0,1,0,2.56,2.6A2.58,2.58,0,0,0,7.56,4.91Z"/><polygon points="5.71 11.21 0.83 11.21 0.83 0.8 11.17 0.8 11.17 5.71 12 5.71 12 0 0 0 0 12 5.71 12 5.71 11.21"/></g></g></svg>