<?xml version="1.0" encoding="utf-8"?>
<!-- Generator: Adobe Illustrator 23.0.3, SVG Export Plug-In . SVG Version: 6.00 Build 0)  -->
<svg version="1.1" id="图层_1" xmlns="http://www.w3.org/2000/svg" xmlns:xlink="http://www.w3.org/1999/xlink" x="0px" y="0px"
	 width="12px" height="12px" viewBox="0 0 12 12" style="enable-background:new 0 0 12 12;" xml:space="preserve">
<style type="text/css">
	.st0{fill:#606266;}
	.st1{fill:#FAAF00;}
	.st2{fill:#299C2C;}
	.st3{fill:#BCD4F8;}
	.st4{fill:#A7C5EC;}
	.st5{fill:#F39700;}
	.st6{fill:#00699D;}
	.st7{fill:#FFFFFF;}
	.st8{fill-rule:evenodd;clip-rule:evenodd;fill:#606266;}
	.st9{fill:#ABABAB;}
	.st10{fill:#626262;}
</style>
<g>
	<rect x="5.6" y="2.2" transform="matrix(0.7072 -0.707 0.707 0.7072 -2.4853 5.9988)" class="st8" width="0.8" height="7.7"/>
	<rect x="2.2" y="5.6" transform="matrix(0.707 -0.7072 0.7072 0.707 -2.4853 6.0012)" class="st8" width="7.7" height="0.8"/>
	<path class="st0" d="M6,0.8C3.1,0.8,0.8,3.1,0.8,6c0,2.9,2.3,5.2,5.2,5.2c2.9,0,5.2-2.3,5.2-5.2C11.2,3.1,8.9,0.8,6,0.8 M6,12
		c-0.8,0-1.6-0.2-2.3-0.5c-0.7-0.3-1.4-0.7-1.9-1.3C1.2,9.7,0.8,9,0.5,8.3C0.2,7.6,0,6.8,0,6c0-0.8,0.2-1.6,0.5-2.3
		c0.3-0.7,0.7-1.4,1.3-1.9c0.5-0.5,1.2-1,1.9-1.3C4.4,0.2,5.2,0,6,0c0.8,0,1.6,0.2,2.3,0.5C9,0.8,9.7,1.2,10.2,1.8
		c0.5,0.6,1,1.2,1.3,1.9C11.8,4.4,12,5.2,12,6c0,0.8-0.2,1.6-0.5,2.3c-0.3,0.7-0.7,1.4-1.3,1.9c-0.5,0.5-1.2,1-1.9,1.3
		C7.6,11.8,6.8,12,6,12"/>
</g>
</svg>
