<?xml version="1.0" encoding="utf-8"?>
<!-- Generator: Adobe Illustrator 23.0.3, SVG Export Plug-In . SVG Version: 6.00 Build 0)  -->
<svg version="1.1" id="图层_1" xmlns="http://www.w3.org/2000/svg" xmlns:xlink="http://www.w3.org/1999/xlink" x="0px" y="0px"
	 viewBox="0 0 12 12" style="enable-background:new 0 0 12 12;" xml:space="preserve">
<rect x="1.7" y="3.1" width="3.4" height="0.8"/>
<rect x="1.7" y="5.4" width="5.1" height="0.8"/>
<polygon points="10.8,4 7.3,0 8.4,0 11.4,3.5 "/>
<rect x="7.2" y="0.8" width="0.8" height="3.5"/>
<rect x="8" y="3.5" width="3.5" height="0.8"/>
<g>
	<rect x="10.8" y="3.5" width="0.8" height="3"/>
	<polygon points="6,11.2 1.2,11.2 1.2,0.8 8.1,0.8 8.1,0 0.4,0 0.4,12 
		6,12 	"/>
</g>
<g>
	<rect x="8.7" y="7.3" width="0.4" height="2"/>
	<rect x="8.7" y="9" width="2" height="0.4"/>
	<path d="M8.9,11.9c-0.4,0-0.7-0.1-1.1-0.2c-0.3-0.1-0.6-0.3-0.9-0.6c-0.3-0.3-0.5-0.5-0.6-0.9
		C6.2,9.9,6.2,9.5,6.2,9.2c0-0.4,0.1-0.7,0.2-1.1C6.5,7.8,6.7,7.5,7,7.2C7.2,7,7.5,6.8,7.9,6.6c0.3-0.1,0.7-0.2,1.1-0.2
		c0.4,0,0.7,0.1,1.1,0.2c0.3,0.1,0.6,0.3,0.9,0.6c0.3,0.3,0.5,0.6,0.6,0.9c0.1,0.3,0.2,0.7,0.2,1.1c0,0.4-0.1,0.7-0.2,1.1
		c-0.1,0.3-0.3,0.6-0.6,0.9c-0.3,0.3-0.6,0.5-0.9,0.6C9.7,11.9,9.3,11.9,8.9,11.9z M8.9,6.9c-1.2,0-2.2,1-2.2,2.2s1,2.2,2.2,2.2
		s2.2-1,2.2-2.2S10.2,6.9,8.9,6.9z"/>
</g>
</svg>
