<svg id="图层_1" data-name="图层 1" xmlns="http://www.w3.org/2000/svg" viewBox="0 0 12 12"><defs><style>.cls-1,.cls-2{fill:#606266;}.cls-2{fill-rule:evenodd;}</style></defs><title>xx_</title><path d="M6,.81A5.2,5.2,0,1,0,11.2,6,5.2,5.2,0,0,0,6,.81M6,12a6,6,0,0,1-2.33-.47,5.82,5.82,0,0,1-1.9-1.29A5.84,5.84,0,0,1,.49,8.33,5.76,5.76,0,0,1,0,6,6,6,0,0,1,1.77,1.78,6.15,6.15,0,0,1,3.67.49,6.16,6.16,0,0,1,6,0,6,6,0,1,1,6,12"/><path d="M10.05,2a2.48,2.48,0,0,1,.28.36L11.94.69,11.31.06,9.69,1.67A2.48,2.48,0,0,1,10.05,2Z"/><path d="M2,10.05a2.63,2.63,0,0,1-.29-.37L.05,11.3.7,12l1.62-1.61A2.63,2.63,0,0,1,2,10.05Z"/><polygon points="5.26 8.85 2.52 6.17 3.11 5.53 5.91 8.21 5.26 8.85"/><polygon points="4.62 8.23 8.85 4.07 9.46 4.75 5.26 8.85 4.62 8.23"/></svg>