<svg id="图层_1" data-name="图层 1" xmlns="http://www.w3.org/2000/svg" viewBox="0 0 12 12"><defs><style>.cls-1,.cls-2{fill:#606266;}.cls-2{fill-rule:evenodd;}</style></defs><title>线性-画板 246</title><path d="M3.52,3.56a.63.63,0,0,0,.61-.66.64.64,0,0,0-.61-.66.64.64,0,0,0-.62.66.63.63,0,0,0,.62.66Z"/><path d="M6,3.56a.64.64,0,0,0,.62-.66.62.62,0,1,0-1.24,0A.64.64,0,0,0,6,3.56Z"/><path d="M8.48,3.56A.63.63,0,0,0,9.1,2.9a.64.64,0,0,0-.62-.66.65.65,0,0,0-.62.66.64.64,0,0,0,.62.66Z"/><path d="M0,0V12H12V0ZM11.21,11.17H.8V.83H11.21Z"/><rect x="2.71" y="6.24" width="6.6" height="0.8"/><rect x="2.71" y="8.33" width="3.3" height="0.8"/></svg>