<svg id="图层_1" data-name="图层 1" xmlns="http://www.w3.org/2000/svg" viewBox="0 0 12 12"><defs><style>.cls-1,.cls-2{fill:#606266;}.cls-2{fill-rule:evenodd;}</style></defs><title>线性-画板 244</title><path d="M5.06,0H0V5.28H5.06V0ZM4.47,4.68H.6V.58H4.47Z"/><path d="M5.07,6.69H0V12H5.07V6.69ZM4.49,11.4H.61V7.3H4.49Z"/><rect x="7.06" y="8.95" width="2.61" height="0.52" transform="translate(-4.06 8.61) rotate(-45.02)"/><rect x="8.1" y="9.38" width="0.52" height="2.61" transform="translate(-5.1 9.05) rotate(-45.02)"/><rect x="7.11" y="0.92" width="2.5" height="0.5" transform="translate(1.62 6.26) rotate(-45.02)"/><rect x="8.11" y="1.34" width="0.5" height="2.5" transform="translate(0.62 6.67) rotate(-45.02)"/><polygon points="7.88 2.17 11.42 2.17 11.42 9.65 7.88 9.65 7.88 10.25 12 10.25 12 1.58 7.88 1.58 7.88 2.17"/></svg>