<svg id="图层_1" data-name="图层 1" xmlns="http://www.w3.org/2000/svg" viewBox="0 0 12 12"><defs><style>.cls-1,.cls-2{fill:#606266;}.cls-2{fill-rule:evenodd;}</style></defs><title>xx_</title><path d="M4.63,10h-1V5.58s0,0,0,0h1s0,0,0,0V10Z"/><path d="M4.63,4.32h-1s0,0,0,0V3.13h1V4.3s0,0,0,0Z"/><polygon points="10.47 4.01 6.96 0 8.04 0 11.07 3.49 10.47 4.01"/><rect x="6.79" y="0.83" width="0.8" height="3.46"/><polygon points="10.28 3.49 10.28 11.17 1.73 11.17 1.73 0.83 7.59 0.83 7.59 0 0.93 0 0.93 12 11.07 12 11.07 3.49 10.28 3.49"/><rect x="7.59" y="3.49" width="3.48" height="0.8"/></svg>