<svg id="图层_1" data-name="图层 1" xmlns="http://www.w3.org/2000/svg" viewBox="0 0 12 12"><defs><style>.cls-1,.cls-2{fill:#606266;}.cls-2{fill-rule:evenodd;}</style></defs><title>xx_</title><path d="M11,5.71,8.69,8.09a.5.5,0,0,0-.13.26l-.15.7a.18.18,0,0,0,.05.16.17.17,0,0,0,.17,0l.7-.19a.6.6,0,0,0,.21-.14l2.33-2.38a.5.5,0,0,0,0-.68l-.15-.14a.5.5,0,0,0-.71,0Z"/><path d="M2.31,10.14a.33.33,0,0,1-.17,0A.35.35,0,0,1,2,9.65C3.46,7.1,4,7.19,4.18,7.22s.37.11.45.53a7.84,7.84,0,0,1,.11,1V8.9L5,8.64c.49-.54.8-.88,1.18-.8a.63.63,0,0,1,.45.53,1.41,1.41,0,0,1,0,.54l.17-.08A.34.34,0,0,1,7.23,9a.32.32,0,0,1-.13.43c-.53.25-.82.36-1.07.18a.54.54,0,0,1-.1-.57,1,1,0,0,0,0-.49,5,5,0,0,0-.5.53l-.27.29c-.14.16-.43.48-.76.36s-.35-.49-.38-1C4,8.49,4,8.23,4,8a9.65,9.65,0,0,0-1.4,2,.33.33,0,0,1-.3.17Z"/><rect x="6.67" y="3.49" width="3.48" height="0.8"/><polygon points="9.54 4.01 6.04 0 7.11 0 10.15 3.49 9.54 4.01"/><rect x="5.87" y="0.83" width="0.8" height="3.46"/><polygon points="10.15 5.36 10.15 3.49 9.36 3.49 9.36 6.17 10.15 5.36"/><polygon points="9.36 10.17 9.36 11.17 0.8 11.17 0.8 0.83 6.67 0.83 6.67 0 0 0 0 12 10.15 12 10.15 9.36 9.36 10.17"/></svg>